SplineFontDB: 3.0
FontName: Nunito-ExtraLight
FullName: Nunito Extra Light
FamilyName: Nunito
Weight: ExtraLight
Copyright: Digitized data Copyright (c) 2011-2013, vernon adams.
Version: 2.0
ItalicAngle: 0
UnderlinePosition: 0
UnderlineWidth: 0
Ascent: 1638
Descent: 410
UFOAscent: 2030
UFODescent: -675
LayerCount: 2
Layer: 0 0 "Back"  1
Layer: 1 0 "Fore"  0
FSType: 0
OS2Version: 0
OS2_WeightWidthSlopeOnly: 0
OS2_UseTypoMetrics: 1
CreationTime: 1393438879
ModificationTime: 1393439476
PfmFamily: 17
TTFWeight: 200
TTFWidth: 5
LineGap: 0
VLineGap: 0
OS2TypoAscent: 1999
OS2TypoAOffset: 0
OS2TypoDescent: 572
OS2TypoDOffset: 0
OS2TypoLinegap: 0
OS2WinAscent: 1999
OS2WinAOffset: 0
OS2WinDescent: -572
OS2WinDOffset: 0
HheadAscent: 1999
HheadAOffset: 0
HheadDescent: -572
HheadDOffset: 0
OS2Vendor: 'NeWT'
Lookup: 258 0 0 "kernHorizontalKerninglookup0"  {"kernHorizontalKerninglookup0 subtable"  } ['kern' ('DFLT' <'dflt' > ) ]
Lookup: 258 0 0 "kernHorizontalKerninginLatinloo"  {"kernHorizontalKerninginLatinloo subtable"  } ['kern' ('latn' <'dflt' > ) ]
MarkAttachClasses: 1
DEI: 91125
LangName: 1033 "" "" "" "" "" "Version 2.0" "" "Nunito is a trademark of Vernon Adams and may be registered in certain jurisdictions." "newtypography" "Vernon Adams" "" "newtypography.co.uk" "newtypography.co.uk" "Copyright (c) 2013, vernon adams.+AAoACgAA-This Font Software is licensed under the SIL Open Font License, Version 1.1.+AAoA-This license is copied below, and is also available with a FAQ at:+AAoA-http://scripts.sil.org/OFL+AAoA" "http://scripts.sil.org/OFL" "" "" "" "Nunito-ExtraLight" 
PickledData: "(dp1
S'com.typemytype.robofont.foreground.layerStrokeColor'
p2
(F0.5
I0
F0.5
F0.69999999999999996
tp3
sS'com.typemytype.robofont.guides'
p4
((dp5
S'angle'
p6
I0
sS'name'
p7
NsS'magnetic'
p8
I5
sS'isGlobal'
p9
I1
sS'y'
I1013
sS'x'
I587
s(dp10
g6
I0
sg7
Nsg8
I5
sg9
I1
sS'y'
I903
sS'x'
I595
s(dp11
g6
I0
sg7
Nsg8
I5
sg9
I1
sS'y'
I120
sS'x'
I780
s(dp12
g6
I0
sg7
Nsg8
I5
sg9
I1
sS'y'
S'-22'
p13

StartChar: A
Encoding: 33 65 0
Width: 1385
VWidth: 0
GlyphClass: 2
Flags: W
PickledData: "(dp1
S'b'
(dp2
sS'anchors'
p3
(tsS'lib'
p4
(dp5
sS'unicodes'
p6
(tsS'y'
I1232
sS'width'
p7
I1445
sS'points'
p8
(dp9
sS'contours'
p10
(dp11
sS'components'
p12
(tsS'segmentType'
p13
S'line'
p14
sS'x'
I718
sS'com.typemytype.robofont.layerData'
p15
(dp16
S'b'
(dp17
S'name'
p18
S'A'
sg4
(dp19
sg6
(tsg7
I1414
sg10
((dp20
g8
((dp21
g13
S'line'
p22
sS'x'
I403
sS'smooth'
p23
I0
sS'y'
I502
s(dp24
g13
S'line'
p25
sS'x'
I703
sg23
I0
sS'y'
I1275
s(dp26
g13
S'line'
p27
sS'x'
I705
sg23
I0
sS'y'
I1275
s(dp28
g13
S'line'
p29
sS'x'
I1004
sg23
I0
sS'y'
I502
stp30
s(dp31
g8
((dp32
g13
S'curve'
p33
sS'x'
I150
sg23
I1
sS'y'
I0
s(dp34
S'y'
I0
sS'x'
I181
sg23
I0
s(dp35
S'y'
I15
sS'x'
I214
sg23
I0
s(dp36
g13
S'curve'
p37
sS'x'
I229
sg23
I1
sS'y'
I53
s(dp38
g13
S'line'
p39
sS'x'
I356
sg23
I0
sS'y'
I373
s(dp40
g13
S'line'
p41
sS'x'
I1051
sg23
I0
sS'y'
I373
s(dp42
g13
S'line'
p43
sS'x'
I1179
sg23
I1
sS'y'
I53
s(dp44
S'y'
I17
sS'x'
I1193
sg23
I0
s(dp45
S'y'
I0
sS'x'
I1228
sg23
I0
s(dp46
g13
S'curve'
p47
sS'x'
I1260
sg23
I1
sS'y'
I0
s(dp48
S'y'
I0
sS'x'
I1306
sg23
I0
s(dp49
S'y'
I31
sS'x'
I1354
sg23
I0
s(dp50
g13
S'curve'
p51
sS'x'
I1354
sg23
I1
sS'y'
I80
s(dp52
S'y'
I87
sS'x'
I1354
sg23
I0
s(dp53
S'y'
I97
sS'x'
I1352
sg23
I0
s(dp54
g13
S'curve'
p55
sS'x'
I1349
sg23
I0
sS'y'
I108
s(dp56
g13
S'line'
p57
sS'x'
I871
sg23
I1
sS'y'
I1288
s(dp58
S'y'
I1420
sS'x'
I817
sg23
I0
s(dp59
S'y'
I1430
sS'x'
I777
sg23
I0
s(dp60
g13
S'curve'
p61
sS'x'
I710
sg23
I1
sS'y'
I1430
s(dp62
S'y'
I1430
sS'x'
I644
sg23
I0
s(dp63
S'y'
I1413
sS'x'
I596
sg23
I0
s(dp64
g13
S'curve'
p65
sS'x'
I542
sg23
I1
sS'y'
I1280
s(dp66
g13
S'line'
p67
sS'x'
I66
sg23
I1
sS'y'
I108
s(dp68
S'y'
I97
sS'x'
I62
sg23
I0
s(dp69
S'y'
I87
sS'x'
I60
sg23
I0
s(dp70
g13
S'curve'
p71
sS'x'
I60
sg23
I1
sS'y'
I78
s(dp72
S'y'
I32
sS'x'
I60
sg23
I0
s(dp73
S'y'
I0
sS'x'
I106
sg23
I0
stp74
stp75
sg12
(tsg3
(tsssg18
S'A'
s."
AnchorPoint: "ogonek" 1266 19 basechar 0
AnchorPoint: "top" 691 1438 basechar 0
LayerCount: 2
Fore
SplineSet
1019 496 m 257
 360 496 l 257
 689 1318 l 257
 1019 496 l 257
1201 41 m 258
 1214 10 1238 -3 1261 -3 c 256
 1291 -3 1321 19 1321 54 c 256
 1321 63 1319 74 1314 85 c 258
 818 1300 l 258
 777 1402 747 1422 689 1422 c 256
 632 1422 601 1402 561 1300 c 258
 65 85 l 258
 60 74 58 63 58 54 c 256
 58 19 88 -3 118 -3 c 256
 141 -3 165 10 178 41 c 258
 322 402 l 257
 1056 402 l 257
 1201 41 l 258
EndSplineSet
EndChar

StartChar: AE
Encoding: 133 198 1
Width: 1955
VWidth: 0
GlyphClass: 2
Flags: W
PickledData: "(dp1
S'com.typemytype.robofont.layerData'
p2
(dp3
S'b'
(dp4
S'name'
p5
S'AE'
p6
sS'lib'
p7
(dp8
sS'unicodes'
p9
(tsS'width'
p10
I1976
sS'contours'
p11
(tsS'components'
p12
(tsS'anchors'
p13
(tsss."
AnchorPoint: "top" 1277 1462 basechar 0
LayerCount: 2
Fore
SplineSet
1246 0 m 258
 1858 0 l 257
 1862 -0 l 258
 1893 0 1907 24 1907 46 c 256
 1907 77 1881 113 1838 113 c 258
 1290 113 l 257
 1196 677 l 257
 1807 677 l 258
 1840 677 1857 698 1857 723 c 256
 1857 756 1830 789 1787 789 c 258
 1178 789 l 257
 1094 1306 l 257
 1837 1306 l 258
 1871 1306 1885 1327 1885 1352 c 256
 1885 1383 1860 1419 1817 1419 c 258
 1003 1419 l 258
 964 1419 924 1410 857 1306 c 258
 62 79 l 258
 54 67 50 57 50 49 c 258
 50 44 l 258
 50 17 74 -2 103 -2 c 256
 123 -2 145 7 162 33 c 258
 390 385 l 257
 1118 385 l 257
 1179 33 l 258
 1185 1 1216 0 1246 0 c 258
466 500 m 257
 967 1304 l 257
 970 1304 l 257
 1103 500 l 257
 466 500 l 257
EndSplineSet
EndChar

StartChar: B
Encoding: 34 66 13
Width: 1242
VWidth: 0
GlyphClass: 2
Flags: W
PickledData: "(dp1
S'b'
(dp2
sS'anchors'
p3
(tsS'lib'
p4
(dp5
sS'unicodes'
p6
(tsS'y'
I1260
sS'width'
p7
I1395
sS'points'
p8
(dp9
sS'contours'
p10
(dp11
sS'components'
p12
(tsS'segmentType'
p13
S'curve'
p14
sS'x'
I676
sS'com.typemytype.robofont.layerData'
p15
(dp16
S'b'
(dp17
S'name'
p18
S'B'
sg4
(dp19
sg6
(tsg7
I1292
sg10
((dp20
g8
((dp21
g13
S'curve'
p22
sS'x'
I266
sS'smooth'
p23
I1
sS'y'
I0
s(dp24
g13
S'line'
p25
sS'x'
I1035
sg23
I1
sS'y'
I0
s(dp26
S'y'
I0
sS'x'
I1084
sg23
I0
s(dp27
S'y'
I36
sS'x'
I1108
sg23
I0
s(dp28
g13
S'curve'
p29
sS'x'
I1108
sg23
I1
sS'y'
I73
s(dp30
S'y'
I109
sS'x'
I1108
sg23
I0
s(dp31
S'y'
I145
sS'x'
I1084
sg23
I0
s(dp32
g13
S'curve'
p33
sS'x'
I1035
sg23
I1
sS'y'
I145
s(dp34
g13
S'line'
p35
sS'x'
I353
sg23
I0
sS'y'
I145
s(dp36
g13
S'line'
p37
sS'x'
I353
sg23
I0
sS'y'
I662
s(dp38
g13
S'line'
p39
sS'x'
I975
sg23
I1
sS'y'
I662
s(dp40
S'y'
I662
sS'x'
I1024
sg23
I0
s(dp41
S'y'
I698
sS'x'
I1049
sg23
I0
s(dp42
g13
S'curve'
p43
sS'x'
I1049
sg23
I1
sS'y'
I734
s(dp44
S'y'
I770
sS'x'
I1049
sg23
I0
s(dp45
S'y'
I806
sS'x'
I1026
sg23
I0
s(dp46
g13
S'curve'
p47
sS'x'
I975
sg23
I1
sS'y'
I806
s(dp48
g13
S'line'
p49
sS'x'
I353
sg23
I0
sS'y'
I806
s(dp50
g13
S'line'
p51
sS'x'
I353
sg23
I0
sS'y'
I1281
s(dp52
g13
S'line'
p53
sS'x'
I1007
sg23
I1
sS'y'
I1281
s(dp54
S'y'
I1281
sS'x'
I1056
sg23
I0
s(dp55
S'y'
I1317
sS'x'
I1080
sg23
I0
s(dp56
g13
S'curve'
p57
sS'x'
I1080
sg23
I1
sS'y'
I1354
s(dp58
S'y'
I1390
sS'x'
I1080
sg23
I0
s(dp59
S'y'
I1426
sS'x'
I1056
sg23
I0
s(dp60
g13
S'curve'
p61
sS'x'
I1007
sg23
I1
sS'y'
I1426
s(dp62
g13
S'line'
p63
sS'x'
I261
sg23
I1
sS'y'
I1426
s(dp64
S'y'
I1426
sS'x'
I213
sg23
I0
s(dp65
S'y'
I1383
sS'x'
I178
sg23
I0
s(dp66
g13
S'curve'
p67
sS'x'
I178
sg23
I1
sS'y'
I1340
s(dp68
g13
S'line'
p69
sS'x'
I178
sg23
I1
sS'y'
I86
s(dp70
S'y'
I41
sS'x'
I178
sg23
I0
s(dp71
S'y'
I0
sS'x'
I222
sg23
I0
stp72
stp73
sg12
(tsg3
(tsssg18
S'B'
s."
AnchorPoint: "top" 639 1438 basechar 0
LayerCount: 2
Fore
SplineSet
244 0 m 258
 713 0 l 258
 1041 0 1160 184 1160 382 c 256
 1160 594 1012 723 788 740 c 257
 788 744 l 257
 991 756 1103 916 1103 1058 c 256
 1103 1281 966 1419 607 1419 c 258
 244 1419 l 258
 211 1419 181 1394 181 1360 c 258
 181 60 l 258
 181 25 211 0 244 0 c 258
301 97 m 257
 301 687 l 257
 605 687 l 258
 885 687 1030 603 1030 399 c 256
 1030 171 917 97 675 97 c 258
 301 97 l 257
301 782 m 257
 301 1324 l 257
 620 1324 l 258
 795 1324 982 1282 982 1064 c 256
 982 869 848 782 608 782 c 258
 301 782 l 257
EndSplineSet
EndChar

StartChar: C
Encoding: 35 67 14
Width: 1354
VWidth: 0
GlyphClass: 2
Flags: W
PickledData: "(dp1
S'b'
(dp2
sS'anchors'
p3
(tsS'lib'
p4
(dp5
sS'unicodes'
p6
(tsS'width'
p7
I1354
sS'contours'
p8
(tsS'components'
p9
(tsS'com.typemytype.robofont.layerData'
p10
(dp11
S'b'
(dp12
S'name'
p13
S'C'
sg4
(dp14
sg6
(tsg7
F1353.8900000000001
sg8
(tsg9
(tsg3
(tsssg13
S'C'
s."
AnchorPoint: "bot" 760 14 basechar 0
AnchorPoint: "top" 788 1438 basechar 0
LayerCount: 2
Fore
SplineSet
781 -22 m 256
 952 -22 1074 40 1141 85 c 256
 1174 107 1187 129 1187 147 c 256
 1187 171 1164 188 1139 188 c 256
 1128 188 1116 185 1105 177 c 256
 1010 118 926 78 788 78 c 256
 385 78 271 417 271 693 c 256
 271 967 392 1312 787 1312 c 256
 986 1312 1052 1265 1086 1244 c 256
 1099 1236 1110 1233 1119 1233 c 256
 1144 1233 1158 1256 1158 1278 c 256
 1158 1292 1153 1306 1142 1314 c 256
 1136 1322 1032 1412 787 1412 c 256
 328 1412 139 1034 139 693 c 256
 139 323 324 -22 781 -22 c 256
EndSplineSet
EndChar

StartChar: D
Encoding: 36 68 20
Width: 1477
VWidth: 0
GlyphClass: 2
Flags: W
PickledData: "(dp1
S'b'
(dp2
sS'anchors'
p3
(tsS'lib'
p4
(dp5
sS'unicodes'
p6
(tsS'width'
p7
I1535
sS'contours'
p8
(tsS'components'
p9
(tsS'com.typemytype.robofont.layerData'
p10
(dp11
S'b'
(dp12
S'name'
p13
S'D'
sg4
(dp14
sg6
(tsg7
I1499
sg8
((dp15
S'points'
p16
((dp17
S'segmentType'
p18
S'curve'
p19
sS'x'
I266
sS'smooth'
p20
I1
sS'y'
I0
s(dp21
g18
S'line'
p22
sS'x'
I1035
sg20
I1
sS'y'
I0
s(dp23
S'y'
I0
sS'x'
I1084
sg20
I0
s(dp24
S'y'
I34
sS'x'
I1108
sg20
I0
s(dp25
g18
S'curve'
p26
sS'x'
I1108
sg20
I1
sS'y'
I71
s(dp27
S'y'
I107
sS'x'
I1108
sg20
I0
s(dp28
S'y'
I141
sS'x'
I1084
sg20
I0
s(dp29
g18
S'curve'
p30
sS'x'
I1035
sg20
I1
sS'y'
I141
s(dp31
g18
S'line'
p32
sS'x'
I356
sg20
I0
sS'y'
I141
s(dp33
g18
S'line'
p34
sS'x'
I356
sg20
I0
sS'y'
I665
s(dp35
g18
S'line'
p36
sS'x'
I975
sg20
I1
sS'y'
I665
s(dp37
S'y'
I665
sS'x'
I1024
sg20
I0
s(dp38
S'y'
I698
sS'x'
I1049
sg20
I0
s(dp39
g18
S'curve'
p40
sS'x'
I1049
sg20
I1
sS'y'
I734
s(dp41
S'y'
I770
sS'x'
I1049
sg20
I0
s(dp42
S'y'
I803
sS'x'
I1026
sg20
I0
s(dp43
g18
S'curve'
p44
sS'x'
I975
sg20
I1
sS'y'
I803
s(dp45
g18
S'line'
p46
sS'x'
I356
sg20
I0
sS'y'
I803
s(dp47
g18
S'line'
p48
sS'x'
I356
sg20
I0
sS'y'
I1285
s(dp49
g18
S'line'
p50
sS'x'
I1007
sg20
I1
sS'y'
I1285
s(dp51
S'y'
I1285
sS'x'
I1056
sg20
I0
s(dp52
S'y'
I1319
sS'x'
I1080
sg20
I0
s(dp53
g18
S'curve'
p54
sS'x'
I1080
sg20
I1
sS'y'
I1356
s(dp55
S'y'
I1392
sS'x'
I1080
sg20
I0
s(dp56
S'y'
I1426
sS'x'
I1056
sg20
I0
s(dp57
g18
S'curve'
p58
sS'x'
I1007
sg20
I1
sS'y'
I1426
s(dp59
g18
S'line'
p60
sS'x'
I261
sg20
I1
sS'y'
I1426
s(dp61
S'y'
I1426
sS'x'
I213
sg20
I0
s(dp62
S'y'
I1383
sS'x'
I178
sg20
I0
s(dp63
g18
S'curve'
p64
sS'x'
I178
sg20
I1
sS'y'
I1340
s(dp65
g18
S'line'
p66
sS'x'
I178
sg20
I1
sS'y'
I86
s(dp67
S'y'
I41
sS'x'
I178
sg20
I0
s(dp68
S'y'
I0
sS'x'
I222
sg20
I0
stp69
stp70
sg9
(tsg3
(tsssg13
S'D'
s."
AnchorPoint: "mid" 296 698 basechar 0
AnchorPoint: "top" 794 1438 basechar 0
LayerCount: 2
Fore
SplineSet
244 6 m 258
 574 6 l 258
 1060 6 1336 246 1336 715 c 256
 1336 1185 1064 1425 581 1425 c 258
 244 1425 l 258
 209 1425 181 1398 181 1366 c 258
 181 66 l 258
 181 34 209 6 244 6 c 258
306 105 m 257
 306 1327 l 257
 535 1327 l 258
 987 1327 1206 1159 1206 715 c 256
 1206 326 1038 105 575 105 c 258
 306 105 l 257
EndSplineSet
EndChar

StartChar: Dcroat
Encoding: 207 272 22
Width: 1486
VWidth: 0
GlyphClass: 2
Flags: W
LayerCount: 2
Fore
SplineSet
62 674 m 258
 529 674 l 258
 563 674 584 691 584 718 c 256
 584 747 563 765 529 765 c 258
 55 765 l 258
 21 765 -1 747 -1 718 c 256
 -1 691 24 674 62 674 c 258
EndSplineSet
Refer: 20 68 N 1 0 0 1 0 0 2
EndChar

StartChar: uni0394
Encoding: 413 916 23
Width: 1135
VWidth: 0
GlyphClass: 2
Flags: W
LayerCount: 2
Fore
SplineSet
-5 0 m 257
 1142 0 l 257
 593 1391 l 258
 586 1411 580 1422 572 1422 c 256
 565 1422 556 1412 546 1391 c 258
 -5 0 l 257
122 65 m 257
 570 1248 l 257
 1020 65 l 257
 122 65 l 257
EndSplineSet
EndChar

StartChar: E
Encoding: 37 69 24
Width: 1220
VWidth: 0
GlyphClass: 2
Flags: W
PickledData: "(dp1
S'b'
(dp2
sS'anchors'
p3
(tsS'lib'
p4
(dp5
sS'unicodes'
p6
(tsS'width'
p7
I1258
sS'contours'
p8
(tsS'components'
p9
(tsS'com.typemytype.robofont.layerData'
p10
(dp11
S'b'
(dp12
S'name'
p13
S'E'
sg4
(dp14
sg6
(tsg7
I1234
sg8
(tsg9
(tsg3
(tsssg13
S'E'
s."
AnchorPoint: "bot" 631 -1 basechar 0
AnchorPoint: "ogonek" 801 9 basechar 0
AnchorPoint: "top" 632 1438 basechar 0
LayerCount: 2
Fore
SplineSet
243 0 m 258
 1026 0 l 258
 1064 0 1083 21 1083 51 c 256
 1083 79 1064 99 1026 99 c 258
 306 99 l 257
 306 684 l 257
 966 684 l 258
 1005 684 1024 705 1024 733 c 256
 1024 760 1007 781 966 781 c 258
 306 781 l 257
 306 1320 l 257
 994 1320 l 258
 1033 1320 1052 1341 1052 1370 c 256
 1052 1398 1033 1419 994 1419 c 258
 238 1419 l 258
 204 1419 181 1387 181 1359 c 258
 181 60 l 258
 181 30 214 0 243 0 c 258
EndSplineSet
EndChar

StartChar: Eng
Encoding: 265 330 33
Width: 1458
VWidth: 0
GlyphClass: 2
Flags: HW
PickledData: "(dp1
S'com.typemytype.robofont.layerData'
p2
(dp3
S'b'
(dp4
S'name'
p5
S'Eng'
p6
sS'lib'
p7
(dp8
sS'unicodes'
p9
(tsS'width'
p10
I1495
sS'contours'
p11
(tsS'components'
p12
(tsS'anchors'
p13
(tsss."
LayerCount: 2
Fore
SplineSet
638 -379 m 0
 747 -405 855 -423 941 -423 c 0
 1165 -423 1283 -317 1283 49 c 2
 1283 1359 l 2
 1283 1398 1255 1419 1225 1419 c 0
 1192 1419 1167 1399 1167 1359 c 2
 1167 175 l 1
 373 1338 l 2
 335 1393 298 1419 266 1419 c 0
 217 1419 187 1385 187 1326 c 2
 187 59 l 2
 187 19 212 0 246 0 c 0
 277 0 303 20 303 59 c 2
 303 1242 l 1
 1167 -7 l 1
 1167 -218 1123 -323 944 -323 c 0
 873 -323 778 -306 654 -273 c 0
 647 -271 640 -270 634 -270 c 0
 598 -270 574 -291 574 -320 c 0
 574 -345 592.583695019 -368.16675294 638 -379 c 0
EndSplineSet
EndChar

StartChar: Euro
Encoding: 461 8364 36
Width: 1357
VWidth: 0
GlyphClass: 2
Flags: HW
LayerCount: 2
Fore
SplineSet
820 -22 m 0
 991 -22 1113 40 1180 85 c 0
 1213 107 1226 129 1226 147 c 0
 1226 171 1203 188 1178 188 c 0
 1167 188 1155 185 1144 177 c 0
 1049 118 965 78 827 78 c 0
 505.097568711 78 367.584670348 294.2908362 325.275511366 522 c 1
 874 522 l 2
 902 522 915 546 915 570 c 0
 915 595 901 622 875 622 c 2
 312.54228011 622 l 1
 310.812338201 645.954383804 310 669.701653773 310 693 c 0
 310 718.496934711 311.047756077 744.608668443 313.266551363 771 c 1
 874 771 l 2
 902 771 915 795 915 819 c 0
 915 844 901 870 875 870 c 2
 327.192028668 870 l 1
 372.41998417 1095.94614038 513.414691307 1312 826 1312 c 0
 1025 1312 1091 1265 1125 1244 c 0
 1138 1236 1149 1233 1158 1233 c 0
 1183 1233 1197 1256 1197 1278 c 0
 1197 1292 1192 1306 1181 1314 c 0
 1175 1322 1071 1412 826 1412 c 0
 445.890592524 1412 250.944790907 1152.7709518 195.161007888 870 c 1
 63 870 l 2
 41 870 28 843 28 818 c 0
 28 795 39 771 63 771 c 2
 181.293018973 771 l 1
 179.085914156 744.907905398 178 718.847659514 178 693 c 0
 178 669.201522262 178.765361544 645.506471759 180.319235199 622 c 1
 63 622 l 2
 41 622 28 594 28 569 c 0
 28 545 39 522 63 522 c 2
 191.985786321 522 l 1
 242.716140239 223.274046309 434.670330126 -22 820 -22 c 0
EndSplineSet
EndChar

StartChar: F
Encoding: 38 70 37
Width: 1122
VWidth: 0
GlyphClass: 2
Flags: W
PickledData: "(dp1
S'b'
(dp2
sS'anchors'
p3
(tsS'lib'
p4
(dp5
sS'unicodes'
p6
(tsS'width'
p7
I1175
sS'contours'
p8
(tsS'components'
p9
(tsS'com.typemytype.robofont.layerData'
p10
(dp11
S'b'
(dp12
S'name'
p13
S'F'
sg4
(dp14
sg6
(tsg7
I1142
sg8
((dp15
S'points'
p16
((dp17
S'segmentType'
p18
S'curve'
p19
sS'x'
I266
sS'smooth'
p20
I1
sS'y'
I0
s(dp21
g18
S'line'
p22
sS'x'
I1035
sg20
I1
sS'y'
I0
s(dp23
S'y'
I0
sS'x'
I1084
sg20
I0
s(dp24
S'y'
I34
sS'x'
I1108
sg20
I0
s(dp25
g18
S'curve'
p26
sS'x'
I1108
sg20
I1
sS'y'
I71
s(dp27
S'y'
I107
sS'x'
I1108
sg20
I0
s(dp28
S'y'
I141
sS'x'
I1084
sg20
I0
s(dp29
g18
S'curve'
p30
sS'x'
I1035
sg20
I1
sS'y'
I141
s(dp31
g18
S'line'
p32
sS'x'
I353
sg20
I0
sS'y'
I141
s(dp33
g18
S'line'
p34
sS'x'
I353
sg20
I0
sS'y'
I665
s(dp35
g18
S'line'
p36
sS'x'
I975
sg20
I1
sS'y'
I665
s(dp37
S'y'
I665
sS'x'
I1024
sg20
I0
s(dp38
S'y'
I698
sS'x'
I1049
sg20
I0
s(dp39
g18
S'curve'
p40
sS'x'
I1049
sg20
I1
sS'y'
I734
s(dp41
S'y'
I770
sS'x'
I1049
sg20
I0
s(dp42
S'y'
I803
sS'x'
I1026
sg20
I0
s(dp43
g18
S'curve'
p44
sS'x'
I975
sg20
I1
sS'y'
I803
s(dp45
g18
S'line'
p46
sS'x'
I353
sg20
I0
sS'y'
I803
s(dp47
g18
S'line'
p48
sS'x'
I353
sg20
I0
sS'y'
I1285
s(dp49
g18
S'line'
p50
sS'x'
I1007
sg20
I1
sS'y'
I1285
s(dp51
S'y'
I1285
sS'x'
I1056
sg20
I0
s(dp52
S'y'
I1319
sS'x'
I1080
sg20
I0
s(dp53
g18
S'curve'
p54
sS'x'
I1080
sg20
I1
sS'y'
I1356
s(dp55
S'y'
I1392
sS'x'
I1080
sg20
I0
s(dp56
S'y'
I1426
sS'x'
I1056
sg20
I0
s(dp57
g18
S'curve'
p58
sS'x'
I1007
sg20
I1
sS'y'
I1426
s(dp59
g18
S'line'
p60
sS'x'
I261
sg20
I1
sS'y'
I1426
s(dp61
S'y'
I1426
sS'x'
I213
sg20
I0
s(dp62
S'y'
I1383
sS'x'
I178
sg20
I0
s(dp63
g18
S'curve'
p64
sS'x'
I178
sg20
I1
sS'y'
I1340
s(dp65
g18
S'line'
p66
sS'x'
I178
sg20
I1
sS'y'
I86
s(dp67
S'y'
I41
sS'x'
I178
sg20
I0
s(dp68
S'y'
I0
sS'x'
I222
sg20
I0
stp69
stp70
sg9
(tsg3
(tsssg13
S'F'
s."
LayerCount: 2
Fore
SplineSet
246 0 m 256
 276 0 307 17 307 57 c 258
 307 690 l 257
 928 690 l 258
 966 690 987 713 987 742 c 256
 987 770 966 789 928 789 c 258
 307 789 l 257
 307 1320 l 257
 953 1320 l 258
 991 1320 1010 1341 1010 1370 c 256
 1010 1398 991 1419 953 1419 c 258
 239 1419 l 258
 208 1419 182 1398 182 1362 c 258
 182 57 l 258
 182 19 214 0 246 0 c 256
EndSplineSet
EndChar

StartChar: G
Encoding: 39 71 38
Width: 1422
VWidth: 0
GlyphClass: 2
Flags: W
PickledData: "(dp1
S'b'
(dp2
sS'anchors'
p3
(tsS'lib'
p4
(dp5
sS'unicodes'
p6
(tsS'width'
p7
I1538
sS'contours'
p8
(tsS'components'
p9
(tsS'com.typemytype.robofont.layerData'
p10
(dp11
S'b'
(dp12
S'name'
p13
S'G'
sg4
(dp14
sg6
(tsg7
I1448
sg8
((dp15
S'points'
p16
((dp17
S'segmentType'
p18
S'curve'
p19
sS'x'
I783
sS'smooth'
p20
I1
sS'y'
S'-22'
p21
s(dp22
S'y'
S'-22'
p23
sS'x'
I965
sg20
I0
s(dp24
S'y'
I34
sS'x'
I1086
sg20
I0
s(dp25
g18
S'curve'
p26
sS'x'
I1166
sg20
I1
sS'y'
I86
s(dp27
S'y'
I154
sS'x'
I1270
sg20
I0
s(dp28
S'y'
I258
sS'x'
I1186
sg20
I0
s(dp29
g18
S'curve'
p30
sS'x'
I1112
sg20
I1
sS'y'
I214
s(dp31
S'y'
I162
sS'x'
I1024
sg20
I0
s(dp32
S'y'
I120
sS'x'
I939
sg20
I0
s(dp33
g18
S'curve'
p34
sS'x'
I806
sg20
I1
sS'y'
I120
s(dp35
S'y'
I120
sS'x'
I446
sg20
I0
s(dp36
S'y'
I406
sS'x'
I316
sg20
I0
s(dp37
g18
S'curve'
p38
sS'x'
I316
sg20
I1
sS'y'
I706
s(dp39
S'y'
I1005
sS'x'
I316
sg20
I0
s(dp40
S'y'
I1296
sS'x'
I450
sg20
I0
s(dp41
g18
S'curve'
p42
sS'x'
I801
sg20
I1
sS'y'
I1296
s(dp43
S'y'
I1296
sS'x'
I980
sg20
I0
s(dp44
S'y'
I1246
sS'x'
I1053
sg20
I0
s(dp45
g18
S'curve'
p46
sS'x'
I1094
sg20
I1
sS'y'
I1225
s(dp47
S'y'
I1184
sS'x'
I1174
sg20
I0
s(dp48
S'y'
I1300
sS'x'
I1231
sg20
I0
s(dp49
g18
S'curve'
p50
sS'x'
I1156
sg20
I1
sS'y'
I1343
s(dp51
S'y'
I1372
sS'x'
I1106
sg20
I0
s(dp52
S'y'
I1438
sS'x'
I995
sg20
I0
s(dp53
g18
S'curve'
p54
sS'x'
I797
sg20
I1
sS'y'
I1438
s(dp55
S'y'
I1438
sS'x'
I359
sg20
I0
s(dp56
S'y'
I1093
sS'x'
I128
sg20
I0
s(dp57
g18
S'curve'
p58
sS'x'
I128
sg20
I1
sS'y'
I704
s(dp59
S'y'
I307
sS'x'
I128
sg20
I0
s(dp60
S'y'
S'-22'
p61
sS'x'
I350
sg20
I0
stp62
stp63
sg9
(tsg3
(tsssg13
S'G'
s."
AnchorPoint: "bot" 838 0 basechar 0
AnchorPoint: "top" 892 1419 basechar 0
LayerCount: 2
Fore
SplineSet
778 -22 m 256
 953 -22 1132 8 1252 60 c 256
 1270 70 1292 106 1292 132 c 258
 1292 666 l 258
 1292 699 1270 721 1237 721 c 258
 854 721 l 258
 817 721 798 694 798 670 c 256
 798 648 818 623 854 623 c 258
 1170 623 l 257
 1170 133 l 257
 1068 103 914 78 801 78 c 256
 408 78 271 380 271 692 c 256
 271 1058 468 1312 833 1312 c 256
 941 1312 1067 1286 1183 1247 c 257
 1183 1248 1193 1247 1193 1247 c 258
 1219 1247 1237 1271 1237 1298 c 256
 1237 1315 1230 1332 1212 1340 c 256
 1099 1387 963 1412 826 1412 c 256
 364 1412 139 1062 139 702 c 256
 139 205 430 -22 778 -22 c 256
EndSplineSet
EndChar

StartChar: H
Encoding: 40 72 44
Width: 1428
VWidth: 0
GlyphClass: 2
Flags: W
PickledData: "(dp1
S'b'
(dp2
sS'anchors'
p3
(tsS'lib'
p4
(dp5
sS'unicodes'
p6
(tsS'width'
p7
I1524
sS'contours'
p8
(tsS'components'
p9
(tsS'com.typemytype.robofont.layerData'
p10
(dp11
S'b'
(dp12
S'name'
p13
S'H'
sg4
(dp14
sg6
(tsg7
I1464
sg8
(tsg9
(tsg3
(tsssg13
S'H'
s."
AnchorPoint: "top" 757 1438 basechar 0
LayerCount: 2
Fore
SplineSet
243 -1 m 256
 274 -1 306 16 306 56 c 258
 306 687 l 257
 1122 687 l 257
 1122 56 l 258
 1122 18 1153 -1 1183 -1 c 256
 1214 -1 1247 16 1247 56 c 258
 1247 1363 l 258
 1247 1401 1216 1420 1184 1420 c 256
 1153 1420 1122 1400 1122 1363 c 258
 1122 787 l 257
 306 787 l 257
 306 1363 l 258
 306 1401 275 1420 245 1420 c 256
 214 1420 181 1400 181 1363 c 258
 181 56 l 258
 181 18 212 -1 243 -1 c 256
EndSplineSet
EndChar

StartChar: Hbar
Encoding: 229 294 45
Width: 1436
VWidth: 0
GlyphClass: 2
Flags: W
PickledData: "(dp1
S'com.typemytype.robofont.layerData'
p2
(dp3
S'b'
(dp4
S'name'
p5
S'Hbar'
p6
sS'lib'
p7
(dp8
sS'unicodes'
p9
(tsS'width'
p10
I1464
sS'contours'
p11
(tsS'components'
p12
(tsS'anchors'
p13
(tsss."
LayerCount: 2
Fore
SplineSet
127 1032 m 258
 1313 1032 l 258
 1350 1032 1375 1047 1375 1076 c 256
 1375 1106 1350 1121 1313 1121 c 258
 127 1121 l 258
 91 1121 66 1106 66 1076 c 256
 66 1047 91 1032 127 1032 c 258
EndSplineSet
Refer: 44 72 N 1 0 0 1 0 0 2
EndChar

StartChar: I
Encoding: 41 73 47
Width: 565
VWidth: 0
GlyphClass: 2
Flags: W
PickledData: "(dp1
S'b'
(dp2
sS'anchors'
p3
(tsS'lib'
p4
(dp5
sS'unicodes'
p6
(tsS'width'
p7
I637
sS'contours'
p8
(tsS'components'
p9
(tsS'com.typemytype.robofont.layerData'
p10
(dp11
S'b'
(dp12
S'name'
p13
S'I'
sg4
(dp14
sg6
(tsg7
I592
sg8
(tsg9
(tsg3
(tsssg13
S'I'
s."
AnchorPoint: "ogonek" 273 24 basechar 0
AnchorPoint: "top" 296 1438 basechar 0
LayerCount: 2
Fore
SplineSet
283 -1 m 256
 314 -1 346 16 346 56 c 258
 346 1359 l 258
 346 1399 316 1418 285 1418 c 256
 254 1418 221 1397 221 1359 c 258
 221 56 l 258
 221 18 253 -1 283 -1 c 256
EndSplineSet
EndChar

StartChar: J
Encoding: 42 74 58
Width: 970
VWidth: 0
GlyphClass: 2
Flags: W
PickledData: "(dp1
S'b'
(dp2
sS'anchors'
p3
(tsS'lib'
p4
(dp5
sS'unicodes'
p6
(tsS'width'
p7
I1126
sS'contours'
p8
(tsS'components'
p9
(tsS'com.typemytype.robofont.layerData'
p10
(dp11
S'b'
(dp12
S'name'
p13
S'J'
sg4
(dp14
sg6
(tsg7
I1003
sg8
(tsg9
(tsg3
(tsssg13
S'J'
s."
AnchorPoint: "top" 769 1438 basechar 0
LayerCount: 2
Fore
SplineSet
85 157 m 256
 85 142 91 140 80 130 c 257
 101 82 243 -17 406 -17 c 256
 609 -17 832 104 832 440 c 258
 832 1363 l 258
 832 1401 801 1419 769 1419 c 256
 738 1419 705 1401 705 1363 c 258
 705 453 l 258
 705 203 600 88 421 88 c 256
 313 88 242 135 215 170 c 257
 182 199 154 210 132 210 c 256
 99 210 85 184 85 157 c 256
EndSplineSet
EndChar

StartChar: K
Encoding: 43 75 60
Width: 1185
VWidth: 0
GlyphClass: 2
Flags: W
PickledData: "(dp1
S'b'
(dp2
sS'anchors'
p3
(tsS'lib'
p4
(dp5
sS'unicodes'
p6
(tsS'width'
p7
I1329
sS'contours'
p8
(tsS'components'
p9
(tsS'com.typemytype.robofont.layerData'
p10
(dp11
S'b'
(dp12
S'name'
p13
S'K'
sg4
(dp14
sg6
(tsg7
I1210
sg8
(tsg9
(tsg3
(tsssg13
S'K'
s."
AnchorPoint: "bot" 629 0 basechar 0
AnchorPoint: "top" 633 1438 basechar 0
LayerCount: 2
Fore
SplineSet
238 0 m 256
 269 0 300 17 300 57 c 258
 300 708 l 257
 1028 20 l 258
 1044 8 1061 -1 1076 -1 c 256
 1111 -1 1131 20 1131 52 c 256
 1131 67 1126 83 1111 96 c 258
 428 729 l 257
 1057 1331 l 258
 1070 1343 1075 1358 1075 1372 c 256
 1075 1399 1058 1420 1027 1420 c 256
 1013 1420 998 1416 984 1404 c 258
 300 740 l 257
 300 1361 l 258
 300 1398 270 1419 241 1419 c 256
 210 1419 180 1399 180 1361 c 258
 180 57 l 258
 180 18 210 0 238 0 c 256
EndSplineSet
EndChar

StartChar: L
Encoding: 44 76 62
Width: 1075
VWidth: 0
GlyphClass: 2
Flags: W
PickledData: "(dp1
S'b'
(dp2
sS'anchors'
p3
(tsS'lib'
p4
(dp5
sS'unicodes'
p6
(tsS'width'
p7
I1169
sS'contours'
p8
(tsS'components'
p9
(tsS'com.typemytype.robofont.layerData'
p10
(dp11
S'b'
(dp12
S'name'
p13
S'L'
sg4
(dp14
sg6
(tsg7
I1095
sg8
((dp15
S'points'
p16
((dp17
S'segmentType'
p18
S'curve'
p19
sS'x'
I266
sS'smooth'
p20
I1
sS'y'
I0
s(dp21
g18
S'line'
p22
sS'x'
I1035
sg20
I1
sS'y'
I0
s(dp23
S'y'
I0
sS'x'
I1084
sg20
I0
s(dp24
S'y'
I34
sS'x'
I1108
sg20
I0
s(dp25
g18
S'curve'
p26
sS'x'
I1108
sg20
I1
sS'y'
I71
s(dp27
S'y'
I107
sS'x'
I1108
sg20
I0
s(dp28
S'y'
I141
sS'x'
I1084
sg20
I0
s(dp29
g18
S'curve'
p30
sS'x'
I1035
sg20
I1
sS'y'
I141
s(dp31
g18
S'line'
p32
sS'x'
I356
sg20
I0
sS'y'
I141
s(dp33
g18
S'line'
p34
sS'x'
I356
sg20
I0
sS'y'
I665
s(dp35
g18
S'line'
p36
sS'x'
I975
sg20
I1
sS'y'
I665
s(dp37
S'y'
I665
sS'x'
I1024
sg20
I0
s(dp38
S'y'
I698
sS'x'
I1049
sg20
I0
s(dp39
g18
S'curve'
p40
sS'x'
I1049
sg20
I1
sS'y'
I734
s(dp41
S'y'
I770
sS'x'
I1049
sg20
I0
s(dp42
S'y'
I803
sS'x'
I1026
sg20
I0
s(dp43
g18
S'curve'
p44
sS'x'
I975
sg20
I1
sS'y'
I803
s(dp45
g18
S'line'
p46
sS'x'
I356
sg20
I0
sS'y'
I803
s(dp47
g18
S'line'
p48
sS'x'
I356
sg20
I0
sS'y'
I1285
s(dp49
g18
S'line'
p50
sS'x'
I1007
sg20
I1
sS'y'
I1285
s(dp51
S'y'
I1285
sS'x'
I1056
sg20
I0
s(dp52
S'y'
I1319
sS'x'
I1080
sg20
I0
s(dp53
g18
S'curve'
p54
sS'x'
I1080
sg20
I1
sS'y'
I1356
s(dp55
S'y'
I1392
sS'x'
I1080
sg20
I0
s(dp56
S'y'
I1426
sS'x'
I1056
sg20
I0
s(dp57
g18
S'curve'
p58
sS'x'
I1007
sg20
I1
sS'y'
I1426
s(dp59
g18
S'line'
p60
sS'x'
I261
sg20
I1
sS'y'
I1426
s(dp61
S'y'
I1426
sS'x'
I213
sg20
I0
s(dp62
S'y'
I1383
sS'x'
I178
sg20
I0
s(dp63
g18
S'curve'
p64
sS'x'
I178
sg20
I1
sS'y'
I1340
s(dp65
g18
S'line'
p66
sS'x'
I178
sg20
I1
sS'y'
I86
s(dp67
S'y'
I41
sS'x'
I178
sg20
I0
s(dp68
S'y'
I0
sS'x'
I222
sg20
I0
stp69
stp70
sg9
(tsg3
(tsssg13
S'L'
s."
AnchorPoint: "mid" 243 672 basechar 0
AnchorPoint: "bot" 647 0 basechar 0
AnchorPoint: "caron.alt" 556 962 basechar 0
AnchorPoint: "top" 234 1462 basechar 0
LayerCount: 2
Fore
SplineSet
244 0 m 258
 993 0 l 258
 1031 0 1051 22 1051 49 c 256
 1051 78 1034 99 993 99 c 258
 306 99 l 257
 306 1363 l 258
 306 1401 275 1420 245 1420 c 256
 213 1420 181 1399 181 1363 c 258
 181 59 l 258
 181 25 210 0 244 0 c 258
EndSplineSet
EndChar

StartChar: Lslash
Encoding: 256 321 67
Width: 1136
VWidth: 0
GlyphClass: 2
Flags: HW
LayerCount: 2
Fore
SplineSet
244 0 m 2
 993 0 l 2
 1031 0 1051 22 1051 49 c 0
 1051 78 1034 99 993 99 c 2
 306 99 l 1
 306 755.312138728 l 1
 468 863 l 2
 480.638506939 870.583104163 485.898582172 882.744171434 485.898582172 895.670268336 c 0
 485.898582172 922.204362679 463.733687134 951.962137432 437.72744753 951.962137432 c 0
 431.294237519 951.962137432 424.62596487 950.141175816 418 946 c 2
 306 871.224489796 l 1
 306 1363 l 2
 306 1401 275 1420 245 1420 c 0
 213 1420 181 1399 181 1363 c 2
 181 787.7696793 l 1
 75 717 l 2
 59.6383234546 707.060214092 53.2611316675 692.510743336 53.2611316675 677.955826519 c 0
 53.2611316675 652.060308953 73.4475474271 626.147552382 99.1367149768 626.147552382 c 0
 106.426541725 626.147552382 114.159481253 628.234194487 122 633 c 2
 181 672.219653179 l 1
 181 59 l 2
 181 25 210 0 244 0 c 2
EndSplineSet
EndChar

StartChar: M
Encoding: 45 77 68
Width: 1884
VWidth: 0
GlyphClass: 2
Flags: W
PickledData: "(dp1
S'b'
(dp2
sS'anchors'
p3
(tsS'lib'
p4
(dp5
sS'unicodes'
p6
(tsS'width'
p7
I1984
sS'contours'
p8
(tsS'components'
p9
(tsS'com.typemytype.robofont.layerData'
p10
(dp11
S'b'
(dp12
S'name'
p13
S'M'
sg4
(dp14
sg6
(tsg7
I1899
sg8
(tsg9
(tsg3
(tsssg13
S'M'
s."
AnchorPoint: "top" 979 1438 basechar 0
LayerCount: 2
Fore
SplineSet
948 24 m 256
 976 24 1008 42 1028 81 c 258
 1597 1273 l 257
 1597 42 l 258
 1597 8 1626 -9 1654 -9 c 256
 1682 -9 1710 8 1710 42 c 258
 1710 1321 l 258
 1710 1374 1667 1422 1617 1422 c 256
 1582 1422 1543 1399 1512 1337 c 258
 948 157 l 257
 384 1337 l 258
 353 1399 314 1422 279 1422 c 256
 229 1422 186 1374 186 1321 c 258
 186 42 l 258
 186 8 214 -9 242 -9 c 256
 270 -9 299 8 299 42 c 258
 299 1273 l 257
 868 81 l 258
 888 42 920 24 948 24 c 256
EndSplineSet
EndChar

StartChar: N
Encoding: 46 78 69
Width: 1464
VWidth: 0
GlyphClass: 2
Flags: W
PickledData: "(dp1
S'b'
(dp2
sS'anchors'
p3
(tsS'lib'
p4
(dp5
sS'unicodes'
p6
(tsS'width'
p7
I1557
sS'contours'
p8
(tsS'components'
p9
(tsS'com.typemytype.robofont.layerData'
p10
(dp11
S'b'
(dp12
S'name'
p13
S'N'
sg4
(dp14
sg6
(tsg7
I1499
sg8
(tsg9
(tsg3
(tsssg13
S'N'
s."
AnchorPoint: "bot" 749 0 basechar 0
AnchorPoint: "top" 787 1438 basechar 0
LayerCount: 2
Fore
SplineSet
243 0 m 256
 274 0 300 20 300 59 c 258
 300 1242 l 257
 1109 40 l 258
 1131 7 1152 0 1185 0 c 256
 1240 0 1280 33 1280 93 c 258
 1280 1359 l 258
 1280 1398 1252 1419 1222 1419 c 256
 1189 1419 1164 1399 1164 1359 c 258
 1164 155 l 257
 370 1338 l 258
 332 1393 295 1419 263 1419 c 256
 214 1419 184 1385 184 1326 c 258
 184 59 l 258
 184 19 209 0 243 0 c 256
EndSplineSet
EndChar

StartChar: O
Encoding: 47 79 74
Width: 1593
VWidth: 0
GlyphClass: 2
Flags: W
PickledData: "(dp1
S'b'
(dp2
sS'anchors'
p3
(tsS'com.typemytype.robofont.layerData'
p4
(dp5
S'b'
(dp6
S'name'
p7
S'O'
sS'lib'
p8
(dp9
sS'unicodes'
p10
(tsS'width'
p11
I1597
sS'contours'
p12
(tsS'components'
p13
(tsg3
(tsssg10
(tsg7
S'O'
sg11
I1604
sg12
(tsg13
(tsg8
(dp14
sS'com.typemytype.robofont.guides'
p15
(ts."
AnchorPoint: "top" 795 1438 basechar 0
LayerCount: 2
Fore
SplineSet
797 78 m 256
 490 78 278 302 278 695 c 256
 278 1091 490 1312 797 1312 c 256
 1104 1312 1315 1091 1315 695 c 256
 1315 302 1105 78 797 78 c 256
797 -22 m 256
 1184 -22 1447 247 1447 695 c 256
 1447 1143 1184 1412 797 1412 c 256
 407 1412 146 1143 146 695 c 256
 146 247 407 -22 797 -22 c 256
EndSplineSet
EndChar

StartChar: OE
Encoding: 273 338 75
Width: 1999
VWidth: 0
GlyphClass: 2
Flags: W
LayerCount: 2
Fore
SplineSet
718 -32 m 256
 851 -32 1098 -1 1098 -1 c 257
 1802 -1 l 258
 1841 -1 1862 25 1862 54 c 256
 1862 84 1841 111 1802 111 c 258
 1222 111 l 257
 1222 676 l 257
 1745 676 l 258
 1789 676 1810 704 1810 732 c 256
 1810 762 1789 790 1745 790 c 258
 1222 790 l 257
 1222 1307 l 257
 1773 1307 l 258
 1813 1307 1835 1335 1835 1363 c 256
 1835 1394 1813 1419 1773 1419 c 258
 1097 1419 l 257
 1097 1419 853 1449 718 1449 c 256
 351 1449 127 1151 127 708 c 256
 127 267 351 -32 718 -32 c 256
719 82 m 256
 398 82 255 397 255 709 c 256
 255 1020 397 1335 718 1335 c 256
 962 1335 1095 1312 1097 1313 c 258
 1097 111 l 257
 1097 111 951 85 719 82 c 256
EndSplineSet
EndChar

StartChar: Omega
Encoding: 464 8486 83
Width: 1475
VWidth: 0
GlyphClass: 2
Flags: W
LayerCount: 2
Fore
SplineSet
347 0 m 258
 798 0 l 257
 522 386 306 713 306 951 c 256
 306 1195 469 1352 876 1352 c 256
 1284 1352 1446 1195 1446 951 c 256
 1446 712 1231 385 955 0 c 257
 1406 0 l 258
 1429 0 1439 28 1439 57 c 256
 1439 85 1429 113 1406 113 c 258
 1124 113 l 257
 1353 362 1541 654 1541 915 c 256
 1541 1250 1385 1460 876 1460 c 256
 436 1460 212 1245 212 915 c 256
 212 654 407 347 629 113 c 257
 347 113 l 258
 324 113 314 85 314 57 c 256
 314 28 324 0 347 0 c 258
EndSplineSet
EndChar

StartChar: Oslash
Encoding: 151 216 84
Width: 1593
VWidth: 0
GlyphClass: 2
Flags: W
PickledData: "(dp1
S'com.typemytype.robofont.layerData'
p2
(dp3
S'b'
(dp4
S'name'
p5
S'Oslash'
p6
sS'lib'
p7
(dp8
sS'unicodes'
p9
(tsS'width'
p10
I1597
sS'contours'
p11
(tsS'components'
p12
(tsS'anchors'
p13
(tsss."
LayerCount: 2
Fore
SplineSet
263 -91 m 256
 276 -91 294 -91 312 -70 c 258
 1381 1427 l 258
 1394 1446 1398 1462 1398 1474 c 256
 1398 1503 1377 1521 1353 1521 c 256
 1338 1521 1316 1516 1299 1491 c 258
 226 -23 l 258
 219 -32 218 -39 218 -47 c 256
 218 -69 238 -91 263 -91 c 256
EndSplineSet
Refer: 74 79 N 1 0 0 1 0 0 2
EndChar

StartChar: P
Encoding: 48 80 87
Width: 1150
VWidth: 0
GlyphClass: 2
Flags: W
PickledData: "(dp1
S'b'
(dp2
sS'anchors'
p3
(tsS'lib'
p4
(dp5
sS'unicodes'
p6
(tsS'width'
p7
I1319
sS'contours'
p8
(tsS'components'
p9
(tsS'com.typemytype.robofont.layerData'
p10
(dp11
S'b'
(dp12
S'name'
p13
S'P'
sg4
(dp14
sg6
(tsg7
I1201
sg8
((dp15
S'points'
p16
((dp17
S'segmentType'
p18
S'curve'
p19
sS'x'
I266
sS'smooth'
p20
I1
sS'y'
I0
s(dp21
g18
S'line'
p22
sS'x'
I1035
sg20
I1
sS'y'
I0
s(dp23
S'y'
I0
sS'x'
I1084
sg20
I0
s(dp24
S'y'
I34
sS'x'
I1108
sg20
I0
s(dp25
g18
S'curve'
p26
sS'x'
I1108
sg20
I1
sS'y'
I71
s(dp27
S'y'
I107
sS'x'
I1108
sg20
I0
s(dp28
S'y'
I141
sS'x'
I1084
sg20
I0
s(dp29
g18
S'curve'
p30
sS'x'
I1035
sg20
I1
sS'y'
I141
s(dp31
g18
S'line'
p32
sS'x'
I356
sg20
I0
sS'y'
I141
s(dp33
g18
S'line'
p34
sS'x'
I356
sg20
I0
sS'y'
I665
s(dp35
g18
S'line'
p36
sS'x'
I975
sg20
I1
sS'y'
I665
s(dp37
S'y'
I665
sS'x'
I1024
sg20
I0
s(dp38
S'y'
I698
sS'x'
I1049
sg20
I0
s(dp39
g18
S'curve'
p40
sS'x'
I1049
sg20
I1
sS'y'
I734
s(dp41
S'y'
I770
sS'x'
I1049
sg20
I0
s(dp42
S'y'
I803
sS'x'
I1026
sg20
I0
s(dp43
g18
S'curve'
p44
sS'x'
I975
sg20
I1
sS'y'
I803
s(dp45
g18
S'line'
p46
sS'x'
I356
sg20
I0
sS'y'
I803
s(dp47
g18
S'line'
p48
sS'x'
I356
sg20
I0
sS'y'
I1285
s(dp49
g18
S'line'
p50
sS'x'
I1007
sg20
I1
sS'y'
I1285
s(dp51
S'y'
I1285
sS'x'
I1056
sg20
I0
s(dp52
S'y'
I1319
sS'x'
I1080
sg20
I0
s(dp53
g18
S'curve'
p54
sS'x'
I1080
sg20
I1
sS'y'
I1356
s(dp55
S'y'
I1392
sS'x'
I1080
sg20
I0
s(dp56
S'y'
I1426
sS'x'
I1056
sg20
I0
s(dp57
g18
S'curve'
p58
sS'x'
I1007
sg20
I1
sS'y'
I1426
s(dp59
g18
S'line'
p60
sS'x'
I261
sg20
I1
sS'y'
I1426
s(dp61
S'y'
I1426
sS'x'
I213
sg20
I0
s(dp62
S'y'
I1383
sS'x'
I178
sg20
I0
s(dp63
g18
S'curve'
p64
sS'x'
I178
sg20
I1
sS'y'
I1340
s(dp65
g18
S'line'
p66
sS'x'
I178
sg20
I1
sS'y'
I86
s(dp67
S'y'
I41
sS'x'
I178
sg20
I0
s(dp68
S'y'
I0
sS'x'
I222
sg20
I0
stp69
stp70
sg9
(tsg3
(tsssg13
S'P'
s."
AnchorPoint: "top" 626 1438 basechar 0
LayerCount: 2
Fore
SplineSet
244 1 m 256
 273 1 306 18 306 58 c 258
 306 656 l 257
 636 656 l 258
 904 656 1131 739 1131 1035 c 256
 1131 1325 948 1419 646 1419 c 258
 244 1419 l 258
 207 1419 181 1392 181 1359 c 258
 181 58 l 258
 181 20 212 1 244 1 c 256
306 753 m 257
 306 1320 l 257
 662 1320 l 258
 925 1320 1010 1218 1010 1035 c 256
 1010 847 902 753 643 753 c 258
 306 753 l 257
EndSplineSet
EndChar

StartChar: Q
Encoding: 49 81 88
Width: 1593
VWidth: 0
GlyphClass: 2
Flags: W
PickledData: "(dp1
S'b'
(dp2
sS'anchors'
p3
(tsS'lib'
p4
(dp5
sS'unicodes'
p6
(tsS'width'
p7
I1604
sS'contours'
p8
(tsS'components'
p9
(tsS'com.typemytype.robofont.layerData'
p10
(dp11
S'b'
(dp12
S'name'
p13
S'Q'
sg4
(dp14
sg6
(tsg7
I1597
sg8
(tsg9
(tsg3
(tsssg13
S'Q'
s."
LayerCount: 2
Fore
SplineSet
1384 -246 m 256
 1412 -246 1437 -225 1437 -192 c 256
 1437 -170 1425 -147 1403 -139 c 258
 975 36 l 257
 735 23 l 257
 1357 -241 l 258
 1366 -245 1376 -246 1384 -246 c 256
EndSplineSet
Refer: 74 79 N 1 0 0 1 0 0 2
EndChar

StartChar: R
Encoding: 50 82 89
Width: 1312
VWidth: 0
GlyphClass: 2
Flags: W
PickledData: "(dp1
S'b'
(dp2
sS'anchors'
p3
(tsS'com.typemytype.robofont.layerData'
p4
(dp5
S'b'
(dp6
S'name'
p7
S'R'
sS'lib'
p8
(dp9
sS'unicodes'
p10
(tsS'width'
p11
I1363
sS'contours'
p12
((dp13
S'points'
p14
((dp15
S'segmentType'
p16
S'curve'
p17
sS'x'
I267
sS'smooth'
p18
I1
sS'y'
I0
s(dp19
S'y'
I0
sS'x'
I311
sg18
I0
s(dp20
S'y'
I27
sS'x'
I356
sg18
I0
s(dp21
g16
S'curve'
p22
sS'x'
I356
sg18
I1
sS'y'
I84
s(dp23
g16
S'line'
p24
sS'x'
I356
sg18
I0
sS'y'
I628
s(dp25
g16
S'line'
p26
sS'x'
I669
sg18
I1
sS'y'
I628
s(dp27
S'y'
I628
sS'x'
I962
sg18
I0
s(dp28
S'y'
I722
sS'x'
I1182
sg18
I0
s(dp29
g16
S'curve'
p30
sS'x'
I1182
sg18
I1
sS'y'
I1026
s(dp31
S'y'
I1324
sS'x'
I1182
sg18
I0
s(dp32
S'y'
I1426
sS'x'
I993
sg18
I0
s(dp33
g16
S'curve'
p34
sS'x'
I684
sg18
I1
sS'y'
I1426
s(dp35
g16
S'line'
p36
sS'x'
I268
sg18
I1
sS'y'
I1426
s(dp37
S'y'
I1426
sS'x'
I217
sg18
I0
s(dp38
S'y'
I1387
sS'x'
I178
sg18
I0
s(dp39
g16
S'curve'
p40
sS'x'
I178
sg18
I1
sS'y'
I1339
s(dp41
g16
S'line'
p42
sS'x'
I178
sg18
I1
sS'y'
I84
s(dp43
S'y'
I28
sS'x'
I178
sg18
I0
s(dp44
S'y'
I0
sS'x'
I222
sg18
I0
stp45
s(dp46
g14
((dp47
g16
S'line'
p48
sS'x'
I356
sg18
I0
sS'y'
I764
s(dp49
g16
S'line'
p50
sS'x'
I356
sg18
I0
sS'y'
I1285
s(dp51
g16
S'line'
p52
sS'x'
I684
sg18
I1
sS'y'
I1285
s(dp53
S'y'
I1285
sS'x'
I914
sg18
I0
s(dp54
S'y'
I1210
sS'x'
I1008
sg18
I0
s(dp55
g16
S'curve'
p56
sS'x'
I1008
sg18
I1
sS'y'
I1026
s(dp57
S'y'
I838
sS'x'
I1008
sg18
I0
s(dp58
S'y'
I764
sS'x'
I901
sg18
I0
s(dp59
g16
S'curve'
p60
sS'x'
I670
sg18
I1
sS'y'
I764
stp61
stp62
sS'components'
p63
(tsg3
(tsssg10
(tsg7
S'R'
sg11
I1408
sg12
(tsg63
(tsg8
(dp64
sS'com.typemytype.robofont.guides'
p65
(ts."
AnchorPoint: "bot" 666 0 basechar 0
AnchorPoint: "top" 689 1438 basechar 0
LayerCount: 2
Fore
SplineSet
243 -1 m 256
 273 -1 306 17 306 57 c 258
 306 686 l 257
 710 686 l 258
 930 686 970 647 1004 357 c 258
 1038 59 l 258
 1043 18 1077 -1 1108 -1 c 256
 1141 -1 1163 25 1163 61 c 256
 1163 65 1163 69 1162 74 c 258
 1120 441 l 258
 1099 616 1029 712 885 741 c 257
 885 745 l 257
 1073 789 1157 913 1157 1068 c 256
 1157 1374 890 1419 658 1419 c 258
 244 1419 l 258
 209 1419 181 1392 181 1360 c 258
 181 57 l 258
 181 18 212 -1 243 -1 c 256
306 783 m 257
 306 1320 l 257
 687 1320 l 258
 833 1320 1036 1286 1036 1067 c 256
 1036 848 878 783 689 783 c 258
 306 783 l 257
EndSplineSet
EndChar

StartChar: S
Encoding: 51 83 93
Width: 1248
VWidth: 0
GlyphClass: 2
Flags: W
PickledData: "(dp1
S'b'
(dp2
sS'anchors'
p3
(tsS'lib'
p4
(dp5
sS'unicodes'
p6
(tsS'width'
p7
I1317
sS'contours'
p8
(tsS'components'
p9
(tsS'com.typemytype.robofont.layerData'
p10
(dp11
S'b'
(dp12
S'name'
p13
S'S'
sg4
(dp14
sg6
(tsg7
I1274
sg8
(tsg9
(tsg3
(tsssg13
S'S'
s."
AnchorPoint: "bot" 626 14 basechar 0
AnchorPoint: "top" 634 1438 basechar 0
LayerCount: 2
Fore
SplineSet
614 -22 m 256
 916 -22 1115 109 1115 369 c 256
 1115 583 972 664 787 726 c 258
 548 805 l 258
 371 862 276 922 276 1059 c 256
 276 1197 403 1312 634 1312 c 256
 813 1312 953 1220 989 1188 c 256
 1000 1177 1013 1173 1026 1173 c 256
 1053 1173 1077 1192 1077 1217 c 256
 1077 1228 1072 1240 1061 1252 c 256
 994 1320 819 1412 623 1412 c 256
 364 1412 156 1274 156 1056 c 256
 156 857 294 774 469 715 c 258
 704 635 l 258
 903 569 995 521 995 343 c 256
 995 168 832 78 632 78 c 256
 462 78 329 149 254 219 c 256
 248 226 238 229 228 229 c 256
 198 229 160 204 160 179 c 256
 160 172 163 166 169 160 c 256
 275 51 425 -22 614 -22 c 256
EndSplineSet
EndChar

StartChar: Sigma
Encoding: 414 931 99
Width: 1355
VWidth: 0
GlyphClass: 2
Flags: W
LayerCount: 2
Fore
SplineSet
195 -63 m 258
 1160 -63 l 258
 1188 -63 1201 -34 1201 -5 c 256
 1201 25 1187 55 1160 55 c 258
 274 55 l 257
 792 594 l 258
 825 630 840 655 840 679 c 256
 840 705 823 729 792 764 c 258
 275 1306 l 257
 1160 1306 l 258
 1187 1306 1201 1336 1201 1366 c 256
 1201 1395 1188 1424 1160 1424 c 258
 218 1424 l 258
 179 1424 137 1387 137 1335 c 256
 137 1308 149 1277 177 1245 c 258
 710 686 l 257
 177 106 l 258
 145 70 133 37 133 10 c 256
 133 -35 166 -63 195 -63 c 258
EndSplineSet
EndChar

StartChar: T
Encoding: 52 84 100
Width: 1133
VWidth: 0
GlyphClass: 2
Flags: W
PickledData: "(dp1
S'b'
(dp2
sS'anchors'
p3
(tsS'lib'
p4
(dp5
sS'unicodes'
p6
(tsS'width'
p7
I1199
sS'contours'
p8
(tsS'components'
p9
(tsS'com.typemytype.robofont.layerData'
p10
(dp11
S'b'
(dp12
S'name'
p13
S'T'
sg4
(dp14
sg6
(tsg7
I1158
sg8
((dp15
S'points'
p16
((dp17
S'segmentType'
p18
S'curve'
p19
sS'x'
I581
sS'smooth'
p20
I1
sS'y'
I0
s(dp21
g18
S'line'
p22
sS'x'
I1350
sg20
I1
sS'y'
I0
s(dp23
S'y'
I0
sS'x'
I1399
sg20
I0
s(dp24
S'y'
I34
sS'x'
I1423
sg20
I0
s(dp25
g18
S'curve'
p26
sS'x'
I1423
sg20
I1
sS'y'
I71
s(dp27
S'y'
I107
sS'x'
I1423
sg20
I0
s(dp28
S'y'
I141
sS'x'
I1399
sg20
I0
s(dp29
g18
S'curve'
p30
sS'x'
I1350
sg20
I1
sS'y'
I141
s(dp31
g18
S'line'
p32
sS'x'
I671
sg20
I0
sS'y'
I141
s(dp33
g18
S'line'
p34
sS'x'
I671
sg20
I0
sS'y'
I665
s(dp35
g18
S'line'
p36
sS'x'
I1290
sg20
I1
sS'y'
I665
s(dp37
S'y'
I665
sS'x'
I1339
sg20
I0
s(dp38
S'y'
I698
sS'x'
I1364
sg20
I0
s(dp39
g18
S'curve'
p40
sS'x'
I1364
sg20
I1
sS'y'
I734
s(dp41
S'y'
I770
sS'x'
I1364
sg20
I0
s(dp42
S'y'
I803
sS'x'
I1341
sg20
I0
s(dp43
g18
S'curve'
p44
sS'x'
I1290
sg20
I1
sS'y'
I803
s(dp45
g18
S'line'
p46
sS'x'
I671
sg20
I0
sS'y'
I803
s(dp47
g18
S'line'
p48
sS'x'
I671
sg20
I0
sS'y'
I1285
s(dp49
g18
S'line'
p50
sS'x'
I1322
sg20
I1
sS'y'
I1285
s(dp51
S'y'
I1285
sS'x'
I1371
sg20
I0
s(dp52
S'y'
I1319
sS'x'
I1395
sg20
I0
s(dp53
g18
S'curve'
p54
sS'x'
I1395
sg20
I1
sS'y'
I1356
s(dp55
S'y'
I1392
sS'x'
I1395
sg20
I0
s(dp56
S'y'
I1426
sS'x'
I1371
sg20
I0
s(dp57
g18
S'curve'
p58
sS'x'
I1322
sg20
I1
sS'y'
I1426
s(dp59
g18
S'line'
p60
sS'x'
I576
sg20
I1
sS'y'
I1426
s(dp61
S'y'
I1426
sS'x'
I528
sg20
I0
s(dp62
S'y'
I1383
sS'x'
I493
sg20
I0
s(dp63
g18
S'curve'
p64
sS'x'
I493
sg20
I1
sS'y'
I1340
s(dp65
g18
S'line'
p66
sS'x'
I493
sg20
I1
sS'y'
I86
s(dp67
S'y'
I41
sS'x'
I493
sg20
I0
s(dp68
S'y'
I0
sS'x'
I537
sg20
I0
stp69
stp70
sg9
(tsg3
(tsssg13
S'T'
s."
AnchorPoint: "mid" 578 763 basechar 0
AnchorPoint: "bot" 572 14 basechar 0
AnchorPoint: "top" 586 1438 basechar 0
LayerCount: 2
Fore
SplineSet
571 1 m 256
 601 1 634 21 634 59 c 258
 634 1320 l 257
 1046 1320 l 258
 1084 1320 1105 1341 1105 1368 c 256
 1105 1397 1088 1419 1046 1419 c 258
 85 1419 l 258
 47 1419 28 1397 28 1369 c 256
 28 1342 48 1320 85 1320 c 258
 509 1320 l 257
 509 59 l 258
 509 21 539 1 571 1 c 256
EndSplineSet
EndChar

StartChar: Thorn
Encoding: 157 222 105
Width: 1246
VWidth: 0
GlyphClass: 2
Flags: W
LayerCount: 2
Fore
SplineSet
269 -1 m 256
 299 -1 330 16 330 56 c 258
 330 439 l 257
 603 439 l 258
 874 439 1174 511 1174 839 c 256
 1174 1166 874 1239 601 1239 c 258
 330 1239 l 257
 330 1367 l 258
 330 1404 299 1424 267 1424 c 256
 237 1424 207 1405 207 1367 c 258
 207 56 l 258
 207 18 237 -1 269 -1 c 256
330 554 m 257
 330 1125 l 257
 660 1125 l 258
 860 1125 1038 1065 1038 839 c 256
 1038 613 860 554 661 554 c 258
 330 554 l 257
EndSplineSet
EndChar

StartChar: U
Encoding: 53 85 106
Width: 1476
VWidth: 0
GlyphClass: 2
Flags: W
PickledData: "(dp1
S'b'
(dp2
sS'anchors'
p3
(tsS'lib'
p4
(dp5
sS'unicodes'
p6
(tsS'width'
p7
I1513
sS'contours'
p8
(tsS'components'
p9
(tsS'com.typemytype.robofont.layerData'
p10
(dp11
S'b'
(dp12
S'name'
p13
S'U'
sg4
(dp14
sg6
(tsg7
I1490
sg8
(tsg9
(tsg3
(tsssg13
S'U'
s."
AnchorPoint: "ogonek" 833 9 basechar 0
AnchorPoint: "top" 743 1438 basechar 0
LayerCount: 2
Fore
SplineSet
738 -22 m 256
 1005 -22 1276 143 1276 494 c 258
 1276 1355 l 258
 1276 1395 1244 1414 1214 1414 c 256
 1181 1414 1150 1393 1150 1355 c 258
 1150 495 l 258
 1150 218 944 78 738 78 c 256
 532 78 327 218 327 495 c 258
 327 1355 l 258
 327 1395 296 1414 266 1414 c 256
 233 1414 202 1393 202 1355 c 258
 202 494 l 258
 202 143 471 -22 738 -22 c 256
EndSplineSet
EndChar

StartChar: V
Encoding: 54 86 117
Width: 1243
VWidth: 0
GlyphClass: 2
Flags: W
PickledData: "(dp1
S'b'
(dp2
sS'anchors'
p3
(tsS'com.typemytype.robofont.layerData'
p4
(dp5
S'b'
(dp6
S'name'
p7
S'V'
sS'lib'
p8
(dp9
sS'unicodes'
p10
(tsS'width'
p11
I1289
sS'contours'
p12
((dp13
S'points'
p14
((dp15
S'segmentType'
p16
S'curve'
p17
sS'x'
I644
sS'smooth'
p18
I1
sS'y'
S'-5'
p19
s(dp20
S'y'
S'-5'
p21
sS'x'
I712
sg18
I0
s(dp22
S'y'
I38
sS'x'
I764
sg18
I0
s(dp23
g16
S'curve'
p24
sS'x'
I793
sg18
I1
sS'y'
I117
s(dp25
g16
S'line'
p26
sS'x'
I1243
sg18
I1
sS'y'
I1324
s(dp27
S'y'
I1335
sS'x'
I1247
sg18
I0
s(dp28
S'y'
I1342
sS'x'
I1248
sg18
I0
s(dp29
g16
S'curve'
p30
sS'x'
I1248
sg18
I1
sS'y'
I1351
s(dp31
S'y'
I1395
sS'x'
I1248
sg18
I0
s(dp32
S'y'
I1427
sS'x'
I1203
sg18
I0
s(dp33
g16
S'curve'
p34
sS'x'
I1160
sg18
I1
sS'y'
I1427
s(dp35
S'y'
I1427
sS'x'
I1125
sg18
I0
s(dp36
S'y'
I1408
sS'x'
I1090
sg18
I0
s(dp37
g16
S'curve'
p38
sS'x'
I1076
sg18
I1
sS'y'
I1369
s(dp39
g16
S'line'
p40
sS'x'
I651
sg18
I0
sS'y'
I192
s(dp41
g16
S'line'
p42
sS'x'
I650
sg18
I0
sS'y'
I190
s(dp43
g16
S'line'
p44
sS'x'
I214
sg18
I1
sS'y'
I1370
s(dp45
S'y'
I1407
sS'x'
I200
sg18
I0
s(dp46
S'y'
I1427
sS'x'
I170
sg18
I0
s(dp47
g16
S'curve'
p48
sS'x'
I135
sg18
I1
sS'y'
I1427
s(dp49
S'y'
I1427
sS'x'
I90
sg18
I0
s(dp50
S'y'
I1392
sS'x'
I43
sg18
I0
s(dp51
g16
S'curve'
p52
sS'x'
I43
sg18
I1
sS'y'
I1344
s(dp53
S'y'
I1336
sS'x'
I43
sg18
I0
s(dp54
S'y'
I1326
sS'x'
I44
sg18
I0
s(dp55
g16
S'curve'
p56
sS'x'
I48
sg18
I0
sS'y'
I1318
s(dp57
g16
S'line'
p58
sS'x'
I501
sg18
I1
sS'y'
I117
s(dp59
S'y'
I35
sS'x'
I532
sg18
I0
s(dp60
S'y'
S'-5'
p61
sS'x'
I581
sg18
I0
stp62
stp63
sS'components'
p64
(tsg3
(tsssg10
(tsg7
S'V'
sg11
I1365
sg12
(tsg64
(tsg8
(dp65
sS'com.typemytype.robofont.guides'
p66
(ts."
LayerCount: 2
Fore
SplineSet
629 2 m 256
 665 2 709 42 728 83 c 258
 1223 1332 l 258
 1226 1339 1228 1347 1228 1354 c 256
 1228 1387 1196 1412 1165 1412 c 256
 1145 1412 1124 1401 1113 1374 c 258
 629 149 l 257
 146 1374 l 258
 135 1401 114 1412 94 1412 c 256
 62 1412 30 1386 30 1353 c 256
 30 1346 32 1339 35 1332 c 258
 531 83 l 258
 550 42 594 2 629 2 c 256
EndSplineSet
EndChar

StartChar: W
Encoding: 55 87 118
Width: 2160
VWidth: 0
GlyphClass: 2
Flags: W
PickledData: "(dp1
S'b'
(dp2
sS'anchors'
p3
(tsS'lib'
p4
(dp5
sS'unicodes'
p6
(tsS'width'
p7
I2070
sS'contours'
p8
(tsS'components'
p9
(tsS'com.typemytype.robofont.layerData'
p10
(dp11
S'b'
(dp12
S'name'
p13
S'W'
sg4
(dp14
sg6
(tsg7
I2126
sg8
(tsg9
(tsg3
(tsssg13
S'W'
s."
AnchorPoint: "top" 1071 1438 basechar 0
LayerCount: 2
Fore
SplineSet
1701 67 m 258
 2052 1340 l 258
 2055 1350 2056 1359 2056 1367 c 256
 2056 1407 2027 1428 1998 1428 c 256
 1972 1428 1946 1412 1937 1379 c 258
 1601 115 l 257
 1184 1285 l 258
 1140 1407 1117 1418 1075 1418 c 256
 1033 1418 1006 1395 967 1285 c 258
 549 115 l 257
 213 1379 l 258
 204 1412 178 1428 152 1428 c 256
 123 1428 95 1407 95 1368 c 256
 95 1360 96 1350 99 1340 c 258
 449 67 l 258
 464 14 500 -12 538 -12 c 256
 578 -12 620 16 641 70 c 258
 1075 1276 l 257
 1510 70 l 258
 1531 13 1569 -11 1607 -11 c 256
 1648 -11 1687 18 1701 67 c 258
EndSplineSet
EndChar

StartChar: X
Encoding: 56 88 123
Width: 1245
VWidth: 0
GlyphClass: 2
Flags: W
PickledData: "(dp1
S'b'
(dp2
sS'anchors'
p3
(tsS'lib'
p4
(dp5
sS'unicodes'
p6
(tsS'width'
p7
I1322
sS'contours'
p8
(tsS'components'
p9
(tsS'com.typemytype.robofont.layerData'
p10
(dp11
S'b'
(dp12
S'name'
p13
S'X'
sg4
(dp14
sg6
(tsg7
I1274
sg8
((dp15
S'points'
p16
((dp17
S'segmentType'
p18
S'curve'
p19
sS'x'
I151
sS'smooth'
p20
I1
sS'y'
I0
s(dp21
S'y'
I0
sS'x'
I176
sg20
I0
s(dp22
S'y'
I12
sS'x'
I201
sg20
I0
s(dp23
g18
S'curve'
p24
sS'x'
I222
sg20
I1
sS'y'
I41
s(dp25
g18
S'line'
p26
sS'x'
I641
sg20
I0
sS'y'
I616
s(dp27
g18
S'line'
p28
sS'x'
I746
sg20
I0
sS'y'
I734
s(dp29
g18
S'line'
p30
sS'x'
I1175
sg20
I1
sS'y'
I1310
s(dp31
S'y'
I1325
sS'x'
I1186
sg20
I0
s(dp32
S'y'
I1338
sS'x'
I1190
sg20
I0
s(dp33
g18
S'curve'
p34
sS'x'
I1190
sg20
I1
sS'y'
I1353
s(dp35
S'y'
I1393
sS'x'
I1190
sg20
I0
s(dp36
S'y'
I1426
sS'x'
I1153
sg20
I0
s(dp37
g18
S'curve'
p38
sS'x'
I1110
sg20
I1
sS'y'
I1426
s(dp39
S'y'
I1426
sS'x'
I1083
sg20
I0
s(dp40
S'y'
I1414
sS'x'
I1058
sg20
I0
s(dp41
g18
S'curve'
p42
sS'x'
I1037
sg20
I1
sS'y'
I1385
s(dp43
g18
S'line'
p44
sS'x'
I648
sg20
I0
sS'y'
I844
s(dp45
g18
S'line'
p46
sS'x'
I542
sg20
I0
sS'y'
I732
s(dp47
g18
S'line'
p48
sS'x'
I84
sg20
I1
sS'y'
I121
s(dp49
S'y'
I106
sS'x'
I73
sg20
I0
s(dp50
S'y'
I91
sS'x'
I68
sg20
I0
s(dp51
g18
S'curve'
p52
sS'x'
I68
sg20
I1
sS'y'
I76
s(dp53
S'y'
I35
sS'x'
I68
sg20
I0
s(dp54
S'y'
I0
sS'x'
I108
sg20
I0
stp55
s(dp56
g16
((dp57
g18
S'curve'
p58
sS'x'
I1104
sg20
I1
sS'y'
I0
s(dp59
S'y'
I0
sS'x'
I1151
sg20
I0
s(dp60
S'y'
I40
sS'x'
I1200
sg20
I0
s(dp61
g18
S'curve'
p62
sS'x'
I1200
sg20
I1
sS'y'
I85
s(dp63
S'y'
I98
sS'x'
I1200
sg20
I0
s(dp64
S'y'
I113
sS'x'
I1195
sg20
I0
s(dp65
g18
S'curve'
p66
sS'x'
I1186
sg20
I0
sS'y'
I126
s(dp67
g18
S'line'
p68
sS'x'
I272
sg20
I0
sS'y'
I1385
s(dp69
S'y'
I1414
sS'x'
I252
sg20
I0
s(dp70
S'y'
I1426
sS'x'
I225
sg20
I0
s(dp71
g18
S'curve'
p72
sS'x'
I197
sg20
I1
sS'y'
I1426
s(dp73
S'y'
I1426
sS'x'
I149
sg20
I0
s(dp74
S'y'
I1388
sS'x'
I100
sg20
I0
s(dp75
g18
S'curve'
p76
sS'x'
I100
sg20
I1
sS'y'
I1343
s(dp77
S'y'
I1328
sS'x'
I100
sg20
I0
s(dp78
S'y'
I1315
sS'x'
I105
sg20
I0
s(dp79
g18
S'curve'
p80
sS'x'
I114
sg20
I0
sS'y'
I1303
s(dp81
g18
S'line'
p82
sS'x'
I1033
sg20
I0
sS'y'
I40
s(dp83
S'y'
I13
sS'x'
I1052
sg20
I0
s(dp84
S'y'
I0
sS'x'
I1076
sg20
I0
stp85
stp86
sg9
(tsg3
(tsssg13
S'X'
s."
LayerCount: 2
Fore
SplineSet
1041 41 m 258
 1053 22 1070 15 1087 15 c 256
 1119 15 1150 40 1150 69 c 256
 1150 76 1148 84 1144 91 c 258
 693 725 l 257
 1128 1329 l 258
 1135 1339 1138 1348 1138 1357 c 256
 1138 1384 1111 1405 1082 1405 c 256
 1065 1405 1047 1397 1034 1378 c 258
 629 816 l 257
 228 1380 l 258
 215 1399 198 1407 181 1407 c 256
 147 1407 113 1375 113 1350 c 256
 113 1344 114 1340 118 1335 c 258
 554 724 l 257
 93 92 l 258
 88 84 86 76 86 67 c 256
 86 38 111 7 141 7 c 256
 157 7 173 15 188 37 c 258
 618 635 l 257
 1041 41 l 258
EndSplineSet
EndChar

StartChar: Y
Encoding: 57 89 124
Width: 1264
VWidth: 0
GlyphClass: 2
Flags: W
PickledData: "(dp1
S'b'
(dp2
sS'anchors'
p3
(tsS'com.typemytype.robofont.layerData'
p4
(dp5
S'b'
(dp6
S'name'
p7
S'Y'
sS'lib'
p8
(dp9
sS'unicodes'
p10
(tsS'width'
p11
I1278
sS'contours'
p12
((dp13
S'points'
p14
((dp15
S'segmentType'
p16
S'curve'
p17
sS'x'
I641
sS'smooth'
p18
I1
sS'y'
I0
s(dp19
S'y'
I0
sS'x'
I685
sg18
I0
s(dp20
S'y'
I29
sS'x'
I730
sg18
I0
s(dp21
g16
S'curve'
p22
sS'x'
I730
sg18
I1
sS'y'
I85
s(dp23
g16
S'line'
p24
sS'x'
I730
sg18
I0
sS'y'
I1285
s(dp25
g16
S'line'
p26
sS'x'
I1115
sg18
I1
sS'y'
I1285
s(dp27
S'y'
I1285
sS'x'
I1164
sg18
I0
s(dp28
S'y'
I1319
sS'x'
I1190
sg18
I0
s(dp29
g16
S'curve'
p30
sS'x'
I1190
sg18
I1
sS'y'
I1355
s(dp31
S'y'
I1392
sS'x'
I1190
sg18
I0
s(dp32
S'y'
I1426
sS'x'
I1166
sg18
I0
s(dp33
g16
S'curve'
p34
sS'x'
I1115
sg18
I1
sS'y'
I1426
s(dp35
g16
S'line'
p36
sS'x'
I160
sg18
I1
sS'y'
I1426
s(dp37
S'y'
I1426
sS'x'
I111
sg18
I0
s(dp38
S'y'
I1392
sS'x'
I86
sg18
I0
s(dp39
g16
S'curve'
p40
sS'x'
I86
sg18
I1
sS'y'
I1355
s(dp41
S'y'
I1319
sS'x'
I86
sg18
I0
s(dp42
S'y'
I1285
sS'x'
I111
sg18
I0
s(dp43
g16
S'curve'
p44
sS'x'
I160
sg18
I1
sS'y'
I1285
s(dp45
g16
S'line'
p46
sS'x'
I552
sg18
I0
sS'y'
I1285
s(dp47
g16
S'line'
p48
sS'x'
I552
sg18
I1
sS'y'
I85
s(dp49
S'y'
I29
sS'x'
I552
sg18
I0
s(dp50
S'y'
I0
sS'x'
I596
sg18
I0
stp51
stp52
sS'components'
p53
(tsg3
(tsssg10
(tsg7
S'Y'
sg11
I1321
sg12
(tsg53
(tsg8
(dp54
sS'com.typemytype.robofont.guides'
p55
(ts."
AnchorPoint: "top" 670 1438 basechar 0
LayerCount: 2
Fore
SplineSet
575 58 m 258
 575 20 607 2 638 2 c 256
 669 2 700 21 700 59 c 258
 700 616 l 257
 1179 1328 l 258
 1186 1339 1190 1350 1190 1361 c 256
 1190 1390 1167 1415 1140 1415 c 256
 1123 1415 1104 1405 1088 1381 c 258
 645 714 l 257
 193 1393 l 258
 181 1409 164 1416 146 1416 c 256
 114 1416 82 1394 82 1362 c 256
 82 1351 86 1338 95 1325 c 258
 575 614 l 257
 575 58 l 258
EndSplineSet
EndChar

StartChar: Z
Encoding: 58 90 129
Width: 1146
VWidth: 0
GlyphClass: 2
Flags: W
PickledData: "(dp1
S'b'
(dp2
sS'anchors'
p3
(tsS'lib'
p4
(dp5
sS'unicodes'
p6
(tsS'width'
p7
I1222
sS'contours'
p8
(tsS'components'
p9
(tsS'com.typemytype.robofont.layerData'
p10
(dp11
S'b'
(dp12
S'name'
p13
S'Z'
sg4
(dp14
sg6
(tsg7
I1165
sg8
((dp15
S'points'
p16
((dp17
S'segmentType'
p18
S'curve'
p19
sS'x'
I266
sS'smooth'
p20
I1
sS'y'
I0
s(dp21
g18
S'line'
p22
sS'x'
I1035
sg20
I1
sS'y'
I0
s(dp23
S'y'
I0
sS'x'
I1084
sg20
I0
s(dp24
S'y'
I34
sS'x'
I1108
sg20
I0
s(dp25
g18
S'curve'
p26
sS'x'
I1108
sg20
I1
sS'y'
I71
s(dp27
S'y'
I107
sS'x'
I1108
sg20
I0
s(dp28
S'y'
I141
sS'x'
I1084
sg20
I0
s(dp29
g18
S'curve'
p30
sS'x'
I1035
sg20
I1
sS'y'
I141
s(dp31
g18
S'line'
p32
sS'x'
I356
sg20
I0
sS'y'
I141
s(dp33
g18
S'line'
p34
sS'x'
I356
sg20
I0
sS'y'
I665
s(dp35
g18
S'line'
p36
sS'x'
I975
sg20
I1
sS'y'
I665
s(dp37
S'y'
I665
sS'x'
I1024
sg20
I0
s(dp38
S'y'
I698
sS'x'
I1049
sg20
I0
s(dp39
g18
S'curve'
p40
sS'x'
I1049
sg20
I1
sS'y'
I734
s(dp41
S'y'
I770
sS'x'
I1049
sg20
I0
s(dp42
S'y'
I803
sS'x'
I1026
sg20
I0
s(dp43
g18
S'curve'
p44
sS'x'
I975
sg20
I1
sS'y'
I803
s(dp45
g18
S'line'
p46
sS'x'
I356
sg20
I0
sS'y'
I803
s(dp47
g18
S'line'
p48
sS'x'
I356
sg20
I0
sS'y'
I1285
s(dp49
g18
S'line'
p50
sS'x'
I1007
sg20
I1
sS'y'
I1285
s(dp51
S'y'
I1285
sS'x'
I1056
sg20
I0
s(dp52
S'y'
I1319
sS'x'
I1080
sg20
I0
s(dp53
g18
S'curve'
p54
sS'x'
I1080
sg20
I1
sS'y'
I1356
s(dp55
S'y'
I1392
sS'x'
I1080
sg20
I0
s(dp56
S'y'
I1426
sS'x'
I1056
sg20
I0
s(dp57
g18
S'curve'
p58
sS'x'
I1007
sg20
I1
sS'y'
I1426
s(dp59
g18
S'line'
p60
sS'x'
I261
sg20
I1
sS'y'
I1426
s(dp61
S'y'
I1426
sS'x'
I213
sg20
I0
s(dp62
S'y'
I1383
sS'x'
I178
sg20
I0
s(dp63
g18
S'curve'
p64
sS'x'
I178
sg20
I1
sS'y'
I1340
s(dp65
g18
S'line'
p66
sS'x'
I178
sg20
I1
sS'y'
I86
s(dp67
S'y'
I41
sS'x'
I178
sg20
I0
s(dp68
S'y'
I0
sS'x'
I222
sg20
I0
stp69
stp70
sg9
(tsg3
(tsssg13
S'Z'
s."
AnchorPoint: "top" 630 1438 basechar 0
LayerCount: 2
Fore
SplineSet
208 0 m 258
 1019 0 l 258
 1058 0 1078 20 1078 50 c 256
 1078 78 1058 99 1019 99 c 258
 238 99 l 257
 1067 1286 l 258
 1083 1308 1089 1332 1089 1350 c 256
 1089 1391 1060 1419 1013 1419 c 258
 174 1419 l 258
 136 1419 117 1397 117 1370 c 256
 117 1340 138 1320 174 1320 c 258
 962 1320 l 257
 128 133 l 258
 118 117 112 99 112 79 c 256
 112 39 139 0 208 0 c 258
EndSplineSet
EndChar

StartChar: a
Encoding: 65 97 133
Width: 1023
VWidth: 0
GlyphClass: 2
Flags: W
PickledData: "(dp1
S'b'
(dp2
sS'anchors'
p3
(tsS'lib'
p4
(dp5
sS'unicodes'
p6
(tsS'width'
p7
I1101
sS'contours'
p8
(tsS'components'
p9
(tsS'com.typemytype.robofont.layerData'
p10
(dp11
S'b'
(dp12
S'name'
p13
S'a'
sg4
(dp14
sg6
(tsg7
I1040
sg8
(tsg9
(tsg3
(tsssg13
S'a'
s."
AnchorPoint: "ogonek" 826 -2 basechar 0
AnchorPoint: "top" 474 985 basechar 0
LayerCount: 2
Fore
SplineSet
419 -25 m 256
 586 -25 691 61 759 209 c 257
 759 41 l 258
 759 11 783 -3 810 -3 c 256
 841 -3 875 15 875 46 c 258
 875 688 l 258
 875 912 733 1013 503 1013 c 256
 354 1013 231 983 129 914 c 256
 120 907 117 897 117 888 c 256
 117 866 138 843 161 843 c 256
 168 843 175 845 182 850 c 256
 279 899 357 932 503 932 c 256
 650 932 763 865 763 701 c 258
 763 559 l 257
 216 559 65 500 65 264 c 256
 65 74 210 -25 419 -25 c 256
437 56 m 256
 279 56 175 116 175 270 c 256
 175 443 284 488 764 488 c 257
 764 451 l 258
 764 214 607 56 437 56 c 256
EndSplineSet
EndChar

StartChar: acute
Encoding: 115 180 137
Width: 569
VWidth: 0
GlyphClass: 4
Flags: W
AnchorPoint: "top" 116 1040 mark 0
LayerCount: 2
Fore
SplineSet
79 1204 m 256
 89 1204 101 1210 116 1220 c 258
 446 1466 l 258
 458 1474 461 1488 461 1499 c 256
 461 1533 425 1574 385 1574 c 256
 374 1574 361 1573 350 1564 c 258
 60 1259 l 258
 51 1250 52 1240 52 1234 c 256
 52 1219 59 1204 79 1204 c 256
EndSplineSet
EndChar

StartChar: ae
Encoding: 165 230 139
Width: 1678
VWidth: 0
GlyphClass: 2
Flags: W
PickledData: "(dp1
S'com.typemytype.robofont.layerData'
p2
(dp3
S'b'
(dp4
S'name'
p5
S'ae'
p6
sS'lib'
p7
(dp8
sS'unicodes'
p9
(tsS'width'
p10
I1734
sS'contours'
p11
(tsS'components'
p12
(tsS'anchors'
p13
(tsss."
AnchorPoint: "top" 849 978 basechar 0
LayerCount: 2
Fore
SplineSet
415 -30 m 256
 546 -30 730 34 808 210 c 257
 868 69 976 -30 1143 -30 c 256
 1326 -30 1528 79 1528 160 c 256
 1528 183 1511 201 1485 201 c 256
 1473 201 1457 196 1441 183 c 256
 1382 128 1277 75 1182 75 c 256
 962 75 876 253 873 467 c 257
 1507 467 l 258
 1550 467 1565 496 1565 524 c 256
 1555 797 1442 1016 1161 1016 c 256
 1010 1016 900 939 830 826 c 257
 781 958 669 1016 501 1016 c 256
 364 1016 239 972 148 900 c 256
 133 887 126 872 126 856 c 256
 126 828 150 805 177 805 c 256
 188 805 200 809 215 819 c 256
 296 872 360 911 501 911 c 256
 646 911 747 860 747 697 c 258
 747 606 l 257
 705 607 666 608 627 610 c 256
 303 610 75 521 75 277 c 256
 75 83 226 -30 415 -30 c 256
432 76 m 257
 307 79 203 141 203 275 c 256
 203 533 569 485 746 498 c 257
 746 395 l 257
 736 182 600 79 432 76 c 257
878 574 m 257
 892 746 983 910 1163 910 c 256
 1343 910 1426 762 1440 574 c 257
 878 574 l 257
EndSplineSet
EndChar

StartChar: ampersand
Encoding: 6 38 144
Width: 1493
VWidth: 0
GlyphClass: 2
Flags: W
LayerCount: 2
Fore
SplineSet
959 1248 m 256
 959 1434 791 1513 650 1513 c 256
 442 1513 288 1427 288 1242 c 256
 288 1098 402 971 494 868 c 257
 313 771 116 635 116 409 c 256
 116 135 331 -30 666 -30 c 256
 847 -30 995 47 1124 196 c 257
 1274 27 l 258
 1291 6 1313 -4 1332 -4 c 256
 1368 -4 1400 28 1400 67 c 256
 1400 88 1389 99 1372 120 c 258
 1205 302 l 257
 1332 520 1374 744 1374 843 c 256
 1374 893 1345 918 1307 918 c 256
 1275 918 1249 893 1248 850 c 256
 1248 697 1179 521 1121 388 c 257
 677 860 l 257
 809 962 959 1073 959 1248 c 256
646 82 m 256
 441 82 255 215 255 433 c 256
 255 557 382 684 576 788 c 257
 1052 281 l 257
 920 152 813 82 646 82 c 256
597 937 m 257
 527 1014 436 1130 436 1236 c 256
 436 1344 526 1384 624 1384 c 256
 716 1384 819 1338 819 1236 c 256
 819 1107 685 1020 597 937 c 257
EndSplineSet
EndChar

StartChar: uni02BC
Encoding: 65536 700 146
Width: 600
VWidth: 0
GlyphClass: 4
Flags: W
AnchorPoint: "top.2" 246 385 mark 0
LayerCount: 2
Fore
SplineSet
215 429 m 258
 233 429 l 257
 236 429 l 258
 263 429 278 441 289 472 c 258
 444 932 l 258
 445 936 447 943 447 950 c 256
 447 966 439 986 410 988 c 258
 348 988 l 258
 316 987 283 979 275 932 c 258
 191 472 l 258
 190 469 190 465 190 460 c 256
 190 447 194 430 215 429 c 258
EndSplineSet
EndChar

StartChar: approxequal
Encoding: 477 8776 147
Width: 1157
VWidth: 0
GlyphClass: 2
Flags: W
LayerCount: 2
Fore
SplineSet
829 337 m 256
 896 337 952 382 952 471 c 256
 952 497 927 515 904 515 c 256
 842 515 860 449 823 449 c 256
 781 449 385 515 305 515 c 256
 255 515 178 480 178 382 c 256
 178 358 199 340 224 340 c 256
 234 340 245 339 254 347 c 256
 292 374 284 404 319 404 c 256
 366 400 755 337 829 337 c 256
829 649 m 256
 896 649 952 693 952 782 c 256
 952 809 927 828 904 828 c 256
 842 828 860 760 823 760 c 256
 781 760 385 828 305 828 c 256
 255 828 178 791 178 693 c 256
 178 669 199 650 224 650 c 256
 234 650 245 651 254 658 c 256
 292 687 284 716 319 716 c 256
 366 713 755 649 829 649 c 256
EndSplineSet
EndChar

StartChar: asciicircum
Encoding: 62 94 149
Width: 1356
VWidth: 0
GlyphClass: 2
Flags: W
LayerCount: 2
Fore
SplineSet
256 479 m 256
 271 479 293 480 301 501 c 258
 670 1241 l 257
 1037 501 l 258
 1046 481 1066 478 1082 478 c 256
 1112 478 1144 503 1144 534 c 256
 1144 537 1146 537 1145 541 c 258
 733 1337 l 258
 721 1358 694 1368 670 1368 c 256
 652 1368 623 1362 609 1337 c 258
 194 541 l 258
 193 537 196 536 196 532 c 256
 196 500 227 479 256 479 c 256
EndSplineSet
EndChar

StartChar: asciitilde
Encoding: 94 126 150
Width: 1355
VWidth: 0
GlyphClass: 2
Flags: W
LayerCount: 2
Fore
SplineSet
760 1193 m 256
 839 1193 886 1231 917 1285 c 256
 921 1289 922 1294 922 1299 c 256
 922 1318 899 1338 876 1338 c 256
 866 1338 855 1334 848 1323 c 256
 834 1302 801 1293 777 1293 c 256
 710 1293 624 1347 546 1347 c 256
 474 1347 428 1316 388 1261 c 256
 383 1254 381 1248 381 1241 c 256
 381 1218 405 1200 427 1200 c 256
 439 1200 450 1205 456 1218 c 256
 471 1250 505 1252 532 1252 c 256
 606 1252 694 1193 760 1193 c 256
EndSplineSet
EndChar

StartChar: asterisk
Encoding: 10 42 151
Width: 1149
VWidth: 0
GlyphClass: 2
Flags: W
LayerCount: 2
Fore
SplineSet
443 744 m 258
 573 977 l 257
 704 744 l 258
 716 722 732 713 748 713 c 256
 781 713 816 750 816 781 c 256
 816 787 815 792 812 797 c 258
 668 1030 l 257
 935 1019 l 258
 977 1019 997 1049 997 1078 c 256
 997 1107 977 1136 935 1136 c 258
 670 1126 l 257
 812 1352 l 258
 816 1359 817 1367 817 1375 c 256
 817 1408 788 1442 755 1442 c 256
 738 1442 721 1433 705 1411 c 258
 573 1173 l 257
 443 1408 l 258
 429 1432 411 1441 393 1441 c 256
 360 1441 328 1408 328 1377 c 256
 328 1369 330 1362 334 1355 c 258
 476 1126 l 257
 215 1136 l 258
 174 1136 153 1107 153 1078 c 256
 153 1049 174 1019 215 1019 c 258
 479 1030 l 257
 338 803 l 258
 333 796 331 788 331 780 c 256
 331 748 365 715 398 715 c 256
 415 715 431 723 443 744 c 258
EndSplineSet
EndChar

StartChar: at
Encoding: 32 64 152
Width: 1638
VWidth: 0
GlyphClass: 2
Flags: W
LayerCount: 2
Fore
SplineSet
806 -24 m 256
 911 -24 1020 -6 1132 29 c 256
 1153 35 1162 54 1162 73 c 256
 1162 97 1149 118 1117 118 c 256
 1108 118 1099 117 1092 114 c 256
 1000 87 911 71 825 71 c 256
 479 71 184 295 184 732 c 256
 184 1163 557 1409 893 1409 c 256
 1172 1409 1422 1243 1422 875 c 256
 1422 659 1290 428 1120 428 c 256
 1073 428 1060 447 1060 479 c 256
 1060 508 1071 545 1085 586 c 258
 1240 1069 l 258
 1244 1076 1245 1084 1245 1095 c 256
 1245 1128 1217 1145 1187 1145 c 256
 1159 1145 1123 1129 1114 1096 c 258
 1105 1065 l 257
 1066 1152 972 1198 878 1198 c 256
 575 1198 396 898 396 625 c 256
 396 457 499 322 674 322 c 256
 742 322 847 353 910 399 c 257
 948 342 1018 315 1091 315 c 256
 1307 315 1542 547 1542 867 c 256
 1542 1311 1226 1513 890 1513 c 256
 492 1513 63 1235 63 745 c 256
 63 263 382 -24 806 -24 c 256
694 432 m 256
 611 432 536 506 530 587 c 256
 529 596 529 606 529 615 c 256
 529 843 678 1082 887 1082 c 256
 986 1082 1065 931 1065 931 c 257
 976 637 l 258
 938 504 782 432 694 432 c 256
EndSplineSet
EndChar

StartChar: b
Encoding: 66 98 154
Width: 1162
VWidth: 0
GlyphClass: 2
Flags: W
PickledData: "(dp1
S'b'
(dp2
sS'anchors'
p3
(tsS'lib'
p4
(dp5
sS'unicodes'
p6
(tsS'width'
p7
I1203
sS'contours'
p8
(tsS'components'
p9
(tsS'com.typemytype.robofont.layerData'
p10
(dp11
S'b'
(dp12
S'name'
p13
S'b'
sg4
(dp14
sg6
(tsg7
I1181
sg8
((dp15
S'points'
p16
((dp17
S'segmentType'
p18
S'curve'
p19
sS'x'
I238
sS'smooth'
p20
I1
sS'y'
I1425
s(dp21
S'y'
I1425
sS'x'
I198
sg20
I0
s(dp22
S'y'
I1400
sS'x'
I158
sg20
I0
s(dp23
g18
S'curve'
p24
sS'x'
I158
sg20
I1
sS'y'
I1351
s(dp25
g18
S'line'
p26
sS'x'
I158
sg20
I1
sS'y'
I76
s(dp27
S'y'
I27
sS'x'
I158
sg20
I0
s(dp28
S'y'
I3
sS'x'
I197
sg20
I0
s(dp29
g18
S'curve'
p30
sS'x'
I237
sg20
I1
sS'y'
I3
s(dp31
S'y'
I3
sS'x'
I297
sg20
I0
s(dp32
S'y'
I38
sS'x'
I318
sg20
I0
s(dp33
g18
S'curve'
p34
sS'x'
I318
sg20
I1
sS'y'
I76
s(dp35
g18
S'line'
p36
sS'x'
I318
sg20
I0
sS'y'
I183
s(dp37
S'y'
I46
sS'x'
I384
sg20
I0
s(dp38
S'y'
S'-20'
p39
sS'x'
I516
sg20
I0
s(dp40
g18
S'curve'
p41
sS'x'
I666
sg20
I1
sS'y'
S'-20'
p42
s(dp43
S'y'
S'-20'
p44
sS'x'
I957
sg20
I0
s(dp45
S'y'
I225
sS'x'
I1095
sg20
I0
s(dp46
g18
S'curve'
p47
sS'x'
I1095
sg20
I1
sS'y'
I502
s(dp48
S'y'
I777
sS'x'
I1095
sg20
I0
s(dp49
S'y'
I1013
sS'x'
I939
sg20
I0
s(dp50
g18
S'curve'
p51
sS'x'
I650
sg20
I1
sS'y'
I1013
s(dp52
S'y'
I1013
sS'x'
I503
sg20
I0
s(dp53
S'y'
I942
sS'x'
I376
sg20
I0
s(dp54
g18
S'curve'
p55
sS'x'
I318
sg20
I0
sS'y'
I814
s(dp56
g18
S'line'
p57
sS'x'
I318
sg20
I1
sS'y'
I1351
s(dp58
S'y'
I1400
sS'x'
I318
sg20
I0
s(dp59
S'y'
I1425
sS'x'
I278
sg20
I0
stp60
s(dp61
g16
((dp62
g18
S'curve'
p63
sS'x'
I632
sg20
I1
sS'y'
I903
s(dp64
S'y'
I903
sS'x'
I859
sg20
I0
s(dp65
S'y'
I685
sS'x'
I935
sg20
I0
s(dp66
g18
S'curve'
p67
sS'x'
I935
sg20
I1
sS'y'
I496
s(dp68
S'y'
I316
sS'x'
I935
sg20
I0
s(dp69
S'y'
I93
sS'x'
I869
sg20
I0
s(dp70
g18
S'curve'
p71
sS'x'
I645
sg20
I0
sS'y'
I90
s(dp72
S'y'
I90
sS'x'
I395
sg20
I0
s(dp73
S'y'
I279
sS'x'
I319
sg20
I0
s(dp74
g18
S'curve'
p75
sS'x'
I319
sg20
I1
sS'y'
I501
s(dp76
S'y'
I701
sS'x'
I319
sg20
I0
s(dp77
S'y'
I903
sS'x'
I407
sg20
I0
stp78
stp79
sg9
(tsg3
(tsssg13
S'b'
s."
LayerCount: 2
Fore
SplineSet
646 -25 m 256
 943 -25 1072 220 1072 499 c 256
 1072 756 926 1013 628 1013 c 256
 481 1013 339 930 287 789 c 257
 287 1365 l 258
 287 1399 258 1417 229 1417 c 256
 200 1417 171 1399 171 1365 c 258
 171 53 l 258
 171 19 197 5 226 5 c 256
 283 5 287 42 287 54 c 258
 287 199 l 257
 351 51 494 -25 646 -25 c 256
646 56 m 257
 370 56 288 280 288 500 c 256
 288 714 385 932 627 932 c 256
 871 932 957 695 957 489 c 256
 957 293 885 61 646 56 c 257
EndSplineSet
EndChar

StartChar: backslash
Encoding: 60 92 155
Width: 565
VWidth: 0
GlyphClass: 2
Flags: W
LayerCount: 2
Fore
SplineSet
532 -116 m 256
 563 -116 590 -96 590 -60 c 256
 590 -51 589 -42 586 -35 c 258
 97 1453 l 258
 87 1484 60 1497 37 1497 c 256
 5 1497 -25 1476 -25 1441 c 256
 -25 1435 -23 1428 -21 1417 c 258
 473 -71 l 258
 482 -102 506 -116 532 -116 c 256
EndSplineSet
EndChar

StartChar: bar
Encoding: 92 124 156
Width: 455
VWidth: 0
GlyphClass: 2
Flags: W
LayerCount: 2
Fore
SplineSet
227 -502 m 256
 258 -502 288 -482 288 -441 c 258
 288 1413 l 258
 288 1455 258 1473 228 1473 c 256
 197 1473 167 1455 167 1413 c 258
 167 -441 l 258
 167 -482 197 -502 227 -502 c 256
EndSplineSet
EndChar

StartChar: braceleft
Encoding: 91 123 157
Width: 558
VWidth: 0
GlyphClass: 2
Flags: W
LayerCount: 2
Fore
SplineSet
395 -195 m 258
 503 -195 l 258
 529 -195 544 -170 544 -147 c 256
 544 -129 535 -98 502 -98 c 258
 428 -98 l 258
 384 -98 349 -50 349 37 c 258
 349 349 l 258
 349 543 238 627 218 640 c 257
 239 656 349 694 349 926 c 258
 349 1253 l 258
 349 1335 383 1383 429 1383 c 258
 506 1383 l 258
 535 1383 544 1411 544 1431 c 256
 544 1443 540 1479 506 1479 c 258
 395 1479 l 258
 331 1479 224 1400 224 1260 c 258
 224 963 l 258
 224 809 205 707 73 692 c 257
 70 692 l 258
 37 692 21 664 21 639 c 256
 21 621 32 587 70 587 c 258
 73 587 l 257
 204 572 224 475 224 319 c 258
 224 29 l 258
 224 -100 316 -195 395 -195 c 258
EndSplineSet
EndChar

StartChar: braceright
Encoding: 93 125 158
Width: 558
VWidth: 0
GlyphClass: 2
Flags: W
LayerCount: 2
Fore
SplineSet
53 -195 m 258
 158 -195 l 258
 230 -195 331 -110 331 26 c 258
 331 319 l 258
 331 470 349 571 479 586 c 257
 516 586 535 614 535 639 c 256
 535 658 523 692 486 692 c 258
 483 692 l 257
 351 707 331 806 331 963 c 258
 331 1257 l 258
 331 1385 240 1479 158 1479 c 258
 53 1479 l 258
 25 1479 12 1452 12 1430 c 256
 12 1414 18 1383 50 1383 c 258
 126 1383 l 258
 173 1383 207 1339 207 1249 c 258
 207 934 l 258
 207 728 313 663 336 640 c 257
 324 628 207 548 207 349 c 258
 207 44 l 258
 207 -45 175 -98 125 -98 c 258
 53 -98 l 258
 26 -98 12 -124 12 -146 c 256
 12 -165 21 -195 53 -195 c 258
EndSplineSet
EndChar

StartChar: bracketleft
Encoding: 59 91 159
Width: 561
VWidth: 0
GlyphClass: 2
Flags: W
LayerCount: 2
Fore
SplineSet
238 -187 m 258
 397 -187 l 257
 400 -187 l 258
 429 -187 446 -162 446 -139 c 256
 446 -115 432 -92 397 -92 c 258
 301 -92 l 257
 301 1324 l 257
 397 1324 l 258
 429 1324 445 1348 445 1372 c 256
 445 1395 432 1419 397 1419 c 258
 238 1419 l 258
 201 1419 174 1392 174 1357 c 258
 174 -125 l 258
 174 -159 201 -187 238 -187 c 258
EndSplineSet
EndChar

StartChar: bracketright
Encoding: 61 93 160
Width: 561
VWidth: 0
GlyphClass: 2
Flags: W
LayerCount: 2
Fore
SplineSet
162 -187 m 257
 322 -187 l 258
 356 -187 386 -159 386 -125 c 258
 386 1357 l 258
 386 1392 356 1419 322 1419 c 258
 162 1419 l 258
 127 1419 114 1395 114 1372 c 256
 114 1348 130 1324 162 1324 c 258
 259 1324 l 257
 259 -92 l 257
 162 -92 l 258
 130 -92 114 -115 114 -139 c 256
 114 -162 130 -187 159 -187 c 258
 162 -187 l 257
EndSplineSet
EndChar

StartChar: breve
Encoding: 401 728 161
Width: 569
VWidth: 0
GlyphClass: 4
Flags: W
AnchorPoint: "top" 285 1040 mark 0
LayerCount: 2
Fore
SplineSet
285 1268 m 256
 406 1268 493 1321 534 1410 c 256
 536 1414 538 1420 538 1425 c 256
 538 1447 523 1460 499 1460 c 256
 485 1460 475 1454 463 1443 c 256
 415 1381 376 1358 285 1358 c 256
 192 1358 151 1381 107 1443 c 256
 97 1454 84 1460 71 1460 c 256
 49 1460 32 1447 32 1427 c 256
 32 1421 33 1416 36 1410 c 256
 77 1321 164 1268 285 1268 c 256
EndSplineSet
EndChar

StartChar: uni0311
Encoding: 409 785 162
Width: 569
VWidth: 0
GlyphClass: 4
Flags: W
AnchorPoint: "top" 286 1040 mark 0
LayerCount: 2
Fore
SplineSet
82 1276 m 256
 99 1276 114 1284 126 1301 c 256
 166 1357 204 1377 285 1377 c 256
 366 1377 403 1357 444 1301 c 256
 456 1284 471 1276 488 1276 c 256
 513 1276 534 1292 534 1317 c 256
 534 1324 532 1332 529 1340 c 256
 489 1429 402 1481 285 1481 c 256
 168 1481 81 1429 41 1340 c 256
 38 1332 36 1324 36 1317 c 256
 36 1292 57 1276 82 1276 c 256
EndSplineSet
EndChar

StartChar: brokenbar
Encoding: 101 166 163
Width: 455
VWidth: 0
GlyphClass: 2
Flags: W
LayerCount: 2
Fore
SplineSet
212 -198 m 256
 268 -198 270 -154 270 -119 c 258
 270 -112 l 257
 270 389 l 258
 270 440 261 477 213 477 c 256
 177 477 155 450 155 421 c 258
 155 -112 l 258
 155 -163 164 -198 212 -198 c 256
213 749 m 256
 267 749 269 793 269 828 c 258
 269 835 l 257
 269 1414 l 258
 269 1460 260 1499 212 1499 c 256
 176 1499 154 1476 154 1441 c 258
 154 835 l 258
 154 784 163 749 213 749 c 256
EndSplineSet
EndChar

StartChar: bullet
Encoding: 454 8226 164
Width: 1024
VWidth: 0
GlyphClass: 2
Flags: W
LayerCount: 2
Fore
SplineSet
509 356 m 256
 714 356 880 519 880 709 c 256
 880 904 714 1063 509 1063 c 256
 310 1063 144 904 144 709 c 256
 144 519 310 356 509 356 c 256
EndSplineSet
EndChar

StartChar: c
Encoding: 67 99 165
Width: 950
VWidth: 0
GlyphClass: 2
Flags: W
PickledData: "(dp1
S'b'
(dp2
sS'anchors'
p3
(tsS'lib'
p4
(dp5
sS'unicodes'
p6
(tsS'width'
p7
I992
sS'contours'
p8
(tsS'components'
p9
(tsS'com.typemytype.robofont.layerData'
p10
(dp11
S'b'
(dp12
S'name'
p13
S'c'
sg4
(dp14
sg6
(tsg7
F956.14099999999996
sg8
(tsg9
(tsg3
(tsssg13
S'c'
s."
AnchorPoint: "bot" 538 14 basechar 0
AnchorPoint: "top" 544 994 basechar 0
LayerCount: 2
Fore
SplineSet
534 -28 m 256
 654 -28 764 4 835 58 c 256
 857 74 866 90 866 104 c 256
 866 125 846 140 825 140 c 256
 817 140 809 138 801 133 c 256
 714 74 627 56 542 56 c 256
 274 56 205 315 205 484 c 256
 205 783 377 933 573 933 c 256
 649 933 729 912 800 857 c 256
 812 846 825 841 837 841 c 256
 856 841 871 853 871 873 c 256
 871 886 865 901 850 917 c 256
 791 976 681 1013 579 1013 c 256
 278 1013 90 796 90 493 c 256
 90 192 246 -28 534 -28 c 256
EndSplineSet
EndChar

StartChar: caron
Encoding: 399 711 167
Width: 569
VWidth: 0
GlyphClass: 4
Flags: W
AnchorPoint: "top" 301 1040 mark 0
LayerCount: 2
Fore
SplineSet
286 1113 m 256
 311 1113 338 1126 361 1158 c 258
 548 1432 l 258
 558 1445 561 1458 561 1472 c 256
 561 1498 540 1520 514 1520 c 256
 498 1520 482 1512 466 1492 c 258
 286 1249 l 257
 104 1492 l 258
 89 1512 72 1520 57 1520 c 256
 30 1520 10 1497 10 1471 c 256
 10 1461 12 1447 22 1431 c 258
 210 1158 l 258
 228 1128 258 1113 286 1113 c 256
EndSplineSet
EndChar

StartChar: caron.alt
Encoding: 65537 -1 168
Width: 582
VWidth: 0
GlyphClass: 4
Flags: W
AnchorPoint: "caron.alt" 31 312 mark 0
LayerCount: 2
Fore
SplineSet
307 307 m 256
 332 308 346 321 356 350 c 258
 472 719 l 258
 473 723 475 730 475 737 c 256
 475 753 467 773 438 775 c 258
 414 775 l 258
 382 774 349 766 341 719 c 258
 283 350 l 258
 282 347 282 343 282 338 c 256
 282 325 286 308 307 307 c 256
EndSplineSet
EndChar

StartChar: cedilla
Encoding: 119 184 173
Width: 569
VWidth: 0
GlyphClass: 4
Flags: W
AnchorPoint: "bot" 281 0 mark 0
LayerCount: 2
Fore
SplineSet
310 -375 m 256
 390 -375 480 -329 480 -237 c 256
 480 -123 390 -99 295 -99 c 258
 289 -99 l 258
 282 -99 279 -100 275 -99 c 257
 304 12 l 257
 261 12 l 257
 219 -121 l 258
 218 -125 218 -128 218 -132 c 256
 218 -145 226 -158 246 -158 c 258
 253 -158 l 258
 311 -158 369 -179 369 -233 c 256
 369 -287 349 -317 278 -317 c 256
 216 -317 169 -303 116 -282 c 256
 110 -279 104 -278 101 -278 c 256
 90 -278 82 -292 82 -304 c 256
 82 -341 198 -375 310 -375 c 256
EndSplineSet
EndChar

StartChar: cent
Encoding: 97 162 174
Width: 1022
VWidth: 0
GlyphClass: 2
Flags: W
PickledData: "(dp1
S'com.typemytype.robofont.layerData'
p2
(dp3
S'b'
(dp4
S'name'
p5
S'cent'
p6
sS'lib'
p7
(dp8
sS'unicodes'
p9
(tsS'width'
p10
I1046
sS'contours'
p11
(tsS'components'
p12
(tsS'anchors'
p13
(tsss."
LayerCount: 2
Fore
SplineSet
532 -271 m 256
 549 -271 568 -259 568 -232 c 258
 568 5 l 257
 494 6 l 257
 494 -232 l 258
 494 -258 514 -271 532 -271 c 256
494 966 m 257
 568 967 l 257
 568 1203 l 258
 568 1231 549 1243 532 1243 c 256
 514 1243 494 1230 494 1203 c 258
 494 966 l 257
EndSplineSet
Refer: 165 99 N 1 0 0 1 0 0 2
EndChar

StartChar: circumflex
Encoding: 398 710 175
Width: 569
VWidth: 0
GlyphClass: 4
Flags: W
AnchorPoint: "top" 294 1040 mark 0
LayerCount: 2
Fore
SplineSet
59 1196 m 256
 73 1196 95 1202 109 1224 c 258
 290 1467 l 257
 471 1224 l 258
 488 1205 505 1197 521 1197 c 256
 547 1197 567 1215 567 1242 c 256
 567 1256 561 1269 553 1282 c 258
 366 1556 l 258
 341 1588 318 1601 289 1601 c 256
 259 1601 233 1586 215 1556 c 258
 27 1283 l 258
 17 1269 15 1256 14 1242 c 256
 14 1215 33 1196 59 1196 c 256
EndSplineSet
EndChar

StartChar: colon
Encoding: 26 58 176
Width: 565
VWidth: 0
GlyphClass: 2
Flags: W
LayerCount: 2
Fore
SplineSet
282 1 m 256
 342 1 371 40 371 79 c 256
 371 112 344 156 282 156 c 256
 222 156 193 115 193 79 c 256
 193 42 220 1 282 1 c 256
282 829 m 256
 341 829 371 866 371 906 c 256
 371 942 344 984 282 984 c 256
 222 984 193 945 193 906 c 256
 193 869 220 829 282 829 c 256
EndSplineSet
EndChar

StartChar: comma
Encoding: 12 44 177
Width: 565
VWidth: 0
GlyphClass: 2
Flags: W
PickledData: "(dp1
S'b'
(dp2
sS'anchors'
p3
(tsS'lib'
p4
(dp5
sS'unicodes'
p6
(tsS'width'
p7
I615
sS'contours'
p8
(tsS'components'
p9
(tsS'com.typemytype.robofont.layerData'
p10
(dp11
S'b'
(dp12
S'name'
p13
S'comma'
p14
sg4
(dp15
sg6
(tsg7
I584
sg8
(tsg9
(tsg3
(tsssg13
S'comma'
p16
s."
LayerCount: 2
Fore
SplineSet
163 -351 m 258
 181 -351 l 257
 184 -351 l 258
 211 -351 226 -339 237 -308 c 258
 392 152 l 258
 393 156 395 163 395 170 c 256
 395 186 387 206 358 208 c 258
 296 208 l 258
 264 207 231 199 223 152 c 258
 139 -308 l 258
 138 -311 138 -315 138 -320 c 256
 138 -333 142 -350 163 -351 c 258
EndSplineSet
EndChar

StartChar: uni0326
Encoding: 411 806 178
Width: 565
VWidth: 0
GlyphClass: 4
Flags: W
PickledData: "(dp1
S'b'
(dp2
sS'anchors'
p3
(tsS'lib'
p4
(dp5
sS'unicodes'
p6
(tsS'width'
p7
I615
sS'contours'
p8
(tsS'components'
p9
(tsS'com.typemytype.robofont.layerData'
p10
(dp11
S'b'
(dp12
S'name'
p13
S'uni0326'
p14
sg4
(dp15
sg6
(tsg7
I584
sg8
(tsg9
(tsg3
(tsssg13
S'uni0326'
p16
s."
AnchorPoint: "bot" 294 0 mark 0
LayerCount: 2
Fore
SplineSet
164 -572 m 256
 189 -571 203 -558 213 -529 c 258
 329 -160 l 258
 330 -156 332 -149 332 -142 c 256
 332 -126 324 -106 295 -104 c 258
 271 -104 l 258
 239 -105 206 -113 198 -160 c 258
 140 -529 l 258
 139 -532 139 -536 139 -541 c 256
 139 -554 143 -571 164 -572 c 256
EndSplineSet
EndChar

StartChar: uni0312
Encoding: 410 786 179
Width: 600
VWidth: 0
GlyphClass: 4
Flags: W
AnchorPoint: "top" 269 991 mark 0
LayerCount: 2
Fore
SplineSet
241 1214 m 258
 303 1214 l 258
 335 1215 368 1223 376 1270 c 258
 460 1730 l 258
 461 1733 461 1737 461 1742 c 256
 461 1755 457 1772 436 1773 c 258
 418 1773 l 257
 415 1773 l 258
 388 1773 373 1761 362 1730 c 258
 207 1270 l 258
 206 1266 204 1259 204 1252 c 256
 204 1236 212 1216 241 1214 c 258
EndSplineSet
EndChar

StartChar: copyright
Encoding: 104 169 180
Width: 1634
VWidth: 0
GlyphClass: 2
Flags: W
LayerCount: 2
Fore
SplineSet
839 407 m 256
 915 407 1091 445 1091 513 c 256
 1091 536 1075 553 1053 553 c 256
 1041 553 1036 551 1033 548 c 256
 974 514 917 495 856 495 c 256
 700 495 560 607 560 806 c 256
 560 1009 691 1104 846 1104 c 256
 912 1104 985 1086 1047 1051 c 256
 1055 1048 1060 1046 1065 1046 c 256
 1090 1046 1106 1069 1106 1092 c 256
 1106 1158 906 1193 835 1193 c 256
 631 1193 450 1062 450 804 c 256
 450 547 640 407 839 407 c 256
827 248 m 256
 493 248 252 475 252 797 c 256
 252 1115 493 1344 827 1344 c 256
 1159 1344 1396 1115 1396 797 c 256
 1396 475 1159 248 827 248 c 256
827 144 m 256
 1200 144 1504 436 1504 797 c 256
 1504 1156 1200 1448 827 1448 c 256
 449 1448 145 1156 145 797 c 256
 145 436 449 144 827 144 c 256
EndSplineSet
EndChar

StartChar: currency
Encoding: 99 164 181
Width: 1135
VWidth: 0
GlyphClass: 2
Flags: W
LayerCount: 2
Fore
SplineSet
183 160 m 256
 196 160 207 165 216 174 c 258
 304 261 l 257
 372 211 462 179 572 179 c 256
 684 179 772 209 840 262 c 257
 930 174 l 258
 939 166 948 160 957 160 c 256
 982 160 1007 180 1007 207 c 256
 1007 217 1004 229 994 239 c 258
 905 326 l 257
 965 402 997 500 997 597 c 256
 997 694 967 789 906 865 c 257
 994 952 l 258
 1004 962 1007 973 1007 983 c 256
 1007 1009 985 1030 961 1030 c 256
 950 1030 939 1025 929 1016 c 258
 843 930 l 257
 775 983 685 1016 572 1016 c 256
 458 1016 369 983 301 930 c 257
 216 1016 l 258
 207 1025 196 1030 184 1030 c 256
 159 1030 138 1009 138 985 c 256
 138 973 142 962 153 952 c 258
 237 865 l 257
 176 789 147 695 147 597 c 256
 147 500 177 402 239 325 c 257
 153 239 l 258
 143 229 138 219 138 207 c 256
 138 181 159 160 183 160 c 256
572 275 m 256
 366 275 261 436 261 597 c 256
 261 757 366 921 572 921 c 256
 779 921 883 757 883 597 c 256
 883 436 779 275 572 275 c 256
EndSplineSet
EndChar

StartChar: d
Encoding: 68 100 182
Width: 1162
VWidth: 0
GlyphClass: 2
Flags: W
PickledData: "(dp1
S'b'
(dp2
sS'anchors'
p3
(tsS'lib'
p4
(dp5
sS'unicodes'
p6
(tsS'width'
p7
I1207
sS'contours'
p8
(tsS'components'
p9
(tsS'com.typemytype.robofont.layerData'
p10
(dp11
S'b'
(dp12
S'name'
p13
S'd'
sg4
(dp14
sg6
(tsg7
I1181
sg8
(tsg9
(tsg3
(tsssg13
S'd'
s."
AnchorPoint: "mid" 877 1207 basechar 0
AnchorPoint: "caron.alt" 882 962 basechar 0
LayerCount: 2
Fore
SplineSet
516 -25 m 256
 667 -25 811 51 875 199 c 257
 875 54 l 258
 875 42 879 5 936 5 c 256
 965 5 991 19 991 53 c 258
 991 1365 l 258
 991 1399 961 1417 933 1417 c 256
 904 1417 875 1399 875 1365 c 258
 875 789 l 257
 823 930 681 1013 533 1013 c 256
 236 1013 90 756 90 499 c 256
 90 220 219 -25 516 -25 c 256
516 56 m 257
 277 61 205 293 205 489 c 256
 205 695 291 932 535 932 c 256
 776 932 874 714 874 500 c 256
 874 280 791 56 516 56 c 257
EndSplineSet
EndChar

StartChar: dagger
Encoding: 452 8224 183
Width: 1132
VWidth: 0
GlyphClass: 2
Flags: W
LayerCount: 2
Fore
SplineSet
565 -1 m 256
 596 -1 625 18 625 55 c 258
 625 1001 l 257
 925 1001 l 258
 959 1001 975 1026 975 1055 c 256
 975 1081 959 1109 925 1109 c 258
 625 1109 l 257
 625 1422 l 258
 625 1459 596 1479 565 1479 c 256
 535 1479 507 1461 507 1422 c 258
 507 1109 l 257
 202 1109 l 258
 170 1109 153 1083 153 1054 c 256
 153 1025 170 1001 202 1001 c 258
 507 1001 l 257
 507 55 l 258
 507 18 535 -1 565 -1 c 256
EndSplineSet
EndChar

StartChar: daggerdbl
Encoding: 453 8225 184
Width: 1132
VWidth: 0
GlyphClass: 2
Flags: W
LayerCount: 2
Fore
SplineSet
565 -2 m 256
 597 -2 625 17 625 54 c 258
 625 365 l 257
 922 365 l 258
 957 365 974 390 974 420 c 256
 974 447 957 474 922 474 c 258
 625 474 l 257
 625 998 l 257
 922 998 l 258
 957 998 974 1023 974 1053 c 256
 974 1080 957 1107 922 1107 c 258
 625 1107 l 257
 625 1422 l 258
 625 1461 597 1479 565 1479 c 256
 537 1479 507 1461 507 1422 c 258
 507 1107 l 257
 205 1107 l 258
 171 1107 155 1079 155 1052 c 256
 155 1025 171 998 205 998 c 258
 507 998 l 257
 507 474 l 257
 205 474 l 258
 171 474 155 446 155 419 c 256
 155 392 171 365 205 365 c 258
 507 365 l 257
 507 54 l 258
 507 17 537 -2 565 -2 c 256
EndSplineSet
EndChar

StartChar: uni030F
Encoding: 408 783 185
Width: 569
VWidth: 0
GlyphClass: 4
Flags: W
AnchorPoint: "top" 489 1022 mark 0
LayerCount: 2
Fore
SplineSet
314 1119 m 256
 334 1119 343 1132 343 1146 c 256
 343 1155 343 1163 335 1171 c 258
 43 1477 l 258
 30 1487 21 1487 9 1487 c 256
 -31 1487 -68 1446 -68 1411 c 256
 -68 1398 -62 1385 -48 1375 c 258
 283 1129 l 258
 297 1120 305 1119 314 1119 c 256
587 1119 m 258
 605 1119 616 1129 616 1145 c 256
 616 1155 615 1163 606 1172 c 258
 315 1479 l 258
 305 1486 298 1487 289 1487 c 258
 283 1487 l 258
 244 1487 206 1449 206 1412 c 256
 206 1400 211 1385 225 1375 c 258
 560 1126 l 258
 568 1120 574 1119 580 1119 c 258
 587 1119 l 258
EndSplineSet
EndChar

StartChar: degree
Encoding: 111 176 188
Width: 819
VWidth: 0
GlyphClass: 2
Flags: W
LayerCount: 2
Fore
SplineSet
410 884 m 256
 283 884 192 970 192 1092 c 256
 192 1212 283 1302 407 1302 c 256
 532 1302 628 1212 628 1092 c 256
 628 970 533 884 410 884 c 256
410 798 m 256
 578 798 718 929 718 1092 c 256
 718 1254 578 1388 410 1388 c 256
 238 1388 102 1254 102 1092 c 256
 102 929 240 798 410 798 c 256
EndSplineSet
EndChar

StartChar: dieresis
Encoding: 103 168 189
Width: 569
VWidth: 0
GlyphClass: 4
Flags: W
AnchorPoint: "top" 287 1040 mark 0
LayerCount: 2
Fore
SplineSet
108 1219 m 256
 172 1219 199 1262 199 1300 c 256
 199 1337 172 1377 108 1377 c 256
 47 1377 19 1337 19 1300 c 256
 19 1263 45 1219 108 1219 c 256
462 1219 m 256
 524 1219 551 1262 551 1300 c 256
 551 1336 525 1377 462 1377 c 256
 400 1377 371 1338 371 1300 c 256
 371 1263 398 1219 462 1219 c 256
EndSplineSet
EndChar

StartChar: divide
Encoding: 182 247 190
Width: 1355
VWidth: 0
GlyphClass: 2
Flags: W
LayerCount: 2
Fore
SplineSet
220 455 m 258
 1141 455 l 258
 1178 455 1196 483 1196 513 c 256
 1196 543 1178 573 1141 573 c 258
 220 573 l 258
 183 573 165 543 165 513 c 256
 165 483 183 455 220 455 c 258
679 2 m 256
 742 2 769 42 769 83 c 256
 769 119 742 162 679 162 c 256
 618 162 587 119 587 83 c 256
 587 42 617 2 679 2 c 256
679 867 m 256
 742 867 769 907 769 948 c 256
 769 987 742 1027 679 1027 c 256
 618 1027 587 987 587 948 c 256
 587 907 617 867 679 867 c 256
EndSplineSet
EndChar

StartChar: dollar
Encoding: 4 36 191
Width: 1335
VWidth: 0
GlyphClass: 2
Flags: W
PickledData: "(dp1
S'com.typemytype.robofont.layerData'
p2
(dp3
S'b'
(dp4
S'name'
p5
S'dollar'
p6
sS'lib'
p7
(dp8
sS'unicodes'
p9
(tsS'width'
p10
I1274
sS'contours'
p11
(tsS'components'
p12
(tsS'anchors'
p13
(tsss."
LayerCount: 2
Fore
SplineSet
635 0 m 258
 635 -40 663 -59 692 -59 c 256
 722 -59 753 -39 753 0 c 258
 753 267 l 257
 635 267 l 257
 635 0 l 258
637 1200 m 257
 755 1200 l 257
 755 1438 l 258
 755 1477 724 1497 694 1497 c 256
 665 1497 637 1478 637 1438 c 258
 637 1200 l 257
EndSplineSet
Refer: 338 115 N 1 0 0 1 180 230 2
EndChar

StartChar: dotaccent
Encoding: 402 729 192
Width: 565
VWidth: 0
GlyphClass: 4
Flags: W
AnchorPoint: "top" 281 1021 mark 0
LayerCount: 2
Fore
SplineSet
269 1194 m 256
 329 1194 359 1232 359 1273 c 256
 359 1310 329 1352 269 1352 c 256
 208 1352 179 1310 179 1273 c 256
 179 1232 208 1194 269 1194 c 256
EndSplineSet
EndChar

StartChar: dotlessi
Encoding: 240 305 193
Width: 452
VWidth: 0
GlyphClass: 2
Flags: W
AnchorPoint: "top" 227 991 basechar 0
LayerCount: 2
Fore
SplineSet
224 0 m 256
 252 0 283 21 283 60 c 258
 283 927 l 258
 283 965 254 984 227 984 c 256
 199 984 168 965 168 927 c 258
 168 60 l 258
 168 17 195 0 224 0 c 256
EndSplineSet
EndChar

StartChar: uni0237
Encoding: 396 567 194
Width: 448
VWidth: 0
GlyphClass: 2
Flags: W
AnchorPoint: "top" 226 991 basechar 0
LayerCount: 2
Fore
SplineSet
6 -373 m 256
 280 -373 281 -290 281 -44 c 258
 281 938 l 258
 281 969 241 987 226 987 c 256
 206 987 167 971 167 940 c 258
 167 -101 l 258
 167 -260 157 -276 22 -276 c 258
 8 -276 l 258
 -22 -276 -38 -302 -38 -327 c 256
 -38 -350 -24 -373 6 -373 c 256
EndSplineSet
EndChar

StartChar: e
Encoding: 69 101 195
Width: 1160
VWidth: 0
GlyphClass: 2
Flags: W
PickledData: "(dp1
S'b'
(dp2
sS'anchors'
p3
(tsS'lib'
p4
(dp5
sS'unicodes'
p6
(tsS'width'
p7
I1132
sS'contours'
p8
(tsS'components'
p9
(tsS'com.typemytype.robofont.layerData'
p10
(dp11
S'b'
(dp12
S'name'
p13
S'e'
sg4
(dp14
sg6
(tsg7
I1132
sg8
(tsg9
(tsg3
(tsssg13
S'e'
s."
AnchorPoint: "ogonek" 720 14 basechar 0
AnchorPoint: "top" 591 1001 basechar 0
LayerCount: 2
Fore
SplineSet
571 -25 m 256
 798 -25 910 70 975 136 c 256
 990 151 996 167 996 180 c 256
 996 201 981 216 960 216 c 256
 948 216 935 211 921 199 c 256
 839 128 745 63 576 63 c 256
 395 67 219 201 219 466 c 258
 219 482 l 257
 955 482 l 258
 997 482 1019 500 1019 522 c 256
 1008 783 907 1013 576 1013 c 256
 276 1013 102 767 102 486 c 256
 102 170 323 -25 571 -25 c 256
224 558 m 257
 238 755 361 932 588 932 c 256
 807 932 903 769 914 558 c 257
 224 558 l 257
EndSplineSet
EndChar

StartChar: eight
Encoding: 24 56 203
Width: 1128
VWidth: 0
GlyphClass: 2
Flags: W
PickledData: "(dp1
S'com.typemytype.robofont.layerData'
p2
(dp3
S'b'
(dp4
S'name'
p5
S'eight'
p6
sS'lib'
p7
(dp8
sS'unicodes'
p9
(tsS'width'
p10
I1160
sS'contours'
p11
(tsS'components'
p12
(tsS'anchors'
p13
(tsss."
LayerCount: 2
Fore
SplineSet
564 -22 m 256
 795 -22 1013 97 1013 366 c 256
 1013 545 916 667 722 724 c 257
 908 770 994 883 994 1056 c 256
 994 1306 785 1412 564 1412 c 256
 349 1412 135 1306 135 1056 c 256
 135 906 203 768 410 724 c 257
 219 687 117 538 117 366 c 256
 117 97 332 -22 564 -22 c 256
564 73 m 256
 388 73 236 174 236 361 c 256
 236 557 385 663 564 663 c 256
 743 663 892 557 892 361 c 256
 892 174 743 73 564 73 c 256
564 787 m 256
 373 787 249 878 249 1050 c 256
 249 1236 406 1321 564 1321 c 256
 725 1321 881 1236 881 1050 c 256
 881 878 756 787 564 787 c 256
EndSplineSet
EndChar

StartChar: ellipsis
Encoding: 455 8230 204
Width: 1695
VWidth: 0
GlyphClass: 2
Flags: W
LayerCount: 2
Fore
SplineSet
282 1 m 256
 342 1 371 40 371 79 c 256
 371 112 344 156 282 156 c 256
 222 156 193 115 193 79 c 256
 193 42 220 1 282 1 c 256
847 1 m 256
 907 1 935 40 935 79 c 256
 935 111 911 156 847 156 c 256
 787 156 757 115 757 79 c 256
 757 42 785 1 847 1 c 256
1411 1 m 256
 1472 1 1500 40 1500 79 c 256
 1500 112 1474 156 1411 156 c 256
 1351 156 1323 115 1323 79 c 256
 1323 42 1350 1 1411 1 c 256
EndSplineSet
EndChar

StartChar: emdash
Encoding: 445 8212 206
Width: 2048
VWidth: 0
GlyphClass: 2
Flags: W
LayerCount: 2
Fore
SplineSet
61 468 m 258
 1988 468 l 258
 2028 468 2046 497 2046 525 c 256
 2046 552 2028 582 1988 582 c 258
 61 582 l 258
 20 582 3 554 3 526 c 256
 3 496 20 468 61 468 c 258
EndSplineSet
EndChar

StartChar: emptyset
Encoding: 467 8709 207
Width: 1745
VWidth: 0
GlyphClass: 2
Flags: W
LayerCount: 2
Fore
SplineSet
630 228 m 257
 1226 995 l 257
 1313 907 1365 787 1365 653 c 256
 1365 369 1141 168 874 168 c 256
 783 168 701 190 630 228 c 257
538 292 m 257
 439 381 381 509 381 653 c 256
 381 928 595 1137 874 1137 c 256
 973 1137 1062 1111 1137 1065 c 257
 538 292 l 257
360 45 m 256
 360 18 382 -16 414 -16 c 256
 443 -16 467 17 488 45 c 258
 572 153 l 257
 662 104 766 76 874 76 c 256
 1206 76 1478 336 1478 653 c 256
 1478 823 1403 972 1288 1076 c 257
 1389 1205 l 258
 1405 1227 1427 1252 1427 1277 c 256
 1427 1304 1406 1334 1375 1334 c 256
 1358 1334 1341 1327 1324 1306 c 258
 1198 1143 l 257
 1103 1202 990 1235 874 1235 c 256
 526 1235 267 961 267 653 c 256
 267 474 351 319 479 215 c 257
 398 111 l 258
 383 93 360 62 360 45 c 256
EndSplineSet
EndChar

StartChar: endash
Encoding: 444 8211 208
Width: 1024
VWidth: 0
GlyphClass: 2
Flags: W
LayerCount: 2
Fore
SplineSet
60 468 m 258
 963 468 l 258
 1003 468 1021 497 1021 525 c 256
 1021 552 1003 582 963 582 c 258
 60 582 l 258
 20 582 3 554 3 526 c 256
 3 496 20 468 60 468 c 258
EndSplineSet
EndChar

StartChar: eng
Encoding: 266 331 209
Width: 1136
VWidth: 0
GlyphClass: 2
Flags: HW
PickledData: "(dp1
S'com.typemytype.robofont.layerData'
p2
(dp3
S'b'
(dp4
S'name'
p5
S'eng'
p6
sS'lib'
p7
(dp8
sS'unicodes'
p9
(tsS'width'
p10
I1158
sS'contours'
p11
(tsS'components'
p12
(tsS'anchors'
p13
(tsss."
LayerCount: 2
Fore
SplineSet
402 -246 m 0
 494.710447648 -271.824010615 582.918361375 -286.772235568 661.113301661 -286.772235568 c 0
 846.065453227 -286.772235568 975 -203.144353925 975 18 c 2
 975 620 l 2
 975 896 851 1013 616 1013 c 0
 468 1013 328 937 287 792 c 1
 287 930 l 2
 287 966 257 983 230 983 c 0
 202 983 171 967 171 929 c 2
 171 52 l 2
 171 16 199 0 227 0 c 0
 255 0 287 19 287 52 c 2
 287 627 l 1
 308 829 427 932 597 932 c 0
 784 932 860 819 860 622 c 2
 860 62 l 2
 860 -139.431658519 775.883171825 -189.228822114 659.129425239 -189.228822114 c 0
 591.67161066 -189.228822114 513.31867581 -172.605129899 434 -159 c 0
 427.766477576 -157.930795535 422 -156 416 -156 c 0
 388 -156 373 -180 373 -203 c 0
 373 -221 381.249298641 -240.220000596 402 -246 c 0
EndSplineSet
EndChar

StartChar: equal
Encoding: 29 61 211
Width: 1356
VWidth: 0
GlyphClass: 2
Flags: W
LayerCount: 2
Fore
SplineSet
226 248 m 258
 1142 248 l 258
 1172 248 1189 280 1189 304 c 256
 1189 330 1172 361 1136 361 c 258
 214 361 l 258
 185 361 166 331 166 304 c 256
 166 275 191 248 226 248 c 258
226 624 m 258
 1142 624 l 258
 1171 624 1189 658 1189 681 c 256
 1189 706 1174 739 1142 739 c 258
 214 739 l 258
 185 739 166 709 166 681 c 256
 166 652 192 624 226 624 c 258
EndSplineSet
EndChar

StartChar: estimated
Encoding: 465 8494 212
Width: 1132
VWidth: 0
GlyphClass: 2
Flags: W
LayerCount: 2
Fore
SplineSet
600 -12 m 256
 782 -12 888 35 982 115 c 256
 1008 137 1019 159 1019 177 c 256
 1019 199 1003 214 980 214 c 256
 955 214 938 201 921 183 c 256
 826 85 712 39 604 39 c 256
 428 39 327 159 315 491 c 257
 930 491 l 258
 978 491 995 541 995 577 c 256
 995 786 927 1013 577 1013 c 256
 231 1013 128 759 128 512 c 256
 128 183 268 -12 600 -12 c 256
317 562 m 257
 328 796 421 968 591 968 c 256
 764 968 825 817 836 562 c 257
 317 562 l 257
EndSplineSet
EndChar

StartChar: eth
Encoding: 175 240 213
Width: 1132
VWidth: 0
GlyphClass: 2
Flags: W
PickledData: "(dp1
S'com.typemytype.robofont.layerData'
p2
(dp3
S'b'
(dp4
S'name'
p5
S'eth'
p6
sS'lib'
p7
(dp8
sS'unicodes'
p9
(tsS'width'
p10
I1230
sS'contours'
p11
(tsS'components'
p12
(tsS'anchors'
p13
(tsss."
LayerCount: 2
Fore
SplineSet
536 -32 m 256
 931 -32 1041 284 1041 609 c 256
 1041 741 1030 896 996 1048 c 257
 1132 1048 l 258
 1170 1048 1192 1079 1192 1107 c 256
 1192 1136 1173 1165 1132 1165 c 258
 963 1165 l 257
 928 1267 818 1509 718 1509 c 256
 684 1509 653 1483 653 1452 c 256
 653 1438 660 1422 675 1408 c 256
 744 1332 784 1252 819 1165 c 257
 648 1165 l 258
 607 1165 587 1135 587 1106 c 256
 587 1078 607 1048 648 1048 c 258
 859 1048 l 257
 893 884 894 777 900 655 c 257
 839 805 692 880 527 880 c 256
 246 880 93 687 93 430 c 256
 93 171 259 -32 536 -32 c 256
556 82 m 256
 345 82 230 227 230 420 c 256
 230 602 316 776 530 776 c 256
 758 776 879 616 879 411 c 256
 879 239 744 82 556 82 c 256
EndSplineSet
EndChar

StartChar: exclam
Encoding: 1 33 214
Width: 798
VWidth: 0
GlyphClass: 2
Flags: W
LayerCount: 2
Fore
SplineSet
390 396 m 258
 390 370 405 356 419 356 c 256
 433 356 447 369 448 396 c 258
 482 1418 l 258
 482 1460 451 1480 420 1480 c 256
 389 1480 358 1459 358 1418 c 258
 390 396 l 258
EndSplineSet
Refer: 313 46 N 1 0 0 1 140 -4 2
EndChar

StartChar: f
Encoding: 70 102 216
Width: 680
VWidth: 0
GlyphClass: 2
Flags: W
PickledData: "(dp1
S'b'
(dp2
sS'anchors'
p3
(tsS'lib'
p4
(dp5
sS'unicodes'
p6
(tsS'width'
p7
I723
sS'contours'
p8
(tsS'components'
p9
(tsS'com.typemytype.robofont.layerData'
p10
(dp11
S'b'
(dp12
S'name'
p13
S'f'
sg4
(dp14
sg6
(tsg7
I696
sg8
(tsg9
(tsg3
(tsssg13
S'f'
s."
LayerCount: 2
Fore
SplineSet
311 0 m 256
 340 0 370 20 370 57 c 258
 370 898 l 257
 572 898 l 258
 608 898 612 910 612 936 c 256
 612 960 608 975 572 975 c 258
 370 975 l 257
 370 1034 l 258
 370 1304 400 1348 526 1348 c 258
 611 1348 l 258
 640 1348 654 1369 654 1390 c 256
 654 1411 640 1431 612 1431 c 258
 496 1431 l 258
 363 1431 255 1382 255 1115 c 258
 255 975 l 257
 95 975 l 258
 60 974 50 960 50 936 c 256
 50 914 59 898 92 898 c 258
 95 898 l 257
 255 898 l 257
 255 57 l 258
 255 19 284 0 311 0 c 256
EndSplineSet
EndChar

StartChar: uniFB01
Encoding: 483 64257 217
Width: 1131
VWidth: 0
GlyphClass: 2
Flags: W
LayerCount: 2
Fore
SplineSet
311 1 m 256
 341 1 370 21 370 58 c 258
 370 880 l 257
 848 880 l 257
 848 60 l 258
 848 17 874 0 903 0 c 256
 931 0 963 21 963 60 c 258
 963 928 l 258
 963 970 929 986 901 986 c 258
 370 986 l 257
 370 1019 l 258
 370 1266 379 1337 489 1337 c 256
 541 1337 579 1321 626 1321 c 256
 654 1321 671 1347 671 1374 c 256
 671 1394 661 1413 634 1419 c 256
 579 1435 527 1444 479 1444 c 256
 346 1444 255 1361 255 1110 c 258
 255 986 l 257
 99 986 l 258
 64 986 46 961 46 935 c 256
 46 909 63 880 99 880 c 258
 255 880 l 257
 255 58 l 258
 255 20 284 1 311 1 c 256
905 1258 m 256
 966 1258 995 1298 995 1338 c 256
 995 1377 966 1418 905 1418 c 256
 845 1418 814 1378 814 1338 c 256
 814 1298 845 1258 905 1258 c 256
EndSplineSet
EndChar

StartChar: five
Encoding: 21 53 218
Width: 1128
VWidth: 0
GlyphClass: 2
Flags: W
PickledData: "(dp1
S'com.typemytype.robofont.layerData'
p2
(dp3
S'b'
(dp4
S'name'
p5
S'five'
p6
sS'lib'
p7
(dp8
sS'unicodes'
p9
(tsS'width'
p10
I1160
sS'contours'
p11
(tsS'components'
p12
(tsS'anchors'
p13
(tsss."
LayerCount: 2
Fore
SplineSet
595 -22 m 256
 883 -22 1055 157 1055 429 c 256
 1055 685 907 883 624 883 c 256
 397 883 290 728 290 728 c 257
 293 1299 l 257
 909 1299 l 258
 948 1299 966 1316 966 1345 c 256
 966 1373 948 1393 909 1393 c 258
 247 1393 l 258
 210 1393 193 1365 193 1340 c 258
 193 643 l 258
 193 620 228 602 259 602 c 256
 277 602 294 608 302 624 c 256
 362 731 512 786 622 786 c 256
 814 786 936 632 936 431 c 256
 936 217 826 78 594 78 c 256
 445 78 334 145 263 220 c 256
 256 229 245 233 234 233 c 256
 206 233 173 208 173 180 c 256
 173 170 177 158 188 148 c 256
 326 20 445 -22 595 -22 c 256
EndSplineSet
EndChar

StartChar: uniFB02
Encoding: 484 64258 220
Width: 1131
VWidth: 0
GlyphClass: 2
Flags: W
LayerCount: 2
Fore
SplineSet
311 1 m 256
 341 1 370 21 370 58 c 258
 370 880 l 257
 549 880 l 258
 584 880 601 907 601 935 c 256
 601 961 584 986 549 986 c 258
 370 986 l 257
 370 1019 l 258
 370 1263 386 1345 497 1345 c 258
 766 1345 l 257
 766 60 l 258
 766 17 793 0 821 0 c 256
 850 0 881 21 881 60 c 258
 881 1359 l 258
 881 1401 853 1418 824 1418 c 256
 793 1418 765 1357 765 1357 c 258
 762 1357 699 1443 481 1443 c 258
 476 1443 l 258
 344 1443 255 1356 255 1110 c 258
 255 986 l 257
 99 986 l 258
 64 986 46 961 46 935 c 256
 46 909 63 880 99 880 c 258
 255 880 l 257
 255 58 l 258
 255 20 284 1 311 1 c 256
EndSplineSet
EndChar

StartChar: florin
Encoding: 318 402 221
Width: 1132
VWidth: 0
GlyphClass: 2
Flags: W
LayerCount: 2
Fore
SplineSet
34 -534 m 256
 172 -534 331 -448 436 -29 c 256
 503 239 564 561 629 841 c 257
 823 841 l 258
 862 841 879 870 879 898 c 256
 879 925 862 955 823 955 c 258
 656 955 l 257
 739 1292 815 1427 952 1427 c 256
 1009 1427 1034 1450 1034 1475 c 256
 1034 1498 1010 1523 967 1523 c 256
 790 1523 619 1368 540 955 c 257
 354 955 l 258
 316 955 296 927 296 899 c 256
 296 869 316 841 354 841 c 258
 514 841 l 257
 451 561 391 240 324 -27 c 256
 238 -372 122 -428 55 -433 c 256
 -5 -438 -30 -464 -30 -489 c 256
 -30 -513 -10 -534 34 -534 c 256
EndSplineSet
EndChar

StartChar: foundryicon
Encoding: 488 -1 222
Width: 1347
VWidth: 0
GlyphClass: 2
Flags: W
LayerCount: 2
Fore
SplineSet
485 405 m 257
 485 672 l 257
 591 672 l 257
 761 523 l 257
 761 672 l 257
 867 672 l 257
 867 405 l 257
 761 405 l 257
 591 552 l 257
 591 405 l 257
 485 405 l 257
280 2 m 257
 669 278 l 257
 1066 2 l 257
 922 461 l 257
 1313 755 l 257
 828 755 l 257
 669 1215 l 257
 519 755 l 257
 34 755 l 257
 423 461 l 257
 280 2 l 257
EndSplineSet
EndChar

StartChar: four
Encoding: 20 52 223
Width: 1128
VWidth: 0
GlyphClass: 2
Flags: W
PickledData: "(dp1
S'com.typemytype.robofont.layerData'
p2
(dp3
S'b'
(dp4
S'name'
p5
S'four'
p6
sS'lib'
p7
(dp8
sS'unicodes'
p9
(tsS'width'
p10
I1160
sS'contours'
p11
(tsS'components'
p12
(tsS'anchors'
p13
(tsss."
LayerCount: 2
Fore
SplineSet
822 2 m 256
 853 2 883 22 883 61 c 258
 883 330 l 257
 1058 330 l 258
 1092 330 1109 354 1109 380 c 256
 1109 405 1092 430 1058 430 c 258
 884 430 l 257
 884 1330 l 258
 884 1391 842 1419 795 1419 c 256
 759 1419 720 1400 698 1368 c 258
 105 470 l 258
 88 445 81 422 81 402 c 256
 81 358 117 330 166 330 c 258
 758 330 l 257
 758 61 l 258
 758 22 791 2 822 2 c 256
202 430 m 257
 758 1287 l 257
 758 430 l 257
 202 430 l 257
EndSplineSet
EndChar

StartChar: uni2074
Encoding: 460 8308 224
Width: 706
VWidth: 0
GlyphClass: 2
Flags: W
LayerCount: 2
Fore
SplineSet
474 548 m 256
 494 548 513 561 513 585 c 258
 513 741 l 257
 618 741 l 258
 640 741 649 755 649 771 c 256
 649 788 637 801 618 801 c 258
 513 801 l 257
 513 1335 l 258
 513 1373 486 1388 455 1388 c 256
 435 1388 410 1377 398 1359 c 258
 41 826 l 258
 33 815 29 804 29 792 c 256
 29 767 48 741 77 741 c 258
 434 741 l 257
 434 585 l 258
 434 561 453 548 474 548 c 256
96 803 m 257
 434 1308 l 257
 434 803 l 257
 96 803 l 257
EndSplineSet
EndChar

StartChar: fraction
Encoding: 459 8260 225
Width: 565
VWidth: 0
GlyphClass: 2
Flags: W
LayerCount: 2
Fore
SplineSet
33 -79 m 256
 58 -79 82 -66 93 -34 c 258
 586 1452 l 258
 589 1463 591 1471 591 1476 c 256
 591 1511 560 1532 529 1532 c 256
 503 1532 477 1518 468 1488 c 258
 -21 1 l 258
 -23 -10 -26 -18 -26 -23 c 256
 -26 -58 3 -79 33 -79 c 256
EndSplineSet
EndChar

StartChar: g
Encoding: 71 103 226
Width: 1144
VWidth: 0
GlyphClass: 2
Flags: W
PickledData: "(dp1
S'b'
(dp2
sS'anchors'
p3
(tsS'lib'
p4
(dp5
sS'unicodes'
p6
(tsS'width'
p7
I1207
sS'contours'
p8
(tsS'components'
p9
(tsS'com.typemytype.robofont.layerData'
p10
(dp11
S'b'
(dp12
S'name'
p13
S'g'
sg4
(dp14
sg6
(tsg7
I1167
sg8
(tsg9
(tsg3
(tsssg13
S'g'
s."
AnchorPoint: "top" 512 985 basechar 0
LayerCount: 2
Fore
SplineSet
543 -399 m 256
 823 -399 986 -267 986 -12 c 258
 986 933 l 258
 986 967 962 985 933 985 c 256
 906 985 878 966 878 931 c 258
 878 773 l 257
 822 922 696 1013 523 1013 c 256
 232 1013 90 761 90 489 c 256
 90 255 220 0 526 0 c 256
 713 0 832 124 871 251 c 257
 871 0 l 258
 871 -202 786 -310 537 -310 c 256
 403 -310 290 -274 244 -255 c 256
 240 -254 236 -253 232 -253 c 256
 208 -253 189 -276 189 -300 c 256
 189 -318 199 -335 226 -345 c 256
 281 -364 378 -399 543 -399 c 256
545 81 m 256
 351 81 205 213 205 495 c 256
 205 745 315 932 541 932 c 256
 796 932 870 689 870 501 c 256
 870 260 727 81 545 81 c 256
EndSplineSet
EndChar

StartChar: germandbls
Encoding: 158 223 232
Width: 1245
VWidth: 0
GlyphClass: 2
Flags: W
LayerCount: 2
Fore
SplineSet
810 -30 m 256
 1003 -30 1160 92 1160 300 c 256
 1160 606 716 593 716 789 c 256
 716 888 959 988 959 1144 c 256
 959 1343 781 1448 594 1448 c 256
 309 1448 181 1265 181 1002 c 258
 181 55 l 258
 181 18 208 0 236 0 c 256
 265 0 296 19 296 55 c 258
 296 959 l 258
 299 1132 353 1342 580 1342 c 256
 702 1342 833 1281 833 1148 c 256
 833 1013 591 945 591 777 c 256
 591 519 1033 524 1033 296 c 256
 1033 149 944 76 807 76 c 256
 723 76 664 112 622 179 c 256
 610 196 592 204 576 204 c 256
 547 204 518 182 518 148 c 256
 518 137 521 125 528 112 c 256
 583 17 679 -30 810 -30 c 256
EndSplineSet
EndChar

StartChar: grave
Encoding: 64 96 233
Width: 569
VWidth: 0
GlyphClass: 4
Flags: W
AnchorPoint: "top" 446 1040 mark 0
LayerCount: 2
Fore
SplineSet
471 1192 m 256
 490 1192 499 1203 499 1220 c 256
 499 1229 499 1237 491 1246 c 258
 198 1553 l 258
 188 1560 181 1561 172 1561 c 258
 166 1561 l 258
 128 1561 90 1520 90 1485 c 256
 90 1472 97 1459 109 1449 c 258
 440 1203 l 258
 452 1195 460 1192 471 1192 c 256
EndSplineSet
EndChar

StartChar: greater
Encoding: 30 62 234
Width: 1356
VWidth: 0
GlyphClass: 2
Flags: W
PickledData: "(dp1
S'com.typemytype.robofont.layerData'
p2
(dp3
S'b'
(dp4
S'name'
p5
S'less'
p6
sS'lib'
p7
(dp8
sS'unicodes'
p9
(tsS'width'
p10
I1340
sS'contours'
p11
(tsS'components'
p12
(tsS'anchors'
p13
(tsss."
LayerCount: 2
Fore
SplineSet
239 34 m 258
 1160 449 l 258
 1182 460 1192 476 1192 492 c 256
 1192 506 1184 520 1166 528 c 258
 243 925 l 258
 236 928 229 930 222 930 c 256
 196 930 176 908 176 887 c 256
 176 874 184 862 202 854 c 258
 1052 492 l 257
 199 108 l 258
 186 102 180 90 180 76 c 256
 180 54 196 30 220 30 c 256
 226 30 232 31 239 34 c 258
EndSplineSet
EndChar

StartChar: greaterequal
Encoding: 480 8805 235
Width: 1157
VWidth: 0
GlyphClass: 2
Flags: W
LayerCount: 2
Fore
SplineSet
149 205 m 256
 157 205 164 207 174 210 c 258
 1075 597 l 258
 1113 615 1129 638 1129 665 c 256
 1129 691 1113 715 1077 730 c 258
 172 1138 l 258
 163 1142 154 1144 146 1144 c 256
 114 1144 91 1115 91 1087 c 256
 91 1066 101 1050 124 1039 c 258
 953 666 l 257
 126 314 l 258
 102 304 92 285 92 265 c 256
 92 233 118 205 149 205 c 256
152 18 m 258
 1001 18 l 258
 1034 18 1049 41 1049 65 c 256
 1049 87 1034 111 1001 111 c 258
 152 111 l 258
 122 111 104 88 104 64 c 256
 104 42 122 18 152 18 c 258
EndSplineSet
EndChar

StartChar: guillemotleft
Encoding: 106 171 236
Width: 1134
VWidth: 0
GlyphClass: 2
Flags: W
LayerCount: 2
Fore
SplineSet
469 148 m 256
 487 148 506 163 506 183 c 256
 507 190 506 197 504 201 c 258
 339 549 l 257
 507 900 l 258
 508 903 506 907 506 910 c 256
 506 932 489 948 467 948 c 256
 450 948 429 937 416 911 c 258
 218 549 l 257
 421 176 l 258
 434 152 454 148 469 148 c 256
820 148 m 256
 839 148 858 165 858 185 c 256
 859 192 858 197 857 201 c 258
 691 549 l 257
 859 900 l 258
 860 902 859 904 859 910 c 256
 859 932 840 948 818 948 c 256
 802 948 782 938 768 911 c 258
 570 549 l 257
 773 176 l 258
 785 152 806 148 820 148 c 256
EndSplineSet
EndChar

StartChar: guillemotright
Encoding: 122 187 237
Width: 1134
VWidth: 0
GlyphClass: 2
Flags: W
LayerCount: 2
Fore
SplineSet
309 148 m 256
 323 148 345 152 356 176 c 258
 559 549 l 257
 356 920 l 258
 344 941 322 948 310 948 c 256
 288 948 270 931 270 909 c 256
 270 906 269 903 271 899 c 258
 439 549 l 257
 271 197 l 258
 269 192 270 188 270 186 c 256
 270 166 287 148 309 148 c 256
662 148 m 256
 675 148 697 152 709 176 c 258
 912 549 l 257
 709 920 l 258
 697 941 676 948 663 948 c 256
 641 948 623 931 623 909 c 256
 623 906 622 903 624 900 c 258
 792 549 l 257
 624 196 l 258
 622 192 623 188 623 185 c 256
 623 165 640 148 662 148 c 256
EndSplineSet
EndChar

StartChar: guilsinglleft
Encoding: 457 8249 238
Width: 565
VWidth: 0
GlyphClass: 2
Flags: W
LayerCount: 2
Fore
SplineSet
373 146 m 256
 396 146 412 161 412 185 c 256
 412 193 410 200 408 206 c 258
 247 548 l 257
 408 890 l 258
 412 897 412 904 412 909 c 256
 412 933 396 950 373 950 c 256
 354 950 333 938 320 912 c 258
 122 548 l 257
 320 184 l 258
 336 155 354 146 373 146 c 256
EndSplineSet
EndChar

StartChar: guilsinglright
Encoding: 458 8250 239
Width: 565
VWidth: 0
GlyphClass: 2
Flags: W
LayerCount: 2
Fore
SplineSet
193 146 m 256
 211 146 232 155 246 184 c 258
 445 548 l 257
 246 912 l 258
 232 938 209 950 193 950 c 256
 170 950 152 933 152 909 c 256
 152 903 154 897 158 890 c 258
 321 548 l 257
 158 206 l 258
 154 197 152 191 152 186 c 256
 152 163 170 146 193 146 c 256
EndSplineSet
EndChar

StartChar: h
Encoding: 72 104 240
Width: 1126
VWidth: 0
GlyphClass: 2
Flags: W
PickledData: "(dp1
S'b'
(dp2
sS'anchors'
p3
(tsS'lib'
p4
(dp5
sS'unicodes'
p6
(tsS'y'
I113
sS'width'
p7
I1195
sS'points'
p8
(dp9
sS'contours'
p10
(dp11
sS'components'
p12
(tsS'segmentType'
p13
S'curve'
p14
sS'x'
I137
sS'com.typemytype.robofont.layerData'
p15
(dp16
S'b'
(dp17
S'name'
p18
S'h'
sg4
(dp19
sg6
(tsg7
I1148
sg10
(tsg12
(tsg3
(tsssg18
S'h'
s."
LayerCount: 2
Fore
SplineSet
227 0 m 256
 255 0 286 17 286 54 c 258
 286 584 l 258
 286 819 435 909 617 909 c 256
 772 909 860 831 860 652 c 258
 860 54 l 258
 860 17 887 0 917 0 c 256
 945 0 975 17 975 54 c 258
 975 634 l 258
 975 912 818 1013 625 1013 c 256
 495 1013 335 944 286 798 c 257
 286 1367 l 258
 286 1402 259 1418 230 1418 c 256
 202 1418 171 1400 171 1367 c 258
 171 54 l 258
 171 17 199 0 227 0 c 256
EndSplineSet
EndChar

StartChar: hungarumlaut
Encoding: 406 733 243
Width: 569
VWidth: 0
GlyphClass: 4
Flags: W
AnchorPoint: "top" 174 1040 mark 0
LayerCount: 2
Fore
SplineSet
32 1100 m 256
 42 1100 56 1103 70 1115 c 258
 396 1357 l 258
 409 1366 414 1379 414 1393 c 256
 414 1432 377 1470 338 1470 c 256
 323 1470 310 1463 297 1452 c 258
 18 1159 l 258
 7 1148 4 1139 4 1128 c 256
 4 1112 14 1100 32 1100 c 256
309 1100 m 256
 318 1100 330 1103 344 1115 c 258
 670 1357 l 258
 684 1366 690 1380 690 1395 c 256
 690 1432 651 1470 612 1470 c 256
 597 1470 584 1463 571 1452 c 258
 292 1159 l 258
 282 1148 280 1139 280 1128 c 256
 280 1113 290 1100 309 1100 c 256
EndSplineSet
EndChar

StartChar: hyphen
Encoding: 13 45 244
Width: 724
VWidth: 0
GlyphClass: 2
Flags: W
LayerCount: 2
Fore
SplineSet
103 484 m 258
 623 484 l 258
 663 484 682 496 682 523 c 256
 682 552 662 566 623 566 c 258
 103 566 l 258
 64 566 42 552 42 523 c 256
 42 496 62 484 103 484 c 258
EndSplineSet
EndChar

StartChar: i
Encoding: 73 105 245
Width: 487
VWidth: 0
GlyphClass: 2
Flags: W
LayerCount: 2
Fore
SplineSet
249 0 m 256
 278 0 309 21 309 60 c 258
 309 927 l 258
 309 966 280 985 253 985 c 256
 225 985 194 966 194 927 c 258
 194 60 l 258
 194 17 221 0 249 0 c 256
250 1254 m 256
 304 1254 341 1288 341 1338 c 256
 341 1388 305 1422 251 1422 c 256
 198 1422 161 1388 161 1338 c 256
 161 1288 196 1254 250 1254 c 256
EndSplineSet
EndChar

StartChar: infinity
Encoding: 475 8734 254
Width: 1584
VWidth: 0
GlyphClass: 2
Flags: W
LayerCount: 2
Fore
SplineSet
407 274 m 256
 573 274 688 397 795 520 c 257
 938 363 1040 274 1171 274 c 256
 1330 274 1479 399 1479 592 c 258
 1479 593 l 258
 1479 774 1361 899 1184 899 c 256
 1014 899 909 774 801 650 c 257
 693 779 574 899 421 899 c 256
 239 899 104 765 104 584 c 256
 104 411 244 274 407 274 c 256
418 356 m 258
 280 356 197 460 197 586 c 256
 197 710 272 819 404 819 c 256
 556 819 654 692 747 581 c 257
 659 492 555 356 420 356 c 258
 418 356 l 258
1181 356 m 256
 1067 356 985 439 847 589 c 257
 919 663 1034 819 1176 819 c 258
 1179 819 l 258
 1297 819 1390 733 1390 586 c 256
 1390 472 1315 356 1181 356 c 256
EndSplineSet
EndChar

StartChar: integral
Encoding: 476 8747 255
Width: 708
VWidth: 0
GlyphClass: 2
Flags: W
LayerCount: 2
Fore
SplineSet
151 -323 m 256
 290 -323 427 -237 427 184 c 256
 427 506 401 906 401 1221 c 256
 401 1519 454 1639 578 1639 c 256
 623 1639 651 1661 651 1688 c 256
 651 1711 626 1734 569 1734 c 256
 393 1734 284 1596 284 1232 c 256
 284 919 312 510 312 186 c 256
 312 -188 212 -221 131 -221 c 256
 89 -221 63 -244 63 -270 c 256
 63 -296 92 -323 151 -323 c 256
EndSplineSet
EndChar

StartChar: j
Encoding: 74 106 258
Width: 482
VWidth: 0
GlyphClass: 2
Flags: W
LayerCount: 2
Fore
SplineSet
24 -375 m 256
 312 -375 315 -292 315 -59 c 258
 315 -45 l 257
 315 927 l 258
 315 966 286 985 259 985 c 256
 230 985 199 966 199 927 c 258
 199 -91 l 258
 199 -261 180 -274 29 -274 c 256
 -5 -274 -22 -300 -22 -326 c 256
 -22 -351 -6 -375 24 -375 c 256
257 1254 m 256
 311 1254 348 1288 348 1338 c 256
 348 1388 312 1422 258 1422 c 256
 204 1422 167 1388 167 1338 c 256
 167 1288 202 1254 257 1254 c 256
EndSplineSet
EndChar

StartChar: k
Encoding: 75 107 260
Width: 951
VWidth: 0
GlyphClass: 2
Flags: W
PickledData: "(dp1
S'com.typemytype.robofont.layerData'
p2
(dp3
S'b'
(dp4
S'name'
p5
S'k'
sS'lib'
p6
(dp7
sS'unicodes'
p8
(tsS'width'
p9
I984
sS'contours'
p10
((dp11
S'points'
p12
((dp13
S'segmentType'
p14
S'line'
p15
sS'x'
I318
sS'smooth'
p16
I0
sS'y'
I536
s(dp17
g14
S'line'
p18
sS'x'
I793
sg16
I1
sS'y'
I27
s(dp19
S'y'
I9
sS'x'
I809
sg16
I0
s(dp20
S'y'
I1
sS'x'
I828
sg16
I0
s(dp21
g14
S'curve'
p22
sS'x'
I845
sg16
I1
sS'y'
I1
s(dp23
S'y'
I1
sS'x'
I883
sg16
I0
s(dp24
S'y'
I33
sS'x'
I922
sg16
I0
s(dp25
g14
S'curve'
p26
sS'x'
I922
sg16
I1
sS'y'
I71
s(dp27
S'y'
I84
sS'x'
I922
sg16
I0
s(dp28
S'y'
I99
sS'x'
I918
sg16
I0
s(dp29
g14
S'curve'
p30
sS'x'
I906
sg16
I1
sS'y'
I112
s(dp31
g14
S'line'
p32
sS'x'
I492
sg16
I0
sS'y'
I554
s(dp33
g14
S'line'
p34
sS'x'
I873
sg16
I1
sS'y'
I889
s(dp35
S'y'
I902
sS'x'
I888
sg16
I0
s(dp36
S'y'
I918
sS'x'
I894
sg16
I0
s(dp37
g14
S'curve'
p38
sS'x'
I894
sg16
I1
sS'y'
I933
s(dp39
S'y'
I968
sS'x'
I894
sg16
I0
s(dp40
S'y'
I1002
sS'x'
I858
sg16
I0
s(dp41
g14
S'curve'
p42
sS'x'
I821
sg16
I1
sS'y'
I1002
s(dp43
S'y'
I1002
sS'x'
I802
sg16
I0
s(dp44
S'y'
I994
sS'x'
I785
sg16
I0
s(dp45
g14
S'curve'
p46
sS'x'
I770
sg16
I0
sS'y'
I979
s(dp47
g14
S'line'
p48
sS'x'
I318
sg16
I0
sS'y'
I574
stp49
stp50
sS'components'
p51
(tsS'anchors'
p52
(tsss."
AnchorPoint: "bot" 494 0 basechar 0
LayerCount: 2
Fore
SplineSet
226 0 m 256
 256 0 286 21 286 59 c 258
 286 556 l 257
 777 24 l 258
 789 10 803 5 816 5 c 256
 844 5 868 30 868 58 c 256
 868 70 863 82 853 93 c 258
 414 561 l 257
 834 916 l 258
 849 928 855 942 855 954 c 256
 855 981 826 1003 799 1003 c 256
 790 1003 781 1000 774 995 c 258
 286 577 l 257
 286 1359 l 258
 286 1399 256 1418 229 1418 c 256
 201 1418 170 1399 170 1359 c 258
 170 59 l 258
 170 16 198 0 226 0 c 256
EndSplineSet
EndChar

StartChar: kgreenlandic
Encoding: 247 312 262
Width: 946
VWidth: 0
GlyphClass: 2
Flags: W
PickledData: "(dp1
S'com.typemytype.robofont.layerData'
p2
(dp3
S'b'
(dp4
S'name'
p5
S'kgreenlandic'
p6
sS'lib'
p7
(dp8
sS'unicodes'
p9
(tsS'width'
p10
I1047
sS'contours'
p11
(tsS'components'
p12
(tsS'anchors'
p13
(tsss."
LayerCount: 2
Fore
SplineSet
221 0 m 256
 251 0 281 21 281 59 c 258
 281 521 l 257
 772 24 l 258
 785 11 798 6 811 6 c 256
 839 6 864 32 864 59 c 256
 864 71 860 83 849 93 c 258
 409 526 l 257
 829 916 l 258
 843 929 849 943 849 955 c 256
 849 982 821 1004 795 1004 c 256
 786 1004 777 1002 769 995 c 258
 281 542 l 257
 281 941 l 258
 281 980 252 999 224 999 c 256
 196 999 165 980 165 941 c 258
 165 59 l 258
 165 16 193 0 221 0 c 256
EndSplineSet
EndChar

StartChar: l
Encoding: 76 108 263
Width: 482
VWidth: 0
GlyphClass: 2
Flags: W
PickledData: "(dp1
S'com.typemytype.robofont.layerData'
p2
(dp3
S'b'
(dp4
S'name'
p5
S'l'
sS'lib'
p6
(dp7
sS'unicodes'
p8
(tsS'width'
p9
I511
sS'contours'
p10
(tsS'components'
p11
(tsS'anchors'
p12
(tsss."
AnchorPoint: "bot" 255 0 basechar 0
AnchorPoint: "caron.alt" 293 962 basechar 0
AnchorPoint: "top" 360 1419 basechar 0
LayerCount: 2
Fore
SplineSet
254 0 m 256
 283 0 314 21 314 60 c 258
 314 1359 l 258
 314 1399 285 1418 258 1418 c 256
 230 1418 199 1399 199 1359 c 258
 199 60 l 258
 199 17 225 0 254 0 c 256
EndSplineSet
EndChar

StartChar: less
Encoding: 28 60 268
Width: 1356
VWidth: 0
GlyphClass: 2
Flags: W
PickledData: "(dp1
S'com.typemytype.robofont.layerData'
p2
(dp3
S'b'
(dp4
S'name'
p5
S'less'
p6
sS'lib'
p7
(dp8
sS'unicodes'
p9
(tsS'width'
p10
I1340
sS'contours'
p11
(tsS'components'
p12
(tsS'anchors'
p13
(tsss."
LayerCount: 2
Fore
SplineSet
1129 34 m 258
 1136 31 1142 30 1148 30 c 256
 1172 30 1188 54 1188 76 c 256
 1188 90 1182 102 1169 108 c 258
 316 492 l 257
 1166 854 l 258
 1184 862 1192 874 1192 887 c 256
 1192 908 1172 930 1146 930 c 256
 1139 930 1132 928 1125 925 c 258
 202 528 l 258
 184 520 176 506 176 492 c 256
 176 476 186 460 208 449 c 258
 1129 34 l 258
EndSplineSet
EndChar

StartChar: lessequal
Encoding: 479 8804 269
Width: 1157
VWidth: 0
GlyphClass: 2
Flags: W
LayerCount: 2
Fore
SplineSet
1029 192 m 256
 1062 192 1083 223 1083 251 c 256
 1083 272 1076 288 1051 299 c 258
 223 672 l 257
 1049 1023 l 258
 1073 1034 1083 1054 1083 1072 c 256
 1083 1103 1061 1132 1025 1132 c 256
 1017 1132 1009 1130 1001 1127 c 258
 101 740 l 258
 63 722 46 699 46 673 c 256
 46 645 61 623 97 608 c 258
 1003 199 l 258
 1011 194 1020 192 1029 192 c 256
154 18 m 258
 1003 18 l 258
 1034 18 1050 42 1050 65 c 256
 1050 88 1035 111 1003 111 c 258
 154 111 l 258
 122 111 106 88 106 64 c 256
 106 42 123 18 154 18 c 258
EndSplineSet
EndChar

StartChar: logicalnot
Encoding: 107 172 270
Width: 1355
VWidth: 0
GlyphClass: 2
Flags: W
LayerCount: 2
Fore
SplineSet
1129 226 m 256
 1159 226 1190 245 1190 283 c 258
 1190 710 l 258
 1190 741 1159 771 1128 771 c 258
 219 771 l 258
 182 771 167 742 167 711 c 256
 167 682 182 652 219 652 c 258
 1069 652 l 257
 1069 283 l 258
 1069 245 1099 226 1129 226 c 256
EndSplineSet
EndChar

StartChar: lozenge
Encoding: 481 9674 271
Width: 1151
VWidth: 0
GlyphClass: 2
Flags: W
LayerCount: 2
Fore
SplineSet
574 -80 m 256
 592 -80 610 -69 623 -44 c 258
 1038 710 l 257
 614 1490 l 258
 606 1504 595 1505 584 1505 c 258
 576 1505 l 258
 562 1505 542 1497 532 1478 c 258
 115 710 l 257
 537 -67 l 258
 543 -79 550 -81 559 -81 c 256
 564 -81 569 -80 574 -80 c 256
573 57 m 257
 227 714 l 257
 570 1359 l 257
 577 1359 l 257
 922 709 l 257
 579 57 l 257
 573 57 l 257
EndSplineSet
EndChar

StartChar: lslash
Encoding: 257 322 272
Width: 478
VWidth: 0
GlyphClass: 2
Flags: HW
LayerCount: 2
Fore
SplineSet
258 0 m 0
 287 0 318 21 318 60 c 2
 318 773.666666667 l 1
 437 853 l 2
 449.638506939 860.583104163 454.898582172 872.744171434 454.898582172 885.670268336 c 0
 454.898582172 912.204362679 432.733687134 941.962137432 406.72744753 941.962137432 c 0
 400.294237519 941.962137432 393.62596487 940.141175816 387 936 c 2
 318 889.755319149 l 1
 318 1359 l 2
 318 1399 289 1418 262 1418 c 0
 234 1418 203 1399 203 1359 c 2
 203 812.680851064 l 1
 105 747 l 2
 89.6383234546 737.060214092 83.2611316675 722.510743336 83.2611316675 707.955826519 c 0
 83.2611316675 682.060308953 103.447547427 656.147552382 129.136714977 656.147552382 c 0
 136.426541725 656.147552382 144.159481253 658.234194487 152 663 c 2
 203 697 l 1
 203 60 l 2
 203 17 229 0 258 0 c 0
EndSplineSet
EndChar

StartChar: m
Encoding: 77 109 273
Width: 1822
VWidth: 0
GlyphClass: 2
Flags: W
PickledData: "(dp1
S'b'
(dp2
sS'anchors'
p3
(tsS'lib'
p4
(dp5
sS'unicodes'
p6
(tsS'width'
p7
I1877
sS'contours'
p8
(tsS'components'
p9
(tsS'com.typemytype.robofont.layerData'
p10
(dp11
S'b'
(dp12
S'name'
p13
S'm'
sg4
(dp14
sg6
(tsg7
I1838
sg8
(tsg9
(tsg3
(tsssg13
S'm'
s."
AnchorPoint: "top" 932 968 basechar 0
LayerCount: 2
Fore
SplineSet
228 0 m 256
 258 0 288 16 288 53 c 258
 288 583 l 258
 288 817 421 933 617 933 c 256
 770 933 861 833 861 590 c 258
 861 54 l 258
 861 17 888 0 917 0 c 256
 945 0 976 17 976 54 c 258
 976 604 l 258
 976 852 1139 933 1302 933 c 256
 1461 933 1550 835 1550 647 c 258
 1550 53 l 258
 1550 16 1578 0 1607 0 c 256
 1635 0 1665 16 1665 53 c 258
 1665 634 l 258
 1665 911 1493 1013 1317 1013 c 256
 1127 1013 995 934 944 765 c 257
 899 954 764 1013 618 1013 c 256
 457 1013 329 921 288 803 c 257
 288 935 l 258
 288 969 257 985 230 985 c 256
 202 985 171 967 171 934 c 258
 171 53 l 258
 171 16 199 0 228 0 c 256
EndSplineSet
EndChar

StartChar: macron
Encoding: 110 175 274
Width: 569
VWidth: 0
GlyphClass: 4
Flags: W
AnchorPoint: "mid" 288 1277 mark 0
AnchorPoint: "top" 283 1040 mark 0
LayerCount: 2
Fore
SplineSet
59 1239 m 258
 516 1239 l 258
 555 1239 574 1254 574 1286 c 256
 574 1315 555 1333 516 1333 c 258
 59 1333 l 258
 18 1333 -2 1315 -2 1286 c 256
 -2 1254 18 1239 59 1239 c 258
EndSplineSet
EndChar

StartChar: minus
Encoding: 471 8722 276
Width: 656
VWidth: 0
GlyphClass: 2
Flags: W
LayerCount: 2
Fore
SplineSet
87 468 m 258
 566 468 l 258
 604 468 622 497 622 525 c 256
 622 552 604 582 566 582 c 258
 87 582 l 258
 48 582 29 553 29 526 c 256
 29 498 48 468 87 468 c 258
EndSplineSet
EndChar

StartChar: mu
Encoding: 116 181 277
Width: 1136
VWidth: 0
GlyphClass: 2
Flags: W
LayerCount: 2
Fore
SplineSet
222 -235 m 256
 250 -235 281 -216 281 -177 c 258
 281 46 l 257
 347 -10 432 -30 521 -30 c 256
 657 -30 797 38 854 154 c 257
 854 53 l 258
 854 18 882 0 911 0 c 256
 939 0 970 19 970 53 c 258
 970 933 l 258
 970 970 942 986 914 986 c 256
 885 986 854 967 854 933 c 258
 854 385 l 257
 840 173 699 67 529 67 c 256
 402 67 281 152 281 339 c 258
 281 932 l 258
 281 969 252 985 224 985 c 256
 195 985 166 969 166 932 c 258
 166 -177 l 258
 166 -219 192 -235 222 -235 c 256
EndSplineSet
EndChar

StartChar: multiply
Encoding: 150 215 278
Width: 1355
VWidth: 0
GlyphClass: 2
Flags: W
LayerCount: 2
Fore
SplineSet
360 117 m 256
 376 117 390 125 400 134 c 258
 676 410 l 257
 942 146 l 258
 953 136 967 130 979 129 c 256
 1014 129 1041 159 1041 194 c 256
 1041 208 1038 221 1026 231 c 258
 761 495 l 257
 1038 773 l 258
 1050 786 1056 801 1056 814 c 256
 1056 844 1027 871 997 871 c 256
 982 871 969 866 956 853 c 258
 680 577 l 257
 413 843 l 258
 402 854 391 860 375 860 c 256
 341 860 311 829 311 797 c 256
 311 781 318 769 329 758 c 258
 595 492 l 257
 318 215 l 258
 305 202 300 186 300 174 c 256
 300 144 329 117 360 117 c 256
EndSplineSet
EndChar

StartChar: n
Encoding: 78 110 279
Width: 1132
VWidth: 0
GlyphClass: 2
Flags: W
PickledData: "(dp1
S'b'
(dp2
sS'anchors'
p3
(tsS'lib'
p4
(dp5
sS'unicodes'
p6
(tsS'y'
I113
sS'width'
p7
I1195
sS'points'
p8
(dp9
sS'contours'
p10
(dp11
sS'components'
p12
(tsS'segmentType'
p13
S'curve'
p14
sS'x'
I137
sS'com.typemytype.robofont.layerData'
p15
(dp16
S'b'
(dp17
S'name'
p18
S'n'
sg4
(dp19
sg6
(tsg7
I1152
sg10
(tsg12
(tsg3
(tsssg18
S'n'
s."
AnchorPoint: "bot" 566 0 basechar 0
AnchorPoint: "top" 614 991 basechar 0
LayerCount: 2
Fore
SplineSet
227 0 m 256
 255 0 287 19 287 52 c 258
 287 627 l 261
 308 829 427 932 597 932 c 260
 784 932 860 819 860 622 c 262
 860 52 l 258
 860 16 889 0 918 0 c 256
 946 0 975 16 975 52 c 258
 975 620 l 262
 975 896 851 1013 616 1013 c 260
 468 1013 328 937 287 792 c 261
 287 930 l 262
 287 966 257 983 230 983 c 260
 202 983 171 967 171 929 c 262
 171 52 l 258
 171 16 199 0 227 0 c 256
EndSplineSet
EndChar

StartChar: nine
Encoding: 25 57 284
Width: 1128
VWidth: 0
GlyphClass: 2
Flags: W
PickledData: "(dp1
S'com.typemytype.robofont.layerData'
p2
(dp3
S'b'
(dp4
S'name'
p5
S'nine'
p6
sS'lib'
p7
(dp8
sS'unicodes'
p9
(tsS'width'
p10
I1160
sS'contours'
p11
(tsS'components'
p12
(tsS'anchors'
p13
(tsss."
LayerCount: 2
Fore
SplineSet
103 944 m 256
 103 681 249 491 532 491 c 256
 752 491 882 657 901 774 c 257
 901 375 844 78 489 78 c 256
 417 78 329 94 239 141 c 256
 229 147 220 149 211 149 c 256
 183 149 164 124 164 98 c 256
 164 82 171 65 189 55 c 256
 272 11 375 -22 488 -22 c 256
 1005 -22 1027 513 1027 779 c 256
 1027 1088 939 1412 544 1412 c 256
 268 1412 103 1203 103 944 c 256
885 941 m 256
 885 737 761 581 533 581 c 256
 319 581 225 757 225 942 c 256
 225 1138 331 1314 554 1314 c 256
 792 1314 885 1114 885 941 c 256
EndSplineSet
EndChar

StartChar: notequal
Encoding: 478 8800 285
Width: 1158
VWidth: 0
GlyphClass: 2
Flags: W
LayerCount: 2
Fore
SplineSet
329 5 m 256
 353 5 372 14 386 42 c 258
 513 304 l 257
 1038 304 l 258
 1076 304 1097 333 1097 363 c 256
 1097 391 1076 419 1038 419 c 258
 569 419 l 257
 697 684 l 257
 1038 684 l 258
 1077 684 1096 712 1096 740 c 256
 1096 771 1075 799 1038 799 c 258
 753 799 l 257
 848 993 l 258
 852 1003 856 1013 856 1024 c 256
 856 1058 825 1080 794 1080 c 256
 771 1080 747 1069 735 1043 c 258
 618 799 l 257
 134 799 l 258
 96 799 77 770 77 743 c 256
 77 712 98 684 134 684 c 258
 562 684 l 257
 435 419 l 257
 134 419 l 258
 95 419 76 390 76 363 c 256
 76 333 96 304 134 304 c 258
 379 304 l 257
 278 91 l 258
 270 81 270 70 270 60 c 256
 270 27 299 5 329 5 c 256
EndSplineSet
EndChar

StartChar: numbersign
Encoding: 3 35 287
Width: 1132
VWidth: 0
GlyphClass: 2
Flags: W
PickledData: "(dp1
S'com.typemytype.robofont.layerData'
p2
(dp3
S'b'
(dp4
S'name'
p5
S'numbersign'
p6
sS'lib'
p7
(dp8
sS'unicodes'
p9
(tsS'width'
p10
I1169
sS'contours'
p11
(tsS'components'
p12
(tsS'anchors'
p13
(tsss."
LayerCount: 2
Fore
SplineSet
274 467 m 257
 252 321 205 10 205 -9 c 256
 205 -46 236 -57 264 -57 c 256
 291 -57 321 -39 327 -2 c 258
 397 467 l 257
 679 467 l 257
 613 11 l 258
 611 4 611 -2 611 -8 c 256
 611 -45 642 -57 670 -57 c 256
 698 -57 726 -39 733 -2 c 258
 802 467 l 257
 963 467 l 258
 1002 467 1022 496 1022 524 c 256
 1022 553 1001 582 963 582 c 258
 820 582 l 257
 862 866 l 257
 1020 866 l 258
 1059 866 1077 894 1077 924 c 256
 1077 953 1058 983 1020 983 c 258
 879 983 l 257
 941 1400 l 258
 942 1404 943 1409 943 1413 c 256
 943 1444 910 1458 882 1458 c 256
 854 1458 824 1439 817 1403 c 258
 755 983 l 257
 474 983 l 257
 493 1113 538 1401 538 1414 c 256
 538 1446 489 1448 476 1458 c 257
 449 1458 418 1439 411 1403 c 258
 350 983 l 257
 167 983 l 258
 127 983 109 954 109 925 c 256
 109 895 129 866 167 866 c 258
 332 866 l 257
 291 582 l 257
 112 582 l 258
 72 582 54 554 54 525 c 256
 54 497 74 467 112 467 c 258
 274 467 l 257
415 582 m 257
 456 866 l 257
 738 866 l 257
 696 582 l 257
 415 582 l 257
EndSplineSet
EndChar

StartChar: o
Encoding: 79 111 288
Width: 1113
VWidth: 0
GlyphClass: 2
Flags: W
PickledData: "(dp1
S'b'
(dp2
sS'anchors'
p3
(tsS'com.typemytype.robofont.layerData'
p4
(dp5
S'b'
(dp6
S'name'
p7
S'o'
sS'lib'
p8
(dp9
sS'unicodes'
p10
(tsS'width'
p11
I1144
sS'contours'
p12
(tsS'components'
p13
(tsg3
(tsssg10
(tsg7
S'o'
sg11
I1199
sg12
(tsg13
(tsg8
(dp14
sS'com.typemytype.robofont.guides'
p15
(ts."
AnchorPoint: "top" 558 1007 basechar 0
LayerCount: 2
Fore
SplineSet
934 494 m 256
 934 238 806 56 568 56 c 256
 340 56 207 239 207 494 c 256
 207 754 342 932 570 932 c 256
 799 932 934 750 934 494 c 256
570 -25 m 256
 828 -25 1051 146 1051 494 c 256
 1051 832 834 1013 570 1013 c 256
 310 1013 90 837 90 494 c 256
 90 148 313 -25 570 -25 c 256
EndSplineSet
EndChar

StartChar: oe
Encoding: 274 339 293
Width: 1820
VWidth: 0
GlyphClass: 2
Flags: W
LayerCount: 2
Fore
SplineSet
1275 -30 m 256
 1477 -30 1650 77 1650 160 c 256
 1650 183 1633 201 1607 201 c 256
 1595 201 1580 197 1563 183 c 256
 1504 129 1407 75 1314 75 c 256
 1088 75 999 253 996 467 c 257
 1649 467 l 258
 1692 467 1707 496 1707 524 c 256
 1697 798 1577 1016 1283 1016 c 256
 1114 1016 994 915 930 775 c 257
 859 916 732 1016 546 1016 c 256
 235 1016 90 752 90 493 c 256
 90 235 235 -30 546 -30 c 256
 731 -30 856 73 927 217 c 257
 988 72 1106 -30 1275 -30 c 256
546 76 m 256
 311 76 216 312 216 493 c 256
 216 676 311 910 546 910 c 256
 777 910 867 678 867 495 c 258
 867 487 l 258
 867 307 770 76 546 76 c 256
1000 574 m 257
 1011 746 1108 910 1286 910 c 256
 1475 910 1569 762 1583 574 c 257
 1000 574 l 257
EndSplineSet
EndChar

StartChar: ogonek
Encoding: 404 731 294
Width: 569
VWidth: 0
GlyphClass: 4
Flags: W
AnchorPoint: "ogonek" 243 0 mark 0
LayerCount: 2
Fore
SplineSet
411 -419 m 257
 411 -360 l 257
 283 -360 196 -321 196 -214 c 256
 196 -161 218 -91 267 0 c 257
 219 0 l 257
 119 -117 75 -214 75 -287 c 256
 75 -383 151 -436 275 -436 c 256
 315 -436 361 -431 411 -419 c 257
EndSplineSet
EndChar

StartChar: one
Encoding: 17 49 298
Width: 1128
VWidth: 0
GlyphClass: 2
Flags: W
PickledData: "(dp1
S'com.typemytype.robofont.layerData'
p2
(dp3
S'b'
(dp4
S'name'
p5
S'one'
p6
sS'lib'
p7
(dp8
sS'unicodes'
p9
(tsS'width'
p10
I1160
sS'contours'
p11
(tsS'components'
p12
(tsS'anchors'
p13
(tsss."
LayerCount: 2
Fore
SplineSet
633 0 m 256
 667 0 697 18 697 57 c 258
 698 1360 l 258
 698 1402 669 1419 638 1419 c 258
 633 1419 l 258
 622 1419 608 1414 600 1408 c 258
 278 1197 l 258
 264 1185 257 1175 257 1161 c 256
 257 1133 281 1110 310 1110 c 256
 320 1110 328 1114 337 1119 c 258
 573 1274 l 257
 572 57 l 258
 572 18 603 0 633 0 c 256
EndSplineSet
EndChar

StartChar: onehalf
Encoding: 124 189 299
Width: 1503
VWidth: 0
GlyphClass: 2
Flags: W
LayerCount: 2
Fore
SplineSet
933 1 m 258
 1360 1 l 258
 1383 1 1395 17 1395 34 c 256
 1395 51 1382 69 1360 69 c 258
 953 69 l 257
 1091 202 1384 449 1384 642 c 256
 1384 772 1265 837 1143 837 c 256
 1046 837 920 774 920 731 c 256
 920 717 931 706 949 706 c 256
 961 706 973 709 985 718 c 256
 1021 742 1081 769 1142 769 c 256
 1221 769 1301 723 1301 638 c 256
 1301 462 939 152 813 30 c 257
 837 49 865 42 865 44 c 257
 865 19 884 1 933 1 c 258
387 551 m 256
 407 551 427 563 427 586 c 258
 427 1329 l 258
 427 1355 407 1365 390 1365 c 256
 382 1365 376 1362 368 1358 c 258
 173 1232 l 258
 167 1228 161 1222 161 1210 c 256
 161 1196 173 1179 193 1179 c 256
 198 1179 204 1181 209 1186 c 258
 350 1278 l 257
 350 586 l 258
 350 563 370 551 387 551 c 256
483 -95 m 256
 502 -95 519 -83 526 -62 c 258
 1010 1362 l 258
 1013 1368 1013 1373 1013 1380 c 256
 1013 1406 991 1422 968 1422 c 256
 948 1422 929 1411 922 1388 c 258
 442 -34 l 258
 439 -39 439 -46 439 -53 c 256
 439 -79 462 -95 483 -95 c 256
813 30 m 257
 810 27 806 24 803 21 c 257
 806 25 810 27 813 30 c 257
EndSplineSet
EndChar

StartChar: onequarter
Encoding: 123 188 300
Width: 1488
VWidth: 0
GlyphClass: 2
Flags: W
PickledData: "(dp1
S'com.typemytype.robofont.layerData'
p2
(dp3
S'b'
(dp4
S'name'
p5
S'onequarter'
p6
sS'lib'
p7
(dp8
sS'unicodes'
p9
(tsS'width'
p10
I1543
sS'contours'
p11
(tsS'components'
p12
(tsS'anchors'
p13
(tsss."
LayerCount: 2
Fore
SplineSet
1240 1 m 256
 1260 1 1279 13 1279 38 c 258
 1279 194 l 257
 1384 194 l 258
 1406 194 1416 208 1416 224 c 256
 1416 241 1403 254 1384 254 c 258
 1279 254 l 257
 1279 788 l 258
 1279 826 1252 841 1222 841 c 256
 1202 841 1177 829 1164 811 c 258
 807 279 l 258
 799 269 795 259 795 245 c 256
 795 220 814 194 844 194 c 258
 1202 194 l 257
 1202 38 l 258
 1202 13 1221 1 1240 1 c 256
387 551 m 256
 407 551 427 563 427 586 c 258
 427 1329 l 258
 427 1355 407 1365 390 1365 c 256
 382 1365 376 1362 368 1358 c 258
 173 1232 l 258
 167 1228 161 1222 161 1210 c 256
 161 1196 173 1179 193 1179 c 256
 198 1179 204 1181 209 1186 c 258
 350 1278 l 257
 350 586 l 258
 350 563 370 551 387 551 c 256
483 -95 m 256
 503 -95 518 -83 525 -62 c 258
 1009 1362 l 258
 1012 1368 1013 1373 1013 1379 c 256
 1013 1406 990 1422 967 1422 c 256
 948 1422 929 1411 922 1388 c 258
 441 -34 l 258
 438 -39 438 -45 438 -52 c 256
 438 -79 460 -95 483 -95 c 256
864 255 m 257
 1202 761 l 257
 1202 255 l 257
 864 255 l 257
EndSplineSet
EndChar

StartChar: uni00B9
Encoding: 120 185 301
Width: 681
VWidth: 0
GlyphClass: 2
Flags: W
LayerCount: 2
Fore
SplineSet
427 551 m 256
 445 551 465 563 465 586 c 258
 465 1329 l 258
 465 1355 447 1365 430 1365 c 256
 422 1365 415 1362 407 1358 c 258
 213 1232 l 258
 206 1228 201 1222 201 1210 c 256
 201 1196 213 1179 232 1179 c 256
 237 1179 243 1181 249 1186 c 258
 390 1278 l 257
 390 586 l 258
 390 563 409 551 427 551 c 256
EndSplineSet
EndChar

StartChar: ordfeminine
Encoding: 105 170 302
Width: 1021
VWidth: 0
GlyphClass: 2
Flags: W
LayerCount: 2
Fore
SplineSet
411 691 m 256
 519 691 624 745 668 836 c 257
 668 755 l 258
 667 727 691 714 713 714 c 256
 736 714 759 728 759 754 c 258
 760 1256 l 258
 760 1430 657 1509 477 1509 c 256
 367 1509 275 1475 202 1418 c 256
 191 1407 183 1397 183 1386 c 256
 183 1364 198 1344 224 1344 c 256
 232 1344 243 1345 254 1354 c 256
 316 1397 366 1426 477 1426 c 256
 592 1426 669 1385 669 1260 c 258
 669 1187 l 257
 636 1191 605 1192 575 1192 c 256
 321 1192 144 1123 144 931 c 256
 144 780 262 691 411 691 c 256
423 774 m 257
 324 777 244 824 244 929 c 256
 244 1074 404 1103 669 1103 c 257
 669 1025 l 257
 659 857 554 777 423 774 c 257
EndSplineSet
EndChar

StartChar: ordmasculine
Encoding: 121 186 303
Width: 1144
VWidth: 0
GlyphClass: 2
Flags: W
LayerCount: 2
Fore
SplineSet
551 768 m 256
 355 768 277 953 277 1098 c 256
 277 1243 355 1426 551 1426 c 256
 749 1426 827 1243 827 1098 c 256
 827 953 749 768 551 768 c 256
552 686 m 256
 807 686 927 892 927 1097 c 256
 927 1300 807 1509 552 1509 c 256
 297 1509 179 1300 179 1097 c 256
 179 892 297 686 552 686 c 256
EndSplineSet
EndChar

StartChar: oslash
Encoding: 183 248 304
Width: 1108
VWidth: 0
GlyphClass: 2
Flags: W
AnchorPoint: "top" 561 991 basechar 0
LayerCount: 2
Fore
SplineSet
751.369 884.734 m 257
 322.701 155.704 l 257
 247.747 233.863 207 352.833 207 494 c 256
 207 754 342 932 570 932 c 256
 639.495 932 700.333 915.239 751.369 884.734 c 257
934 494 m 256
 934 238.274 806.578 55.9959 568.134 55.9959 c 256
 505.209 55.9959 449.497 69.9289 401.814 95.4763 c 257
 829.086 819.491 l 257
 897.073 741.535 934 627.888 934 494 c 256
197.451 -74.0479 m 256
 197.451 -101.197 219.831 -119.801 248.163 -119.801 c 256
 264.758 -119.801 279.407 -112.189 291.13 -92.0781 c 258
 357.137 19.7719 l 257
 421.966 -10.076 494.517 -25 570 -25 c 256
 828 -25 1051 146 1051 494 c 256
 1051 680.973 984.597 819.904 880.569 906.73 c 257
 968.312 1055.41 l 258
 969.613 1058.44 968.041 1064.66 968.041 1069.8 c 256
 968.041 1096.37 944.277 1115.65 916.956 1115.65 c 256
 899.074 1115.65 881.124 1107.15 870.021 1086.53 c 258
 796.612 961.68 l 257
 728.94 995.656 651.722 1013 570 1013 c 256
 310 1013 90 837 90 494 c 256
 90 296.567 162.609 155.464 272.712 70.6888 c 257
 198.895 -54.8525 l 258
 197.121 -58.2407 197.451 -68.8073 197.451 -74.0479 c 256
EndSplineSet
EndChar

StartChar: p
Encoding: 80 112 307
Width: 1162
VWidth: 0
GlyphClass: 2
Flags: W
PickledData: "(dp1
S'b'
(dp2
sS'anchors'
p3
(tsS'lib'
p4
(dp5
sS'unicodes'
p6
(tsS'width'
p7
I1207
sS'contours'
p8
(tsS'components'
p9
(tsS'com.typemytype.robofont.layerData'
p10
(dp11
S'b'
(dp12
S'name'
p13
S'p'
sg4
(dp14
sg6
(tsg7
I1181
sg8
(tsg9
(tsg3
(tsssg13
S'p'
s."
LayerCount: 2
Fore
SplineSet
229 -377 m 256
 258 -377 287 -359 287 -325 c 258
 287 199 l 257
 339 58 481 -25 628 -25 c 256
 926 -25 1072 232 1072 489 c 256
 1072 768 943 1013 646 1013 c 256
 494 1013 351 937 287 789 c 257
 287 934 l 258
 287 946 283 983 226 983 c 256
 197 983 171 969 171 935 c 258
 171 -325 l 258
 171 -359 200 -377 229 -377 c 256
627 56 m 256
 385 56 288 275 288 489 c 256
 288 709 370 932 646 932 c 257
 885 927 957 696 957 499 c 256
 957 294 871 56 627 56 c 256
EndSplineSet
EndChar

StartChar: paragraph
Encoding: 117 182 308
Width: 1332
VWidth: 0
GlyphClass: 2
Flags: W
LayerCount: 2
Fore
SplineSet
595 -307 m 256
 627 -307 660 -286 660 -244 c 258
 660 1302 l 257
 902 1302 l 257
 902 -244 l 258
 902 -285 935 -307 968 -307 c 256
 1001 -307 1034 -285 1034 -244 c 258
 1033 1328 l 258
 1033 1370 1022 1419 941 1419 c 258
 595 1419 l 258
 308 1419 137 1282 137 1032 c 256
 137 825 322 658 529 658 c 257
 529 -244 l 258
 529 -285 562 -307 595 -307 c 256
EndSplineSet
EndChar

StartChar: parenleft
Encoding: 8 40 309
Width: 563
VWidth: 0
GlyphClass: 2
Flags: W
LayerCount: 2
Fore
SplineSet
412 -208 m 256
 433 -208 457 -192 457 -169 c 256
 457 -163 458 -161 457 -162 c 257
 354 110 291 385 291 643 c 256
 291 900 354 1175 457 1446 c 256
 458 1447 458 1447 458 1448 c 256
 458 1449 457 1451 457 1452 c 256
 457 1476 433 1494 411 1494 c 256
 407 1494 403 1495 398 1495 c 256
 391 1495 383 1493 379 1485 c 256
 265 1217 157 932 157 643 c 256
 157 360 261 83 370 -175 c 256
 382 -198 394 -208 412 -208 c 256
EndSplineSet
EndChar

StartChar: parenright
Encoding: 9 41 310
Width: 563
VWidth: 0
GlyphClass: 2
Flags: W
LayerCount: 2
Fore
SplineSet
151 -208 m 256
 169 -208 182 -197 194 -175 c 256
 303 84 406 361 406 643 c 256
 406 934 298 1218 185 1485 c 256
 180 1492 173 1494 166 1494 c 256
 161 1494 156 1493 151 1493 c 256
 130 1493 105 1476 105 1452 c 256
 105 1450 104 1448 107 1446 c 256
 209 1174 272 900 272 642 c 256
 272 386 210 113 106 -161 c 256
 105 -165 105 -167 105 -169 c 256
 105 -192 130 -208 151 -208 c 256
EndSplineSet
EndChar

StartChar: partialdiff
Encoding: 466 8706 311
Width: 1098
VWidth: 0
GlyphClass: 2
Flags: W
LayerCount: 2
Fore
SplineSet
492 -23 m 256
 825 -23 991 353 991 819 c 256
 991 1361 775 1593 484 1593 c 256
 388 1593 280 1568 169 1517 c 256
 147 1507 138 1493 138 1473 c 256
 138 1444 161 1417 190 1417 c 256
 198 1417 205 1419 210 1421 c 256
 307 1458 396 1484 476 1484 c 256
 693 1484 872 1322 872 870 c 256
 872 789 871 758 870 758 c 256
 868 758 715 963 520 963 c 256
 297 963 91 762 91 444 c 256
 91 209 219 -23 492 -23 c 256
501 82 m 258
 327 82 211 236 211 448 c 256
 211 677 361 861 537 861 c 256
 707 861 819 720 853 623 c 257
 824 336 699 82 503 82 c 258
 501 82 l 258
EndSplineSet
EndChar

StartChar: percent
Encoding: 5 37 312
Width: 2045
VWidth: 0
GlyphClass: 2
Flags: W
LayerCount: 2
Fore
SplineSet
583 -74 m 256
 588 -74 592 -75 597 -75 c 256
 605 -75 613 -73 618 -64 c 258
 1436 1357 l 258
 1437 1359 1438 1361 1438 1363 c 256
 1438 1365 1437 1368 1437 1371 c 256
 1437 1401 1415 1424 1388 1424 c 256
 1372 1424 1350 1413 1336 1388 c 258
 528 -18 l 258
 528 -19 527 -19 527 -20 c 256
 527 -22 529 -23 529 -26 c 256
 529 -54 556 -74 583 -74 c 256
569 734 m 256
 409 734 352 894 352 1019 c 256
 352 1142 407 1302 569 1302 c 256
 732 1302 787 1142 787 1019 c 256
 787 894 732 734 569 734 c 256
569 651 m 256
 776 651 893 826 893 1019 c 256
 893 1213 774 1387 569 1387 c 256
 364 1387 248 1213 248 1019 c 256
 248 828 364 651 569 651 c 256
1475 54 m 256
 1312 54 1258 215 1258 340 c 256
 1258 463 1311 623 1475 623 c 256
 1637 623 1692 465 1692 340 c 256
 1692 218 1640 54 1475 54 c 256
1475 -30 m 256
 1681 -30 1798 146 1798 340 c 256
 1798 535 1679 706 1475 706 c 256
 1271 706 1152 532 1152 340 c 256
 1152 151 1268 -30 1475 -30 c 256
EndSplineSet
EndChar

StartChar: period
Encoding: 14 46 313
Width: 565
VWidth: 0
GlyphClass: 2
Flags: W
LayerCount: 2
Fore
SplineSet
282 1 m 256
 342 1 371 40 371 79 c 256
 371 112 344 156 282 156 c 256
 222 156 193 115 193 79 c 256
 193 42 220 1 282 1 c 256
EndSplineSet
EndChar

StartChar: periodcentered
Encoding: 118 183 314
Width: 565
VWidth: 0
GlyphClass: 2
Flags: W
LayerCount: 2
Fore
SplineSet
251 442 m 256
 311 442 340 482 340 521 c 256
 340 560 311 599 251 599 c 256
 189 599 160 560 160 521 c 256
 160 482 189 442 251 442 c 256
EndSplineSet
EndChar

StartChar: perthousand
Encoding: 456 8240 315
Width: 2291
VWidth: 0
GlyphClass: 2
Flags: W
LayerCount: 2
Fore
SplineSet
343 -74 m 256
 348 -74 353 -75 357 -75 c 256
 365 -75 371 -73 377 -64 c 258
 1196 1357 l 258
 1197 1359 1198 1361 1198 1363 c 256
 1198 1365 1197 1368 1197 1371 c 256
 1197 1401 1175 1424 1149 1424 c 256
 1131 1424 1110 1413 1096 1388 c 258
 288 -18 l 258
 288 -19 287 -20 287 -21 c 256
 287 -23 289 -24 289 -26 c 256
 289 -55 315 -74 343 -74 c 256
374 733 m 256
 213 733 157 893 157 1018 c 256
 157 1143 214 1302 374 1302 c 256
 537 1302 592 1142 592 1018 c 256
 592 899 541 733 374 733 c 256
376 648 m 256
 579 648 700 824 700 1018 c 256
 700 1209 581 1387 375 1387 c 256
 169 1387 51 1211 51 1018 c 256
 51 828 165 648 376 648 c 256
1135 56 m 256
 973 56 919 214 919 340 c 256
 919 464 972 625 1135 625 c 256
 1298 625 1353 463 1353 340 c 256
 1353 220 1301 56 1135 56 c 256
1136 -30 m 256
 1340 -30 1460 146 1460 339 c 256
 1460 530 1343 709 1135 709 c 256
 929 709 810 533 810 340 c 256
 810 150 928 -30 1136 -30 c 256
1879 56 m 256
 1717 56 1661 214 1661 340 c 256
 1661 459 1713 625 1879 625 c 256
 2041 625 2096 464 2096 340 c 256
 2096 221 2045 56 1879 56 c 256
1880 -30 m 256
 2084 -30 2203 146 2203 339 c 256
 2203 533 2084 709 1879 709 c 256
 1674 709 1554 533 1554 340 c 256
 1554 152 1668 -30 1880 -30 c 256
EndSplineSet
EndChar

StartChar: pi
Encoding: 417 960 316
Width: 1146
VWidth: 0
GlyphClass: 2
Flags: W
PickledData: "(dp1
S'com.typemytype.robofont.layerData'
p2
(dp3
S'b'
(dp4
S'name'
p5
S'pi'
p6
sS'lib'
p7
(dp8
sS'unicodes'
p9
(tsS'width'
p10
I1285
sS'contours'
p11
(tsS'components'
p12
(tsS'anchors'
p13
(tsss."
LayerCount: 2
Fore
SplineSet
910 -29 m 256
 942 -29 976 -15 976 1 c 256
 976 29 922 82 922 222 c 258
 922 950 l 257
 996 950 l 258
 1036 950 1055 974 1055 1003 c 256
 1055 1029 1036 1056 996 1056 c 258
 217 1056 l 258
 163 1056 139 1029 139 1003 c 256
 139 974 163 950 217 950 c 258
 283 950 l 257
 283 539 196 215 136 47 c 256
 131 33 129 19 129 8 c 256
 129 -27 150 -47 175 -47 c 256
 197 -47 220 -32 235 2 c 256
 314 192 387 673 402 950 c 257
 797 950 l 257
 797 210 l 258
 797 140 801 -29 910 -29 c 256
EndSplineSet
EndChar

StartChar: plus
Encoding: 11 43 317
Width: 1356
VWidth: 0
GlyphClass: 2
Flags: W
LayerCount: 2
Fore
SplineSet
678 5 m 256
 701 5 737 21 737 52 c 258
 737 436 l 257
 1139 436 l 258
 1169 436 1190 468 1190 493 c 256
 1190 519 1173 550 1139 550 c 258
 737 550 l 257
 737 937 l 258
 737 968 704 986 678 986 c 256
 652 986 618 971 618 937 c 258
 618 550 l 257
 217 550 l 258
 188 550 166 523 166 493 c 256
 166 471 184 436 217 436 c 258
 618 436 l 257
 618 52 l 258
 618 25 648 5 678 5 c 256
EndSplineSet
EndChar

StartChar: plusminus
Encoding: 112 177 318
Width: 1355
VWidth: 0
GlyphClass: 2
Flags: W
LayerCount: 2
Fore
SplineSet
675 196 m 256
 705 196 737 215 737 251 c 258
 737 530 l 257
 1129 530 l 258
 1168 530 1188 559 1188 588 c 256
 1188 618 1168 645 1129 645 c 258
 737 645 l 257
 737 928 l 258
 737 966 707 985 678 985 c 256
 647 985 617 964 617 928 c 258
 617 645 l 257
 226 645 l 258
 187 645 168 616 168 589 c 256
 168 558 189 530 226 530 c 258
 617 530 l 257
 617 251 l 258
 617 214 645 196 675 196 c 256
226 0 m 258
 1129 0 l 258
 1168 0 1189 29 1189 57 c 256
 1189 88 1171 115 1129 115 c 258
 226 115 l 258
 187 115 167 88 167 57 c 256
 167 29 187 0 226 0 c 258
EndSplineSet
EndChar

StartChar: product
Encoding: 469 8719 319
Width: 1410
VWidth: 0
GlyphClass: 2
Flags: W
LayerCount: 2
Fore
SplineSet
333 0 m 256
 362 0 393 18 393 57 c 258
 393 1312 l 257
 1010 1312 l 257
 1010 58 l 258
 1010 19 1039 0 1069 0 c 256
 1098 0 1127 18 1127 58 c 258
 1128 1312 l 257
 1282 1312 l 258
 1317 1312 1334 1339 1334 1366 c 256
 1334 1394 1317 1420 1282 1420 c 258
 122 1420 l 258
 82 1420 61 1392 61 1365 c 256
 61 1339 81 1312 124 1312 c 258
 275 1312 l 257
 275 57 l 258
 275 18 304 0 333 0 c 256
EndSplineSet
EndChar

StartChar: q
Encoding: 81 113 320
Width: 1162
VWidth: 0
GlyphClass: 2
Flags: W
PickledData: "(dp1
S'b'
(dp2
sS'anchors'
p3
(tsS'lib'
p4
(dp5
sS'unicodes'
p6
(tsS'width'
p7
I1207
sS'contours'
p8
(tsS'components'
p9
(tsS'com.typemytype.robofont.layerData'
p10
(dp11
S'b'
(dp12
S'name'
p13
S'p'
sg4
(dp14
sg6
(tsg7
I1181
sg8
(tsg9
(tsg3
(tsssg13
S'p'
s."
LayerCount: 2
Fore
SplineSet
933 -377 m 256
 961 -377 991 -359 991 -325 c 258
 991 935 l 258
 991 969 965 983 936 983 c 256
 879 983 875 946 875 934 c 258
 875 789 l 257
 811 937 667 1013 516 1013 c 256
 219 1013 90 768 90 489 c 256
 90 232 236 -25 533 -25 c 256
 681 -25 823 58 875 199 c 257
 875 -325 l 258
 875 -359 904 -377 933 -377 c 256
535 56 m 256
 291 56 205 294 205 499 c 256
 205 696 277 927 516 932 c 257
 791 932 874 709 874 489 c 256
 874 275 776 56 535 56 c 256
EndSplineSet
EndChar

StartChar: question
Encoding: 31 63 321
Width: 1022
VWidth: 0
GlyphClass: 2
Flags: W
LayerCount: 2
Fore
SplineSet
358 424 m 258
 356 387 389 367 420 367 c 256
 447 367 474 382 474 415 c 258
 473 546 l 258
 474 711 865 811 865 1089 c 256
 865 1333 693 1424 487 1424 c 256
 398 1424 304 1406 215 1384 c 256
 179 1376 165 1350 165 1325 c 256
 165 1300 182 1267 213 1267 c 256
 249 1267 434 1309 459 1309 c 256
 603 1309 746 1280 746 1082 c 256
 746 820 374 774 360 579 c 257
 358 424 l 258
423 3 m 256
 483 3 512 43 512 82 c 256
 512 117 486 158 423 158 c 256
 363 158 334 121 334 82 c 256
 334 43 362 3 423 3 c 256
EndSplineSet
EndChar

StartChar: quotedbl
Encoding: 2 34 323
Width: 556
VWidth: 0
GlyphClass: 2
Flags: W
LayerCount: 2
Fore
SplineSet
155 1013 m 256
 176 1013 198 1021 201 1069 c 258
 226 1425 l 257
 226 1430 l 258
 226 1464 189 1481 156 1481 c 256
 120 1481 85 1466 85 1425 c 256
 85 1415 107 1150 114 1050 c 257
 121 1018 137 1013 155 1013 c 256
393 1013 m 256
 413 1013 435 1018 438 1069 c 258
 463 1425 l 257
 463 1431 l 258
 463 1462 427 1481 393 1481 c 256
 360 1481 323 1463 323 1431 c 256
 323 1426 345 1142 351 1048 c 257
 358 1020 373 1013 393 1013 c 256
111 1067 m 257
 111 1069 l 257
 111 1067 l 257
111 1067 m 257
 111 1067 l 257
 111 1069 l 257
 111 1067 l 257
111 1067 m 257
 112 1057 115 1025 115 1022 c 258
 115 1022 114 1033 111 1067 c 257
349 1062 m 257
 349 1064 348 1066 348 1069 c 257
 348 1066 349 1064 349 1062 c 257
349 1062 m 257
 350 1054 352 1026 352 1023 c 258
 352 1023 352 1031 349 1062 c 257
EndSplineSet
EndChar

StartChar: quotedblbase
Encoding: 451 8222 324
Width: 1137
VWidth: 0
GlyphClass: 2
Flags: W
PickledData: "(dp1
S'b'
(dp2
sS'anchors'
p3
(tsS'lib'
p4
(dp5
sS'unicodes'
p6
(tsS'width'
p7
I1161
sS'contours'
p8
(tsS'components'
p9
(tsS'com.typemytype.robofont.layerData'
p10
(dp11
S'b'
(dp12
S'name'
p13
S'quotedblbase'
p14
sg4
(dp15
sg6
(tsg7
I1146
sg8
(tsg9
(tsg3
(tsssg13
S'quotedblbase'
p16
s."
LayerCount: 2
Fore
SplineSet
312 -212 m 258
 330 -212 l 257
 333 -212 l 258
 360 -212 373 -200 386 -169 c 258
 493 72 l 258
 495 76 497 83 497 90 c 256
 497 106 488 126 459 128 c 258
 403 128 l 258
 371 127 338 119 330 72 c 258
 288 -169 l 258
 287 -172 287 -176 287 -181 c 256
 287 -194 291 -211 312 -212 c 258
687 -212 m 258
 705 -212 l 257
 708 -212 l 258
 735 -212 747 -200 761 -169 c 258
 868 72 l 258
 870 76 872 83 872 90 c 256
 872 106 863 126 834 128 c 258
 778 128 l 258
 746 127 713 119 705 72 c 258
 663 -169 l 258
 661 -181 659 -211 687 -212 c 258
EndSplineSet
EndChar

StartChar: quotedblleft
Encoding: 449 8220 325
Width: 1137
VWidth: 0
GlyphClass: 2
Flags: W
PickledData: "(dp1
S'b'
(dp2
sS'anchors'
p3
(tsS'lib'
p4
(dp5
sS'unicodes'
p6
(tsS'width'
p7
I1161
sS'contours'
p8
(tsS'components'
p9
(tsS'com.typemytype.robofont.layerData'
p10
(dp11
S'b'
(dp12
S'name'
p13
S'quotedblleft'
p14
sg4
(dp15
sg6
(tsg7
I1146
sg8
(tsg9
(tsg3
(tsssg13
S'quotedblleft'
p16
s."
LayerCount: 2
Fore
SplineSet
321 1080 m 258
 377 1080 l 258
 409 1082 442 1089 450 1136 c 258
 492 1376 l 258
 493 1379 493 1383 493 1388 c 256
 493 1402 489 1419 468 1419 c 258
 450 1419 l 258
 421 1419 409 1408 394 1376 c 258
 287 1136 l 258
 285 1132 283 1125 283 1118 c 256
 283 1101 292 1080 321 1080 c 258
649 1080 m 258
 705 1080 l 258
 737 1082 770 1089 778 1136 c 258
 820 1376 l 258
 821 1379 821 1383 821 1388 c 256
 821 1402 817 1419 796 1419 c 258
 778 1419 l 258
 749 1419 736 1408 722 1376 c 258
 615 1136 l 258
 613 1132 611 1125 611 1118 c 256
 611 1101 620 1080 649 1080 c 258
EndSplineSet
EndChar

StartChar: quotedblright
Encoding: 450 8221 326
Width: 1137
VWidth: 0
GlyphClass: 2
Flags: W
PickledData: "(dp1
S'b'
(dp2
sS'anchors'
p3
(tsS'lib'
p4
(dp5
sS'unicodes'
p6
(tsS'width'
p7
I1161
sS'contours'
p8
(tsS'components'
p9
(tsS'com.typemytype.robofont.layerData'
p10
(dp11
S'b'
(dp12
S'name'
p13
S'quotedblright'
p14
sg4
(dp15
sg6
(tsg7
I1146
sg8
(tsg9
(tsg3
(tsssg13
S'quotedblright'
p16
s."
LayerCount: 2
Fore
SplineSet
310 1079 m 257
 328 1079 l 258
 357 1079 370 1090 384 1122 c 258
 492 1363 l 258
 494 1367 495 1374 495 1382 c 256
 495 1399 488 1419 461 1419 c 258
 458 1419 l 257
 402 1419 l 258
 370 1418 337 1410 329 1363 c 258
 286 1122 l 258
 285 1119 285 1115 285 1110 c 256
 285 1096 289 1079 309 1079 c 258
 310 1079 l 257
645 1079 m 257
 663 1079 l 258
 692 1079 705 1090 719 1122 c 258
 826 1363 l 258
 828 1367 830 1374 830 1382 c 256
 830 1399 822 1419 795 1419 c 258
 792 1419 l 257
 736 1419 l 258
 704 1418 671 1410 663 1363 c 258
 621 1122 l 258
 619 1110 617 1079 644 1079 c 258
 645 1079 l 257
EndSplineSet
EndChar

StartChar: quoteleft
Encoding: 446 8216 327
Width: 565
VWidth: 0
GlyphClass: 2
Flags: W
PickledData: "(dp1
S'b'
(dp2
sS'anchors'
p3
(tsS'lib'
p4
(dp5
sS'unicodes'
p6
(tsS'width'
p7
I615
sS'contours'
p8
(tsS'components'
p9
(tsS'com.typemytype.robofont.layerData'
p10
(dp11
S'b'
(dp12
S'name'
p13
S'quoteleft'
p14
sg4
(dp15
sg6
(tsg7
I584
sg8
(tsg9
(tsg3
(tsssg13
S'quoteleft'
p16
s."
LayerCount: 2
Fore
SplineSet
217 1080 m 258
 273 1080 l 258
 305 1082 338 1089 346 1136 c 258
 388 1376 l 258
 389 1379 389 1383 389 1388 c 256
 389 1402 385 1419 364 1419 c 258
 346 1419 l 258
 317 1419 304 1408 290 1376 c 258
 183 1136 l 258
 181 1132 179 1125 179 1118 c 256
 179 1101 188 1080 217 1080 c 258
EndSplineSet
EndChar

StartChar: quoteright
Encoding: 447 8217 328
Width: 565
VWidth: 0
GlyphClass: 2
Flags: W
PickledData: "(dp1
S'b'
(dp2
sS'anchors'
p3
(tsS'lib'
p4
(dp5
sS'unicodes'
p6
(tsS'width'
p7
I615
sS'contours'
p8
(tsS'components'
p9
(tsS'com.typemytype.robofont.layerData'
p10
(dp11
S'b'
(dp12
S'name'
p13
S'quoteright'
p14
sg4
(dp15
sg6
(tsg7
I584
sg8
(tsg9
(tsg3
(tsssg13
S'quoteright'
p16
s."
LayerCount: 2
Fore
SplineSet
219 1080 m 258
 237 1080 l 258
 266 1080 279 1091 293 1123 c 258
 401 1363 l 258
 403 1367 404 1374 404 1381 c 256
 404 1398 396 1419 367 1419 c 258
 311 1419 l 258
 279 1417 246 1410 238 1363 c 258
 195 1123 l 258
 194 1120 194 1116 194 1111 c 256
 194 1097 198 1080 219 1080 c 258
EndSplineSet
EndChar

StartChar: quotesinglbase
Encoding: 448 8218 329
Width: 565
VWidth: 0
GlyphClass: 2
Flags: W
PickledData: "(dp1
S'com.typemytype.robofont.layerData'
p2
(dp3
S'b'
(dp4
S'name'
p5
S'quotesinglbase'
p6
sS'lib'
p7
(dp8
sS'unicodes'
p9
(tsS'width'
p10
I615
sS'contours'
p11
(tsS'components'
p12
(tsS'anchors'
p13
(tsss."
LayerCount: 2
Fore
SplineSet
219 -179 m 258
 237 -179 l 258
 268 -179 279 -168 293 -136 c 258
 401 105 l 258
 403 109 404 116 404 123 c 256
 404 140 396 161 367 161 c 258
 311 161 l 258
 279 160 246 152 238 105 c 258
 195 -136 l 258
 194 -139 194 -143 194 -148 c 256
 194 -161 198 -178 219 -179 c 258
EndSplineSet
EndChar

StartChar: quotesingle
Encoding: 7 39 330
Width: 565
VWidth: 0
GlyphClass: 2
Flags: W
LayerCount: 2
Fore
SplineSet
282 1013 m 257
 298 1013 l 258
 314 1013 326 1016 327 1044 c 258
 354 1425 l 258
 354 1462 320 1481 285 1481 c 256
 246 1481 213 1461 213 1425 c 258
 213 1425 236 1121 242 1027 c 257
 247 1015 256 1013 267 1013 c 258
 282 1013 l 257
240 1034 m 257
 240 1037 239 1041 239 1044 c 257
 239 1040 240 1037 240 1034 c 257
240 1034 m 257
 241 1027 242 1016 242 1009 c 258
 242 999 l 258
 241 999 240 1009 240 1034 c 257
EndSplineSet
EndChar

StartChar: r
Encoding: 82 114 331
Width: 686
VWidth: 0
GlyphClass: 2
Flags: W
PickledData: "(dp1
S'b'
(dp2
sS'anchors'
p3
(tsS'lib'
p4
(dp5
sS'unicodes'
p6
(tsS'width'
p7
I763
sS'contours'
p8
(tsS'components'
p9
(tsS'com.typemytype.robofont.layerData'
p10
(dp11
S'b'
(dp12
S'name'
p13
S'r'
sg4
(dp14
sg6
(tsg7
I715
sg8
(tsg9
(tsg3
(tsssg13
S'r'
s."
AnchorPoint: "bot" 231 0 basechar 0
AnchorPoint: "top" 390 1001 basechar 0
LayerCount: 2
Fore
SplineSet
231 0 m 256
 261 0 290 18 290 52 c 258
 290 649 l 258
 290 721 342 922 569 922 c 256
 611 922 627 944 627 968 c 256
 627 995 594 1008 581 1023 c 257
 410 1023 320 919 292 807 c 257
 290 923 l 258
 289 962 260 981 231 981 c 256
 203 981 175 963 175 928 c 258
 175 52 l 258
 175 15 201 0 231 0 c 256
EndSplineSet
EndChar

StartChar: radical
Encoding: 474 8730 333
Width: 1243
VWidth: 0
GlyphClass: 2
Flags: W
LayerCount: 2
Fore
SplineSet
142 550 m 256
 107 550 76 518 76 481 c 256
 76 476 77 473 79 469 c 258
 347 -98 l 257
 347 -104 l 258
 347 -153 407 -160 441 -160 c 256
 483 -160 527 -151 540 -105 c 258
 1116 1448 l 258
 1119 1456 1119 1458 1119 1465 c 256
 1119 1494 1094 1515 1065 1515 c 256
 1029 1515 1019 1495 1010 1475 c 258
 442 -23 l 257
 440 -24 l 257
 196 508 l 258
 188 532 167 550 142 550 c 256
EndSplineSet
EndChar

StartChar: registered
Encoding: 109 174 336
Width: 1634
VWidth: 0
GlyphClass: 2
Flags: W
LayerCount: 2
Fore
SplineSet
625 397 m 256
 652 397 678 413 678 445 c 258
 678 742 l 257
 837 742 l 257
 1053 416 l 258
 1064 399 1077 392 1090 392 c 256
 1115 392 1139 419 1139 445 c 256
 1139 452 1137 460 1133 467 c 258
 938 741 l 257
 1070 753 1173 792 1173 944 c 256
 1173 1073 1108 1142 908 1142 c 258
 644 1142 l 258
 593 1142 575 1099 575 1075 c 258
 575 445 l 258
 575 413 600 397 625 397 c 256
678 829 m 257
 678 1052 l 257
 886 1052 l 258
 974 1052 1061 1040 1061 946 c 256
 1061 833 979 829 899 829 c 258
 879 829 l 257
 879 829 775 828 715 828 c 256
 691 828 674 829 674 829 c 257
 678 829 l 257
823 208 m 256
 484 208 241 440 241 765 c 256
 241 1088 484 1321 823 1321 c 256
 1160 1321 1401 1088 1401 765 c 256
 1401 440 1160 208 823 208 c 256
823 106 m 256
 1202 106 1514 404 1514 765 c 256
 1514 1130 1202 1428 823 1428 c 256
 440 1428 129 1130 129 765 c 256
 129 404 440 106 823 106 c 256
EndSplineSet
EndChar

StartChar: ring
Encoding: 403 730 337
Width: 569
VWidth: 0
GlyphClass: 4
Flags: W
AnchorPoint: "top" 285 1040 mark 0
LayerCount: 2
Fore
SplineSet
285 1249 m 256
 213 1249 172 1290 172 1358 c 256
 172 1426 213 1466 285 1466 c 256
 357 1466 398 1426 398 1358 c 256
 398 1290 357 1249 285 1249 c 256
285 1186 m 256
 398 1186 464 1249 464 1358 c 256
 464 1466 398 1528 285 1528 c 256
 170 1528 105 1466 105 1358 c 256
 105 1249 170 1186 285 1186 c 256
EndSplineSet
EndChar

StartChar: s
Encoding: 83 115 338
Width: 1010
VWidth: 0
GlyphClass: 2
Flags: W
PickledData: "(dp1
S'b'
(dp2
sS'anchors'
p3
(tsS'lib'
p4
(dp5
sS'unicodes'
p6
(tsS'width'
p7
F1006.76
sS'contours'
p8
(tsS'components'
p9
(tsS'com.typemytype.robofont.layerData'
p10
(dp11
S'b'
(dp12
S'name'
p13
S's'
sg4
(dp14
sg6
(tsg7
I1007
sg8
(tsg9
(tsg3
(tsssg13
S's'
s."
AnchorPoint: "bot" 514 0 basechar 0
AnchorPoint: "top" 472 1000 basechar 0
LayerCount: 2
Fore
SplineSet
503 -22 m 256
 720 -22 890 67 890 275 c 256
 890 387 845 495 638 544 c 258
 446 591 l 258
 273 633 240 651 240 748 c 256
 240 872 343 926 521 926 c 256
 646 926 748 876 796 858 c 256
 804 855 812 854 819 854 c 256
 845 854 859 873 859 893 c 256
 859 907 852 922 835 932 c 256
 786 960 653 1009 512 1009 c 256
 331 1009 129 950 129 745 c 256
 129 574 244 535 408 497 c 258
 604 450 l 258
 743 418 792 367 792 264 c 256
 792 133 691 61 518 61 c 256
 405 61 295 96 212 148 c 256
 198 158 185 162 173 162 c 256
 148 162 131 144 131 123 c 256
 131 109 138 94 155 81 c 256
 217 33 369 -22 503 -22 c 256
EndSplineSet
EndChar

StartChar: section
Encoding: 102 167 344
Width: 1132
VWidth: 0
GlyphClass: 2
Flags: W
LayerCount: 2
Fore
SplineSet
512 -31 m 256
 702 -31 903 62 903 285 c 256
 903 431 799 497 675 547 c 257
 771 588 890 677 890 795 c 256
 890 1055 378 1023 378 1237 c 256
 378 1366 517 1399 622 1399 c 256
 679 1399 788 1362 804 1362 c 256
 806 1362 806 1362 806 1363 c 256
 858 1371 857 1403 857 1423 c 256
 857 1443 846 1461 823 1469 c 256
 757 1490 683 1509 611 1509 c 256
 440 1509 254 1438 254 1232 c 256
 254 1088 344 1041 447 984 c 257
 348 939 228 856 228 735 c 256
 228 418 778 506 778 282 c 256
 778 131 632 80 506 80 c 256
 413 80 347 92 294 113 c 256
 281 117 270 118 261 118 c 256
 221 118 218 88 218 62 c 256
 218 44 228 23 252 14 c 256
 330 -17 425 -31 512 -31 c 256
563 578 m 257
 493 607 355 649 355 748 c 256
 355 860 450 893 530 946 c 257
 604 902 761 880 761 771 c 256
 761 663 642 623 563 578 c 257
EndSplineSet
EndChar

StartChar: semicolon
Encoding: 27 59 345
Width: 565
VWidth: 0
GlyphClass: 2
Flags: W
LayerCount: 2
Fore
SplineSet
304 852 m 256
 364 852 394 892 394 931 c 256
 394 966 367 1007 304 1007 c 256
 244 1007 216 969 216 931 c 256
 216 894 241 852 304 852 c 256
EndSplineSet
Refer: 177 44 N 1 0 0 1 1 126 2
EndChar

StartChar: seven
Encoding: 23 55 346
Width: 1128
VWidth: 0
GlyphClass: 2
Flags: W
PickledData: "(dp1
S'com.typemytype.robofont.layerData'
p2
(dp3
S'b'
(dp4
S'name'
p5
S'seven'
p6
sS'lib'
p7
(dp8
sS'unicodes'
p9
(tsS'width'
p10
I1160
sS'contours'
p11
(tsS'components'
p12
(tsS'anchors'
p13
(tsss."
LayerCount: 2
Fore
SplineSet
387 0 m 256
 411 0 430 9 441 34 c 258
 976 1288 l 258
 983 1301 984 1320 984 1337 c 256
 984 1377 953 1402 907 1402 c 258
 145 1402 l 258
 106 1402 87 1379 87 1351 c 256
 87 1324 106 1302 145 1302 c 258
 856 1302 l 257
 330 83 l 258
 326 75 326 68 325 61 c 256
 325 25 352 0 387 0 c 256
EndSplineSet
EndChar

StartChar: six
Encoding: 22 54 347
Width: 1128
VWidth: 0
GlyphClass: 2
Flags: W
PickledData: "(dp1
S'com.typemytype.robofont.layerData'
p2
(dp3
S'b'
(dp4
S'name'
p5
S'nine'
p6
sS'lib'
p7
(dp8
sS'unicodes'
p9
(tsS'width'
p10
I1160
sS'contours'
p11
(tsS'components'
p12
(tsS'anchors'
p13
(tsss."
LayerCount: 2
Fore
SplineSet
1026 446 m 256
 1026 709 880 899 597 899 c 256
 377 899 247 734 228 617 c 257
 228 1015 285 1312 640 1312 c 256
 712 1312 800 1296 890 1249 c 256
 900 1244 909 1241 918 1241 c 256
 946 1241 965 1267 965 1293 c 256
 965 1309 958 1325 940 1335 c 256
 857 1379 754 1412 641 1412 c 256
 124 1412 102 877 102 612 c 256
 102 302 190 -22 585 -22 c 256
 861 -22 1026 187 1026 446 c 256
244 449 m 256
 244 654 369 809 598 809 c 256
 810 809 904 633 904 449 c 256
 904 252 798 76 575 76 c 256
 337 76 244 276 244 449 c 256
EndSplineSet
EndChar

StartChar: slash
Encoding: 15 47 348
Width: 724
VWidth: 0
GlyphClass: 2
Flags: W
LayerCount: 2
Fore
SplineSet
112 -194 m 256
 137 -194 162 -180 172 -149 c 258
 666 1338 l 258
 668 1349 671 1359 671 1363 c 256
 671 1398 641 1419 609 1419 c 256
 581 1419 557 1405 548 1375 c 258
 59 -114 l 258
 56 -125 54 -132 54 -138 c 256
 54 -173 82 -194 112 -194 c 256
EndSplineSet
EndChar

StartChar: slashbar
Encoding: 65541 -1 349
Width: 600
VWidth: 0
GlyphClass: 2
Flags: W
LayerCount: 2
Fore
SplineSet
87 657 m 258
 648 838 l 258
 675 847 688 870 688 893 c 256
 688 922 669 951 635 951 c 256
 628 951 620 950 612 947 c 258
 49 764 l 258
 19 754 5 729 5 706 c 256
 5 678 24 652 59 652 c 256
 67 652 77 654 87 657 c 258
EndSplineSet
EndChar

StartChar: sterling
Encoding: 98 163 351
Width: 1350
VWidth: 0
GlyphClass: 2
Flags: W
PickledData: "(dp1
S'com.typemytype.robofont.layerData'
p2
(dp3
S'b'
(dp4
S'name'
p5
S'sterling'
p6
sS'lib'
p7
(dp8
sS'unicodes'
p9
(tsS'width'
p10
I1361
sS'contours'
p11
(tsS'components'
p12
(tsS'anchors'
p13
(tsss."
LayerCount: 2
Fore
SplineSet
225 -1 m 258
 1061 -1 l 258
 1077 -1 1086 23 1086 47 c 256
 1086 71 1077 95 1061 95 c 258
 460 95 l 257
 460 787 l 257
 867 787 l 258
 878 787 887 812 887 835 c 256
 887 855 881 873 866 873 c 258
 460 873 l 257
 460 1015 l 258
 460 1257 491 1336 721 1336 c 256
 810 1336 857 1322 930 1313 c 257
 932 1313 l 258
 954 1313 966 1347 966 1371 c 256
 966 1384 963 1394 956 1395 c 256
 856 1420 770 1427 701 1427 c 256
 511 1427 348 1359 348 1106 c 258
 348 873 l 257
 192 873 l 258
 178 873 169 850 169 827 c 256
 169 807 176 787 192 787 c 258
 348 787 l 257
 348 95 l 257
 221 95 l 258
 205 95 197 73 197 50 c 256
 197 25 206 -1 225 -1 c 258
EndSplineSet
EndChar

StartChar: summation
Encoding: 470 8721 352
Width: 1124
VWidth: 0
GlyphClass: 2
Flags: W
LayerCount: 2
Fore
SplineSet
91 -197 m 258
 1077 -197 l 258
 1118 -197 1138 -167 1138 -137 c 256
 1138 -108 1118 -78 1077 -78 c 258
 207 -78 l 257
 754 628 l 257
 245 1317 l 257
 1047 1317 l 258
 1084 1317 1102 1340 1102 1369 c 256
 1102 1395 1084 1421 1047 1421 c 258
 123 1421 l 258
 76 1421 61 1396 61 1371 c 256
 61 1357 67 1343 72 1335 c 258
 610 609 l 257
 47 -112 l 258
 39 -122 36 -133 36 -146 c 256
 36 -170 50 -197 91 -197 c 258
EndSplineSet
EndChar

StartChar: t
Encoding: 84 116 353
Width: 698
VWidth: 0
GlyphClass: 2
Flags: W
PickledData: "(dp1
S'b'
(dp2
sS'anchors'
p3
(tsS'lib'
p4
(dp5
sS'unicodes'
p6
(tsS'width'
p7
I768
sS'contours'
p8
(tsS'components'
p9
(tsS'com.typemytype.robofont.layerData'
p10
(dp11
S'b'
(dp12
S'name'
p13
S't'
sg4
(dp14
sg6
(tsg7
I706
sg8
((dp15
S'points'
p16
((dp17
S'segmentType'
p18
S'curve'
p19
sS'x'
I317
sS'smooth'
p20
I1
sS'y'
I0
s(dp21
S'y'
I0
sS'x'
I358
sg20
I0
s(dp22
S'y'
I27
sS'x'
I398
sg20
I0
s(dp23
g18
S'curve'
p24
sS'x'
I398
sg20
I1
sS'y'
I79
s(dp25
g18
S'line'
p26
sS'x'
I398
sg20
I0
sS'y'
I876
s(dp27
g18
S'line'
p28
sS'x'
I578
sg20
I1
sS'y'
I876
s(dp29
S'y'
I876
sS'x'
I621
sg20
I0
s(dp30
S'y'
I897
sS'x'
I634
sg20
I0
s(dp31
g18
S'curve'
p32
sS'x'
I634
sg20
I1
sS'y'
I928
s(dp33
S'y'
I957
sS'x'
I634
sg20
I0
s(dp34
S'y'
I981
sS'x'
I621
sg20
I0
s(dp35
g18
S'curve'
p36
sS'x'
I578
sg20
I1
sS'y'
I981
s(dp37
g18
S'line'
p38
sS'x'
I398
sg20
I0
sS'y'
I981
s(dp39
g18
S'line'
p40
sS'x'
I398
sg20
I1
sS'y'
I1053
s(dp41
S'y'
I1285
sS'x'
I398
sg20
I0
s(dp42
S'y'
I1318
sS'x'
I432
sg20
I0
s(dp43
g18
S'curve'
p44
sS'x'
I544
sg20
I1
sS'y'
I1318
s(dp45
g18
S'line'
p46
sS'x'
I629
sg20
I1
sS'y'
I1318
s(dp47
S'y'
I1318
sS'x'
I706
sg20
I0
s(dp48
S'y'
I1438
sS'x'
I703
sg20
I0
s(dp49
g18
S'curve'
p50
sS'x'
I630
sg20
I1
sS'y'
I1438
s(dp51
g18
S'line'
p52
sS'x'
I510
sg20
I1
sS'y'
I1438
s(dp53
S'y'
I1438
sS'x'
I357
sg20
I0
s(dp54
S'y'
I1371
sS'x'
I238
sg20
I0
s(dp55
g18
S'curve'
p56
sS'x'
I238
sg20
I1
sS'y'
I1112
s(dp57
g18
S'line'
p58
sS'x'
I238
sg20
I0
sS'y'
I981
s(dp59
g18
S'line'
p60
sS'x'
I98
sg20
I1
sS'y'
I981
s(dp61
S'y'
I981
sS'x'
I55
sg20
I0
s(dp62
S'y'
I957
sS'x'
I39
sg20
I0
s(dp63
g18
S'curve'
p64
sS'x'
I39
sg20
I1
sS'y'
I928
s(dp65
S'y'
I899
sS'x'
I39
sg20
I0
s(dp66
S'y'
I876
sS'x'
I55
sg20
I0
s(dp67
g18
S'curve'
p68
sS'x'
I98
sg20
I1
sS'y'
I876
s(dp69
g18
S'line'
p70
sS'x'
I238
sg20
I0
sS'y'
I876
s(dp71
g18
S'line'
p72
sS'x'
I238
sg20
I1
sS'y'
I79
s(dp73
S'y'
I26
sS'x'
I238
sg20
I0
s(dp74
S'y'
I0
sS'x'
I278
sg20
I0
stp75
stp76
sg9
(tsg3
(tsssg13
S't'
s."
AnchorPoint: "bot" 417 11 basechar 0
AnchorPoint: "caron.alt" 304 848 basechar 0
LayerCount: 2
Fore
SplineSet
449 -22 m 256
 513 -22 558 -20 581 -17 c 256
 605 -13 618 6 618 26 c 256
 618 49 601 72 566 72 c 258
 564 72 l 257
 505 71 l 257
 493 71 l 258
 408 71 352 103 352 281 c 258
 352 898 l 257
 551 898 l 258
 586 898 599 909 599 935 c 256
 599 960 587 975 551 975 c 258
 352 975 l 257
 352 1277 l 258
 352 1311 325 1330 301 1330 c 256
 290 1330 247 1301 249 1281 c 258
 236 975 l 257
 97 975 l 258
 62 975 47 960 47 935 c 256
 47 909 60 898 95 898 c 258
 236 898 l 257
 236 287 l 258
 236 31 342 -22 449 -22 c 256
EndSplineSet
EndChar

StartChar: thorn
Encoding: 189 254 358
Width: 1130
VWidth: 0
GlyphClass: 2
Flags: W
LayerCount: 2
Fore
SplineSet
199 -344 m 256
 226 -344 255 -323 255 -283 c 258
 255 166 l 257
 344 33 473 -30 624 -30 c 256
 926 -30 1039 251 1039 496 c 256
 1039 750 928 1016 617 1016 c 256
 481 1016 333 952 260 830 c 257
 260 1367 l 258
 260 1401 232 1418 203 1418 c 256
 175 1418 145 1400 145 1367 c 258
 145 -283 l 258
 145 -323 171 -344 199 -344 c 256
614 75 m 256
 344 75 260 288 260 514 c 256
 260 714 355 911 596 911 c 256
 832 911 914 697 914 507 c 256
 914 323 854 75 614 75 c 256
EndSplineSet
EndChar

StartChar: three
Encoding: 19 51 359
Width: 1128
VWidth: 0
GlyphClass: 2
Flags: W
PickledData: "(dp1
S'com.typemytype.robofont.layerData'
p2
(dp3
S'b'
(dp4
S'name'
p5
S'three'
p6
sS'lib'
p7
(dp8
sS'unicodes'
p9
(tsS'width'
p10
I1160
sS'contours'
p11
(tsS'components'
p12
(tsS'anchors'
p13
(tsss."
LayerCount: 2
Fore
SplineSet
530 -22 m 256
 755 -22 1000 86 1000 360 c 256
 1000 551 859 695 692 722 c 257
 833 746 959 863 959 1031 c 256
 959 1306 765 1412 518 1412 c 256
 369 1412 199 1339 184 1338 c 257
 162 1329 153 1310 153 1290 c 256
 153 1260 173 1229 203 1229 c 256
 208 1229 214 1230 219 1232 c 256
 229 1231 318 1312 535 1312 c 256
 705 1312 833 1209 833 1047 c 256
 833 860 707 766 499 766 c 258
 451 766 l 258
 414 766 391 742 391 713 c 256
 391 684 415 667 451 667 c 258
 507 667 l 258
 721 667 879 549 879 347 c 256
 879 187 728 78 539 78 c 256
 424 78 322 114 255 146 c 256
 246 149 238 150 230 150 c 256
 201 150 184 132 184 109 c 256
 184 88 199 62 237 43 c 256
 324 -5 458 -22 530 -22 c 256
EndSplineSet
EndChar

StartChar: threequarters
Encoding: 125 190 360
Width: 1532
VWidth: 0
GlyphClass: 2
Flags: W
PickledData: "(dp1
S'com.typemytype.robofont.layerData'
p2
(dp3
S'b'
(dp4
S'name'
p5
S'threequarters'
p6
sS'lib'
p7
(dp8
sS'unicodes'
p9
(tsS'width'
p10
I1603
sS'contours'
p11
(tsS'components'
p12
(tsS'anchors'
p13
(tsss."
LayerCount: 2
Fore
SplineSet
280 528 m 256
 413 528 548 594 548 756 c 256
 548 869 471 949 371 973 c 257
 383 971 394 971 404 971 c 256
 519 971 535 1070 535 1167 c 256
 535 1326 396 1390 265 1390 c 256
 194 1390 48 1362 48 1314 c 256
 48 1293 59 1276 83 1276 c 256
 102 1276 191 1320 278 1320 c 256
 371 1320 452 1264 452 1167 c 256
 452 1052 353 1008 253 1005 c 258
 220 1004 l 258
 198 1003 186 987 186 969 c 256
 186 953 198 936 220 936 c 258
 265 936 l 258
 364 936 467 872 467 752 c 256
 467 654 396 599 285 599 c 256
 223 599 161 608 120 638 c 256
 111 643 102 645 95 645 c 256
 73 645 60 626 60 608 c 256
 60 563 204 528 280 528 c 256
1238 1 m 256
 1257 1 1277 13 1277 38 c 258
 1277 194 l 257
 1382 194 l 258
 1404 194 1413 208 1413 224 c 256
 1413 241 1401 254 1382 254 c 258
 1277 254 l 257
 1277 788 l 258
 1277 826 1250 841 1219 841 c 256
 1197 841 1174 829 1162 811 c 258
 804 279 l 258
 797 268 793 257 793 245 c 256
 793 220 812 194 841 194 c 258
 1198 194 l 257
 1198 38 l 258
 1198 13 1217 1 1238 1 c 256
496 -95 m 256
 516 -95 532 -83 540 -62 c 258
 1021 1362 l 258
 1024 1366 1025 1373 1025 1380 c 256
 1025 1406 1002 1422 981 1422 c 256
 960 1422 941 1411 934 1388 c 258
 455 -34 l 258
 452 -39 452 -45 452 -52 c 256
 452 -79 474 -95 496 -95 c 256
860 255 m 257
 1198 761 l 257
 1198 255 l 257
 860 255 l 257
EndSplineSet
EndChar

StartChar: uni00B3
Encoding: 114 179 361
Width: 772
VWidth: 0
GlyphClass: 2
Flags: W
PickledData: "(dp1
S'com.typemytype.robofont.layerData'
p2
(dp3
S'b'
(dp4
S'name'
p5
S'threesuperior'
p6
sS'lib'
p7
(dp8
sS'unicodes'
p9
(tsS'width'
p10
I818
sS'contours'
p11
(tsS'components'
p12
(tsS'anchors'
p13
(tsss."
LayerCount: 2
Fore
SplineSet
387 520 m 256
 522 520 656 586 656 748 c 256
 656 862 573 941 471 965 c 257
 575 985 643 1051 643 1158 c 256
 643 1318 496 1382 366 1382 c 256
 294 1382 155 1354 155 1306 c 256
 155 1288 170 1269 190 1269 c 256
 209 1269 305 1309 383 1309 c 256
 476 1309 560 1255 560 1157 c 256
 560 1042 460 1002 360 997 c 258
 330 995 l 258
 306 994 294 981 294 963 c 256
 294 946 305 931 327 931 c 258
 372 931 l 258
 472 931 574 863 574 744 c 256
 574 643 504 589 392 589 c 256
 338 589 265 596 228 628 c 256
 221 635 214 638 206 638 c 256
 187 638 168 619 168 600 c 256
 168 556 311 520 387 520 c 256
EndSplineSet
EndChar

StartChar: tilde
Encoding: 405 732 362
Width: 569
VWidth: 0
GlyphClass: 4
Flags: W
AnchorPoint: "top" 293 1040 mark 0
LayerCount: 2
Fore
SplineSet
41 1170 m 256
 56 1170 73 1179 88 1195 c 256
 112 1221 138 1228 165 1228 c 256
 235 1228 320 1170 386 1170 c 256
 472 1170 521 1223 549 1278 c 257
 550 1275 562 1274 573 1279 c 257
 575 1309 559 1328 530 1328 c 256
 529 1328 527 1329 526 1329 c 256
 499 1329 451 1268 408 1268 c 256
 343 1268 262 1322 180 1322 c 256
 99 1322 48 1277 16 1217 c 256
 13 1210 11 1203 11 1196 c 256
 11 1179 25 1170 41 1170 c 256
EndSplineSet
EndChar

StartChar: trademark
Encoding: 463 8482 363
Width: 1922
VWidth: 0
GlyphClass: 2
Flags: W
LayerCount: 2
Fore
SplineSet
856 655 m 256
 884 655 912 673 912 706 c 258
 912 1191 l 257
 1170 688 l 258
 1180 667 1198 660 1217 660 c 256
 1236 660 1253 671 1264 688 c 258
 1521 1191 l 257
 1521 706 l 258
 1521 672 1548 655 1576 655 c 256
 1604 655 1632 673 1632 706 c 258
 1632 1263 l 258
 1632 1331 1595 1358 1549 1358 c 256
 1516 1358 1486 1341 1459 1290 c 258
 1219 825 l 257
 977 1290 l 258
 948 1341 915 1359 886 1359 c 256
 839 1359 802 1330 802 1263 c 258
 802 706 l 258
 802 673 828 655 856 655 c 256
354 656 m 256
 381 656 409 673 409 707 c 258
 409 1276 l 257
 610 1276 l 258
 635 1276 647 1297 647 1316 c 256
 647 1339 635 1359 610 1359 c 258
 99 1359 l 258
 72 1359 60 1338 60 1317 c 256
 60 1296 73 1276 99 1276 c 258
 300 1276 l 257
 300 707 l 258
 300 673 327 656 354 656 c 256
EndSplineSet
EndChar

StartChar: two
Encoding: 18 50 364
Width: 1118
VWidth: 0
GlyphClass: 2
Flags: W
PickledData: "(dp1
S'com.typemytype.robofont.layerData'
p2
(dp3
S'b'
(dp4
S'name'
p5
S'two'
p6
sS'lib'
p7
(dp8
sS'unicodes'
p9
(tsS'width'
p10
I1160
sS'contours'
p11
(tsS'components'
p12
(tsS'anchors'
p13
(tsss."
LayerCount: 2
Fore
SplineSet
263 0 m 258
 929 0 l 258
 976 0 999 23 999 48 c 256
 999 72 975 96 929 96 c 258
 280 96 l 257
 771 603 l 257
 943 770 1005 886 1005 1042 c 256
 1005 1257 827 1434 596 1434 c 256
 384 1434 292 1374 194 1311 c 256
 176 1299 168 1283 168 1267 c 256
 168 1242 188 1218 216 1218 c 256
 225 1218 235 1220 245 1226 c 256
 319 1265 374 1330 592 1330 c 256
 756 1330 891 1212 891 1022 c 256
 891 907 831 809 705 681 c 258
 182 144 l 258
 154 115 142 91 142 70 c 256
 142 26 196 0 263 0 c 258
EndSplineSet
EndChar

StartChar: uni00B2
Encoding: 113 178 365
Width: 740
VWidth: 0
GlyphClass: 2
Flags: W
LayerCount: 2
Fore
SplineSet
164 551 m 258
 591 551 l 258
 614 551 626 568 626 584 c 256
 626 601 613 619 591 619 c 258
 183 619 l 257
 324 749 616 1000 616 1192 c 256
 616 1323 497 1388 374 1388 c 256
 277 1388 150 1326 150 1281 c 256
 150 1268 163 1257 181 1257 c 256
 192 1257 204 1260 216 1268 c 256
 252 1293 313 1320 372 1320 c 256
 453 1320 533 1272 533 1187 c 256
 533 1017 182 704 46 584 c 257
 68 597 95 593 95 595 c 257
 95 568 116 551 164 551 c 258
46 584 m 257
 41 580 36 576 32 572 c 257
 36 577 41 581 46 584 c 257
EndSplineSet
EndChar

StartChar: u
Encoding: 85 117 366
Width: 1132
VWidth: 0
GlyphClass: 2
Flags: W
PickledData: "(dp1
S'b'
(dp2
sS'anchors'
p3
(tsS'lib'
p4
(dp5
sS'unicodes'
p6
(tsS'width'
p7
I1195
sS'contours'
p8
(tsS'components'
p9
(tsS'com.typemytype.robofont.layerData'
p10
(dp11
S'b'
(dp12
S'name'
p13
S'u'
sg4
(dp14
sg6
(tsg7
I1152
sg8
((dp15
S'points'
p16
((dp17
S'segmentType'
p18
S'curve'
p19
sS'x'
I915
sS'smooth'
p20
I1
sS'y'
I991
s(dp21
S'y'
I991
sS'x'
I875
sg20
I0
s(dp22
S'y'
I965
sS'x'
I834
sg20
I0
s(dp23
g18
S'curve'
p24
sS'x'
I834
sg20
I1
sS'y'
I916
s(dp25
g18
S'line'
p26
sS'x'
I834
sg20
I0
sS'y'
I395
s(dp27
S'y'
I198
sS'x'
I821
sg20
I0
s(dp28
S'y'
I90
sS'x'
I698
sg20
I0
s(dp29
g18
S'curve'
p30
sS'x'
I542
sg20
I1
sS'y'
I90
s(dp31
S'y'
I90
sS'x'
I385
sg20
I0
s(dp32
S'y'
I187
sS'x'
I306
sg20
I0
s(dp33
g18
S'curve'
p34
sS'x'
I306
sg20
I1
sS'y'
I367
s(dp35
g18
S'line'
p36
sS'x'
I306
sg20
I1
sS'y'
I916
s(dp37
S'y'
I967
sS'x'
I306
sg20
I0
s(dp38
S'y'
I991
sS'x'
I266
sg20
I0
s(dp39
g18
S'curve'
p40
sS'x'
I226
sg20
I1
sS'y'
I991
s(dp41
S'y'
I991
sS'x'
I186
sg20
I0
s(dp42
S'y'
I967
sS'x'
I146
sg20
I0
s(dp43
g18
S'curve'
p44
sS'x'
I146
sg20
I1
sS'y'
I916
s(dp45
g18
S'line'
p46
sS'x'
I146
sg20
I1
sS'y'
I369
s(dp47
S'y'
I96
sS'x'
I146
sg20
I0
s(dp48
S'y'
S'-20'
p49
sS'x'
I294
sg20
I0
s(dp50
g18
S'curve'
p51
sS'x'
I507
sg20
I1
sS'y'
S'-20'
p52
s(dp53
S'y'
S'-20'
p54
sS'x'
I656
sg20
I0
s(dp55
S'y'
I49
sS'x'
I786
sg20
I0
s(dp56
g18
S'curve'
p57
sS'x'
I834
sg20
I0
sS'y'
I179
s(dp58
g18
S'line'
p59
sS'x'
I834
sg20
I1
sS'y'
I73
s(dp60
S'y'
I24
sS'x'
I834
sg20
I0
s(dp61
S'y'
I0
sS'x'
I874
sg20
I0
s(dp62
g18
S'curve'
p63
sS'x'
I913
sg20
I1
sS'y'
I0
s(dp64
S'y'
I0
sS'x'
I953
sg20
I0
s(dp65
S'y'
I24
sS'x'
I994
sg20
I0
s(dp66
g18
S'curve'
p67
sS'x'
I994
sg20
I1
sS'y'
I75
s(dp68
g18
S'line'
p69
sS'x'
I994
sg20
I1
sS'y'
I916
s(dp70
S'y'
I967
sS'x'
I994
sg20
I0
s(dp71
S'y'
I991
sS'x'
I955
sg20
I0
stp72
stp73
sg9
(tsg3
(tsssg13
S'u'
s."
AnchorPoint: "ogonek" 907 17 basechar 0
AnchorPoint: "top" 554 1007 basechar 0
LayerCount: 2
Fore
SplineSet
518 -25 m 256
 666 -25 804 51 845 196 c 257
 845 53 l 258
 845 17 875 0 902 0 c 256
 930 0 961 16 961 54 c 258
 961 933 l 258
 961 969 933 985 905 985 c 256
 877 985 845 966 845 933 c 258
 845 361 l 257
 825 160 703 56 533 56 c 256
 346 56 272 170 272 366 c 258
 272 933 l 258
 272 969 243 985 214 985 c 256
 186 985 157 969 157 933 c 258
 157 368 l 258
 157 92 289 -25 518 -25 c 256
EndSplineSet
EndChar

StartChar: underscore
Encoding: 63 95 374
Width: 1024
VWidth: 0
GlyphClass: 2
Flags: W
LayerCount: 2
Fore
SplineSet
52 -253 m 258
 967 -253 l 258
 1005 -253 1023 -225 1023 -197 c 256
 1023 -167 1005 -140 967 -140 c 258
 52 -140 l 258
 17 -140 -2 -167 -2 -197 c 256
 -2 -225 17 -253 52 -253 c 258
EndSplineSet
EndChar

StartChar: uni00AD
Encoding: 108 173 376
Width: 667
VWidth: 0
GlyphClass: 2
Flags: W
LayerCount: 2
Fore
SplineSet
104 479 m 258
 571 479 l 258
 605 479 626 496 626 523 c 256
 626 552 605 571 571 571 c 258
 97 571 l 258
 63 571 41 552 41 523 c 256
 41 496 66 479 104 479 c 258
EndSplineSet
EndChar

StartChar: uni02C9
Encoding: 400 713 440
Width: 569
VWidth: 0
GlyphClass: 4
Flags: W
AnchorPoint: "top" 286 1040 mark 0
LayerCount: 2
Fore
SplineSet
35 1341 m 258
 540 1341 l 258
 579 1341 598 1356 598 1388 c 256
 598 1417 579 1435 540 1435 c 258
 35 1435 l 258
 -6 1435 -26 1417 -26 1388 c 256
 -26 1356 -6 1341 35 1341 c 258
EndSplineSet
EndChar

StartChar: uni0307
Encoding: 407 775 441
Width: 600
VWidth: 0
GlyphClass: 2
Flags: W
LayerCount: 2
Fore
SplineSet
321 443 m 256
 381 443 409 482 409 521 c 256
 409 557 382 598 321 598 c 256
 260 598 232 558 232 521 c 256
 232 483 261 443 321 443 c 256
EndSplineSet
EndChar

StartChar: uni03A9
Encoding: 415 937 442
Width: 1473
VWidth: 0
GlyphClass: 2
Flags: W
LayerCount: 2
Fore
SplineSet
347 0 m 258
 798 0 l 257
 522 386 306 713 306 951 c 256
 306 1195 469 1352 876 1352 c 256
 1284 1352 1446 1195 1446 951 c 256
 1446 712 1231 385 955 0 c 257
 1406 0 l 258
 1429 0 1439 28 1439 57 c 256
 1439 85 1429 113 1406 113 c 258
 1124 113 l 257
 1353 362 1541 654 1541 915 c 256
 1541 1250 1385 1460 876 1460 c 256
 436 1460 212 1245 212 915 c 256
 212 654 407 347 629 113 c 257
 347 113 l 258
 324 113 314 85 314 57 c 256
 314 28 324 0 347 0 c 258
EndSplineSet
EndChar

StartChar: uni03BC
Encoding: 416 956 443
Width: 1129
VWidth: 0
GlyphClass: 2
Flags: W
LayerCount: 2
Fore
SplineSet
211 -264 m 256
 227 -264 270 -256 270 -223 c 258
 270 500 l 257
 157 500 l 257
 157 -223 l 258
 157 -253 191 -264 211 -264 c 256
EndSplineSet
Refer: 366 117 N 1 0 0 1 0 0 2
EndChar

StartChar: afii61289
Encoding: 462 8467 462
Width: 696
VWidth: 0
GlyphClass: 2
Flags: W
LayerCount: 2
Fore
SplineSet
448 -17 m 258
 490 -17 l 258
 561 -17 630 -13 630 42 c 256
 630 68 609 100 565 100 c 258
 561 100 l 257
 496 97 l 257
 485 97 l 258
 400 97 357 145 357 296 c 258
 357 876 l 257
 582 1042 650 1122 650 1256 c 256
 650 1369 598 1494 442 1494 c 256
 338 1494 241 1419 240 1212 c 258
 239 897 l 257
 62 758 l 258
 47 746 40 732 40 719 c 256
 40 698 57 680 79 680 c 256
 89 680 98 682 111 692 c 258
 239 792 l 257
 239 289 l 258
 239 60 333 -17 448 -17 c 258
442 1348 m 256
 483 1348 524 1316 524 1249 c 256
 524 1149 467 1067 357 981 c 257
 357 1216 l 258
 357 1316 400 1348 442 1348 c 256
EndSplineSet
EndChar

StartChar: v
Encoding: 86 118 471
Width: 1002
VWidth: 0
GlyphClass: 2
Flags: W
PickledData: "(dp1
S'com.typemytype.robofont.layerData'
p2
(dp3
S'b'
(dp4
S'name'
p5
S'v'
sS'lib'
p6
(dp7
sS'unicodes'
p8
(tsS'width'
p9
I1027
sS'contours'
p10
((dp11
S'points'
p12
((dp13
S'segmentType'
p14
S'line'
p15
sS'x'
I518
sS'smooth'
p16
I0
sS'y'
I0
s(dp17
S'y'
I0
sS'x'
I589
sg16
I0
s(dp18
S'y'
I36
sS'x'
I618
sg16
I0
s(dp19
g14
S'curve'
p20
sS'x'
I654
sg16
I1
sS'y'
I121
s(dp21
g14
S'line'
p22
sS'x'
I979
sg16
I1
sS'y'
I890
s(dp23
S'y'
I940
sS'x'
I1000
sg16
I0
s(dp24
S'y'
I991
sS'x'
I968
sg16
I0
s(dp25
g14
S'curve'
p26
sS'x'
I907
sg16
I1
sS'y'
I991
s(dp27
S'y'
I991
sS'x'
I878
sg16
I0
s(dp28
S'y'
I975
sS'x'
I850
sg16
I0
s(dp29
g14
S'curve'
p30
sS'x'
I836
sg16
I1
sS'y'
I940
s(dp31
g14
S'line'
p32
sS'x'
I518
sg16
I0
sS'y'
I166
stp33
s(dp34
g12
((dp35
g14
S'curve'
p36
sS'x'
I518
sg16
I0
sS'y'
I0
s(dp37
g14
S'line'
p38
sS'x'
I518
sg16
I0
sS'y'
I166
s(dp39
g14
S'line'
p40
sS'x'
I200
sg16
I1
sS'y'
I940
s(dp41
S'y'
I975
sS'x'
I186
sg16
I0
s(dp42
S'y'
I991
sS'x'
I158
sg16
I0
s(dp43
g14
S'curve'
p44
sS'x'
I129
sg16
I1
sS'y'
I991
s(dp45
S'y'
I991
sS'x'
I68
sg16
I0
s(dp46
S'y'
I940
sS'x'
I36
sg16
I0
s(dp47
g14
S'curve'
p48
sS'x'
I57
sg16
I1
sS'y'
I890
s(dp49
g14
S'line'
p50
sS'x'
I382
sg16
I1
sS'y'
I121
s(dp51
S'y'
I36
sS'x'
I418
sg16
I0
s(dp52
S'y'
I0
sS'x'
I447
sg16
I0
stp53
stp54
sS'components'
p55
(tsS'anchors'
p56
(tsss."
LayerCount: 2
Fore
SplineSet
506 2 m 256
 559 2 575 27 604 93 c 258
 958 910 l 258
 960 914 961 918 961 923 c 256
 961 951 929 986 898 986 c 256
 881 986 863 975 851 946 c 258
 506 128 l 257
 161 946 l 258
 149 975 131 986 114 986 c 256
 83 986 51 951 51 923 c 256
 51 918 52 914 54 910 c 258
 408 93 l 258
 437 27 453 2 506 2 c 256
EndSplineSet
EndChar

StartChar: w
Encoding: 87 119 472
Width: 1697
VWidth: 0
GlyphClass: 2
Flags: W
PickledData: "(dp1
S'b'
(dp2
sS'anchors'
p3
(tsS'lib'
p4
(dp5
sS'unicodes'
p6
(tsS'width'
p7
I1742
sS'contours'
p8
(tsS'components'
p9
(tsS'com.typemytype.robofont.layerData'
p10
(dp11
S'b'
(dp12
S'name'
p13
S'w'
sg4
(dp14
sg6
(tsg7
I1699
sg8
((dp15
S'points'
p16
((dp17
S'segmentType'
p18
S'curve'
p19
sS'x'
I477
sS'smooth'
p20
I1
sS'y'
I0
s(dp21
S'y'
I0
sS'x'
I524
sg20
I0
s(dp22
S'y'
I30
sS'x'
I564
sg20
I0
s(dp23
g18
S'curve'
p24
sS'x'
I588
sg20
I0
sS'y'
I96
s(dp25
g18
S'line'
p26
sS'x'
I859
sg20
I0
sS'y'
I839
s(dp27
g18
S'line'
p28
sS'x'
I859
sg20
I0
sS'y'
I991
s(dp29
S'y'
I991
sS'x'
I808
sg20
I0
s(dp30
S'y'
I959
sS'x'
I771
sg20
I0
s(dp31
g18
S'curve'
p32
sS'x'
I750
sg20
I1
sS'y'
I899
s(dp33
g18
S'line'
p34
sS'x'
I488
sg20
I0
sS'y'
I173
s(dp35
g18
S'line'
p36
sS'x'
I223
sg20
I1
sS'y'
I936
s(dp37
S'y'
I974
sS'x'
I210
sg20
I0
s(dp38
S'y'
I991
sS'x'
I183
sg20
I0
s(dp39
g18
S'curve'
p40
sS'x'
I152
sg20
I1
sS'y'
I991
s(dp41
S'y'
I991
sS'x'
I112
sg20
I0
s(dp42
S'y'
I962
sS'x'
I79
sg20
I0
s(dp43
g18
S'curve'
p44
sS'x'
I79
sg20
I1
sS'y'
I916
s(dp45
S'y'
I909
sS'x'
I79
sg20
I0
s(dp46
S'y'
I899
sS'x'
I81
sg20
I0
s(dp47
g18
S'curve'
p48
sS'x'
I84
sg20
I0
sS'y'
I888
s(dp49
g18
S'line'
p50
sS'x'
I372
sg20
I1
sS'y'
I88
s(dp51
S'y'
I26
sS'x'
I394
sg20
I0
s(dp52
S'y'
I0
sS'x'
I433
sg20
I0
stp53
s(dp54
g16
((dp55
g18
S'curve'
p56
sS'x'
I1241
sg20
I1
sS'y'
I0
s(dp57
S'y'
I0
sS'x'
I1285
sg20
I0
s(dp58
S'y'
I26
sS'x'
I1324
sg20
I0
s(dp59
g18
S'curve'
p60
sS'x'
I1346
sg20
I1
sS'y'
I88
s(dp61
g18
S'line'
p62
sS'x'
I1634
sg20
I0
sS'y'
I888
s(dp63
S'y'
I899
sS'x'
I1637
sg20
I0
s(dp64
S'y'
I909
sS'x'
I1639
sg20
I0
s(dp65
g18
S'curve'
p66
sS'x'
I1639
sg20
I1
sS'y'
I916
s(dp67
S'y'
I962
sS'x'
I1639
sg20
I0
s(dp68
S'y'
I991
sS'x'
I1606
sg20
I0
s(dp69
g18
S'curve'
p70
sS'x'
I1566
sg20
I1
sS'y'
I991
s(dp71
S'y'
I991
sS'x'
I1535
sg20
I0
s(dp72
S'y'
I974
sS'x'
I1508
sg20
I0
s(dp73
g18
S'curve'
p74
sS'x'
I1495
sg20
I1
sS'y'
I936
s(dp75
g18
S'line'
p76
sS'x'
I1230
sg20
I0
sS'y'
I173
s(dp77
g18
S'line'
p78
sS'x'
I968
sg20
I1
sS'y'
I899
s(dp79
S'y'
I959
sS'x'
I947
sg20
I0
s(dp80
S'y'
I991
sS'x'
I910
sg20
I0
s(dp81
g18
S'curve'
p82
sS'x'
I859
sg20
I0
sS'y'
I991
s(dp83
g18
S'line'
p84
sS'x'
I859
sg20
I0
sS'y'
I839
s(dp85
g18
S'line'
p86
sS'x'
I1130
sg20
I0
sS'y'
I96
s(dp87
S'y'
I30
sS'x'
I1154
sg20
I0
s(dp88
S'y'
I0
sS'x'
I1194
sg20
I0
stp89
stp90
sg9
(tsg3
(tsssg13
S'w'
s."
AnchorPoint: "top" 857 994 basechar 0
LayerCount: 2
Fore
SplineSet
1241 0 m 256
 1273 0 1301 21 1318 63 c 258
 1638 902 l 258
 1642 912 1644 921 1644 930 c 256
 1644 962 1618 982 1591 982 c 256
 1570 982 1548 969 1538 941 c 258
 1236 133 l 257
 945 910 l 258
 928 956 902 985 860 985 c 256
 819 985 792 956 775 910 c 258
 484 133 l 257
 183 941 l 258
 172 970 150 982 129 982 c 256
 102 982 76 962 76 930 c 256
 76 921 78 912 82 902 c 258
 402 63 l 258
 419 21 447 0 479 0 c 256
 513 0 539 31 554 67 c 258
 860 876 l 257
 1166 67 l 258
 1181 31 1207 0 1241 0 c 256
EndSplineSet
EndChar

StartChar: x
Encoding: 88 120 477
Width: 1026
VWidth: 0
GlyphClass: 2
Flags: W
PickledData: "(dp1
S'com.typemytype.robofont.layerData'
p2
(dp3
S'b'
(dp4
S'name'
p5
S'x'
sS'lib'
p6
(dp7
sS'unicodes'
p8
(tsS'width'
p9
I1039
sS'contours'
p10
(tsS'components'
p11
(tsS'anchors'
p12
(tsss."
LayerCount: 2
Fore
SplineSet
876 0 m 256
 911 0 928 30 928 60 c 256
 928 71 924 81 916 92 c 258
 589 510 l 257
 897 907 l 258
 903 917 908 926 908 937 c 256
 908 963 880 985 854 985 c 256
 840 985 824 978 813 963 c 258
 525 591 l 257
 237 959 l 258
 223 977 205 985 188 985 c 256
 154 985 136 957 136 925 c 256
 136 914 138 904 149 891 c 258
 452 506 l 257
 109 79 l 258
 103 71 98 62 98 52 c 256
 98 25 125 0 156 0 c 256
 172 0 185 8 194 20 c 258
 513 428 l 257
 828 27 l 258
 841 8 859 0 876 0 c 256
EndSplineSet
EndChar

StartChar: y
Encoding: 89 121 478
Width: 1001
VWidth: 0
GlyphClass: 2
Flags: W
PickledData: "(dp1
S'com.typemytype.robofont.layerData'
p2
(dp3
S'b'
(dp4
S'name'
p5
S'y'
sS'lib'
p6
(dp7
sS'unicodes'
p8
(tsS'width'
p9
I1029
sS'contours'
p10
((dp11
S'points'
p12
((dp13
S'segmentType'
p14
S'line'
p15
sS'x'
I502
sS'smooth'
p16
I0
sS'y'
I10
s(dp17
g14
S'line'
p18
sS'x'
I585
sg16
I0
sS'y'
I181
s(dp19
g14
S'line'
p20
sS'x'
I241
sg16
I1
sS'y'
I931
s(dp21
S'y'
I966
sS'x'
I225
sg16
I0
s(dp22
S'y'
I984
sS'x'
I201
sg16
I0
s(dp23
g14
S'curve'
p24
sS'x'
I171
sg16
I1
sS'y'
I984
s(dp25
S'y'
I984
sS'x'
I117
sg16
I0
s(dp26
S'y'
I936
sS'x'
I64
sg16
I0
s(dp27
g14
S'curve'
p28
sS'x'
I91
sg16
I0
sS'y'
I887
stp29
s(dp30
g12
((dp31
g14
S'curve'
p32
sS'x'
I365
sg16
I1
sS'y'
S'-388'
p33
s(dp34
S'y'
S'-388'
p35
sS'x'
I396
sg16
I0
s(dp36
S'y'
S'-373'
p37
sS'x'
I424
sg16
I0
s(dp38
g14
S'curve'
p39
sS'x'
I442
sg16
I1
sS'y'
S'-334'
p40
s(dp41
g14
S'line'
p42
sS'x'
I1009
sg16
I1
sS'y'
I888
s(dp43
S'y'
I898
sS'x'
I1013
sg16
I0
s(dp44
S'y'
I908
sS'x'
I1016
sg16
I0
s(dp45
g14
S'curve'
p46
sS'x'
I1016
sg16
I1
sS'y'
I918
s(dp47
S'y'
I962
sS'x'
I1018
sg16
I0
s(dp48
S'y'
I990
sS'x'
I978
sg16
I0
s(dp49
g14
S'curve'
p50
sS'x'
I938
sg16
I1
sS'y'
I990
s(dp51
S'y'
I990
sS'x'
I910
sg16
I0
s(dp52
S'y'
I977
sS'x'
I883
sg16
I0
s(dp53
g14
S'curve'
p54
sS'x'
I866
sg16
I0
sS'y'
I941
s(dp55
g14
S'line'
p56
sS'x'
I299
sg16
I1
sS'y'
S'-286'
p57
s(dp58
S'y'
S'-344'
p59
sS'x'
I272
sg16
I0
s(dp60
S'y'
S'-388'
p61
sS'x'
I316
sg16
I0
stp62
stp63
sS'components'
p64
(tsS'anchors'
p65
(tsss."
AnchorPoint: "top" 556 984 basechar 0
LayerCount: 2
Fore
SplineSet
450 -318 m 258
 995 910 l 258
 996 915 997 919 997 924 c 256
 997 956 967 981 938 981 c 256
 919 981 899 971 888 944 c 258
 549 176 l 257
 200 957 l 258
 190 981 171 992 152 992 c 256
 123 992 94 967 94 932 c 256
 94 924 95 915 99 906 c 258
 488 37 l 257
 340 -299 l 258
 335 -310 333 -319 333 -328 c 256
 333 -355 354 -370 379 -370 c 256
 405 -370 435 -354 450 -318 c 258
EndSplineSet
EndChar

StartChar: yen
Encoding: 100 165 482
Width: 1129
VWidth: 0
GlyphClass: 2
Flags: W
LayerCount: 2
Fore
SplineSet
185 302 m 258
 1014 302 l 258
 1054 302 1074 327 1074 357 c 256
 1074 388 1055 413 1014 413 c 258
 185 413 l 258
 145 413 126 387 126 359 c 256
 126 329 146 302 185 302 c 258
185 550 m 258
 1014 550 l 258
 1054 550 1074 575 1074 605 c 256
 1074 636 1055 662 1014 662 c 258
 185 662 l 258
 145 662 126 635 126 607 c 256
 126 578 146 550 185 550 c 258
EndSplineSet
Refer: 124 89 N 1 0 0 1 0 0 2
EndChar

StartChar: z
Encoding: 90 122 484
Width: 910
VWidth: 0
GlyphClass: 2
Flags: W
AnchorPoint: "top" 439 1001 basechar 0
LayerCount: 2
Fore
SplineSet
163 0 m 258
 743 0 l 258
 780 0 799 25 799 50 c 256
 799 73 780 98 743 98 c 258
 219 98 l 257
 785 861 l 258
 801 883 808 901 808 918 c 256
 808 958 777 985 727 985 c 258
 148 985 l 258
 115 985 97 960 97 935 c 256
 97 913 113 891 148 891 c 258
 673 891 l 257
 108 123 l 258
 94 103 87 84 87 66 c 256
 87 29 114 0 163 0 c 258
EndSplineSet
EndChar

StartChar: zero
Encoding: 16 48 488
Width: 1132
VWidth: 0
GlyphClass: 2
Flags: W
LayerCount: 2
Fore
SplineSet
565 78 m 256
 266 78 235 450 235 687 c 256
 235 956 271 1312 565 1312 c 256
 863 1312 899 951 899 687 c 256
 899 455 868 78 565 78 c 256
565 -22 m 256
 949 -22 1032 315 1032 687 c 256
 1032 1094 940 1412 565 1412 c 256
 194 1412 99 1097 99 687 c 256
 99 310 184 -22 565 -22 c 256
EndSplineSet
EndChar

StartChar: uni0358
Encoding: 412 856 491
Width: 600
VWidth: 0
GlyphClass: 2
Flags: W
LayerCount: 2
Fore
SplineSet
321 443 m 256
 381 443 409 482 409 521 c 256
 409 557 382 598 321 598 c 256
 260 598 232 558 232 521 c 256
 232 483 261 443 321 443 c 256
EndSplineSet
EndChar

